<?xml version="1.0" standalone="no"?>
 <!DOCTYPE svg PUBLIC "-//W3C//DTD SVG 1.1//EN" 
 "http://www.w3.org/Graphics/SVG/1.1/DTD/svg11.dtd"> 
<svg
  xmlns:svg="http://www.w3.org/2000/svg"
  xmlns="http://www.w3.org/2000/svg"
  xmlns:xlink="http://www.w3.org/1999/xlink"
  version="1.1"
  width="297.0022mm" height="210.0072mm" viewBox="0.0000 0.0000 297.0022 210.0072">
<title>SVG Image created as idawgz32-PTH-drl_map.svg date 2024/03/10 21:35:41 </title>
  <desc>Image generated by PCBNEW </desc>
<g style="fill:#000000; fill-opacity:1.0000;stroke:#000000; stroke-opacity:1.0000;
stroke-linecap:round; stroke-linejoin:round;"
 transform="translate(0 0) scale(1 1)">
</g>
<g style="fill:none; 
stroke:#000000; stroke-width:0.1273; stroke-opacity:1; 
stroke-linecap:round; stroke-linejoin:round;">
<path d="M125.4775 103.7288
L121.8767 117.1671
" />
<path d="M38.5479 5.2371 A5.0911 5.0911 0.0 0 0 32.3126 8.8371" />
<path d="M237.9136 105.6138
L181.3607 120.7671
" />
<path d="M38.5479 5.2371
L77.2417 15.6051
" />
<path d="M115.6414 120.7669 A5.0909 5.0909 0.0 0 0 121.8767 117.1671" />
<path d="M130.3951 99.9554 A5.0916 5.0916 0.0 0 0 125.4775 103.7288" />
<path d="M55.4885 99.3785
L64.7123 64.9550
" />
<path d="M64.7123 64.9550 A5.0913 5.0913 0.0 0 0 61.1123 58.7196" />
<path d="M237.9136 105.6139 A5.0913 5.0913 0.0 0 0 241.5135 99.3785" />
<path d="M175.1251 117.1672 A5.0908 5.0908 0.0 0 0 181.3607 120.7671" />
<path d="M77.2417 15.6051 A5.0936 5.0936 0.0 0 0 78.5593 15.7785" />
<path d="M218.4427 15.7786 A5.0934 5.0934 0.0 0 0 219.7604 15.6051" />
<path d="M264.6894 8.8371 A5.0914 5.0914 0.0 0 0 258.4541 5.2371" />
<path d="M270.3132 49.4959
L235.8897 58.7196
" />
<path d="M115.6414 120.7671
L59.0885 105.6138
" />
<path d="M166.6069 99.9554
L130.3951 99.9554
" />
<path d="M171.5247 103.7288 A5.0914 5.0914 0.0 0 0 166.6069 99.9554" />
<path d="M78.5593 15.7785
L218.4427 15.7786
" />
<path d="M264.6895 8.8371
L273.9132 43.2606
" />
<path d="M235.8898 58.7198 A5.0911 5.0911 0.0 0 0 232.2898 64.9550" />
<path d="M232.2898 64.9550
L241.5135 99.3785
" />
<path d="M270.3133 49.4961 A5.0913 5.0913 0.0 0 0 273.9132 43.2606" />
<path d="M219.7604 15.6051
L258.4541 5.2371
" />
<path d="M61.1123 58.7196
L26.6888 49.4959
" />
<path d="M23.0889 43.2606 A5.0915 5.0915 0.0 0 0 26.6888 49.4959" />
<path d="M55.4885 99.3785 A5.0911 5.0911 0.0 0 0 59.0885 105.6138" />
<path d="M23.0889 43.2606
L32.3126 8.8371
" />
<path d="M175.1253 117.1671
L171.5246 103.7288
" />
</g>
<g style="fill:none; 
stroke:#000000; stroke-width:0.2546; stroke-opacity:1; 
stroke-linecap:round; stroke-linejoin:round;">
<path d="M26.3366 34.7088
L27.3549 35.7270
" />
<path d="M27.3549 34.7088
L26.3366 35.7270
" />
<path d="M27.9321 28.7544
L28.9503 29.7726
" />
<path d="M28.9503 28.7544
L27.9321 29.7726
" />
<path d="M31.6850 44.2544
L32.7032 45.2727
" />
<path d="M32.7032 44.2544
L31.6850 45.2727
" />
<path d="M34.4850 33.8045
L35.5032 34.8227
" />
<path d="M35.5032 33.8045
L34.4850 34.8227
" />
<path d="M35.9879 45.4074
L37.0061 46.4256
" />
<path d="M37.0061 45.4074
L35.9879 46.4256
" />
<path d="M37.6145 22.1251
L38.6327 23.1433
" />
<path d="M38.6327 22.1251
L37.6145 23.1433
" />
<path d="M38.7880 34.9574
L39.8062 35.9757
" />
<path d="M39.8062 34.9574
L38.7880 35.9757
" />
<path d="M41.9175 23.2780
L42.9357 24.2963
" />
<path d="M42.9357 23.2780
L41.9175 24.2963
" />
<path d="M41.9251 26.1405
L42.9433 27.1587
" />
<path d="M42.9433 26.1405
L41.9251 27.1587
" />
<path d="M49.4021 17.5663
L50.4204 18.5845
" />
<path d="M50.4204 17.5663
L49.4021 18.5845
" />
<path d="M53.8144 50.1840
L54.8326 51.2022
" />
<path d="M54.8326 50.1840
L53.8144 51.2022
" />
<path d="M56.6144 39.7340
L57.6326 40.7522
" />
<path d="M57.6326 39.7340
L56.6144 40.7522
" />
<path d="M58.1173 51.3370
L59.1355 52.3552
" />
<path d="M59.1355 51.3370
L58.1173 52.3552
" />
<path d="M60.9174 40.8870
L61.9356 41.9052
" />
<path d="M61.9356 40.8870
L60.9174 41.9052
" />
<path d="M64.0545 32.0700
L65.0727 33.0883
" />
<path d="M65.0727 32.0700
L64.0545 33.0883
" />
<path d="M67.3347 90.7018
L68.3529 91.7200
" />
<path d="M68.3529 90.7018
L67.3347 91.7200
" />
<path d="M70.0142 78.2429
L71.0324 79.2612
" />
<path d="M71.0324 78.2429
L70.0142 79.2612
" />
<path d="M71.0229 91.6900
L72.0412 92.7082
" />
<path d="M72.0412 91.6900
L71.0229 92.7082
" />
<path d="M73.2643 68.5724
L74.2825 69.5906
" />
<path d="M74.2825 68.5724
L73.2643 69.5906
" />
<path d="M73.5722 26.0554
L74.5904 27.0736
" />
<path d="M74.5904 26.0554
L73.5722 27.0736
" />
<path d="M74.1601 82.8731
L75.1783 83.8913
" />
<path d="M75.1783 82.8731
L74.1601 83.8913
" />
<path d="M74.3171 79.3959
L75.3354 80.4141
" />
<path d="M75.3354 79.3959
L74.3171 80.4141
" />
<path d="M75.9437 56.1136
L76.9620 57.1318
" />
<path d="M76.9620 56.1136
L75.9437 57.1318
" />
<path d="M76.9525 69.5606
L77.9707 70.5789
" />
<path d="M77.9707 69.5606
L76.9525 70.5789
" />
<path d="M78.7438 45.6636
L79.7620 46.6818
" />
<path d="M79.7620 45.6636
L78.7438 46.6818
" />
<path d="M79.9249 61.3584
L80.9431 62.3766
" />
<path d="M80.9431 61.3584
L79.9249 62.3766
" />
<path d="M80.2467 57.2665
L81.2649 58.2847
" />
<path d="M81.2649 57.2665
L80.2467 58.2847
" />
<path d="M83.0467 46.8165
L84.0650 47.8348
" />
<path d="M84.0650 46.8165
L83.0467 47.8348
" />
<path d="M85.4045 38.4496
L86.4227 39.4678
" />
<path d="M86.4227 38.4496
L85.4045 39.4678
" />
<path d="M89.4641 96.6313
L90.4823 97.6495
" />
<path d="M90.4823 96.6313
L89.4641 97.6495
" />
<path d="M92.1436 84.1725
L93.1618 85.1907
" />
<path d="M93.1618 84.1725
L92.1436 85.1907
" />
<path d="M93.1523 97.6196
L94.1705 98.6378
" />
<path d="M94.1705 97.6196
L93.1523 98.6378
" />
<path d="M95.2954 33.4459
L96.3136 34.4641
" />
<path d="M96.3136 33.4459
L95.2954 34.4641
" />
<path d="M95.3936 74.5019
L96.4119 75.5201
" />
<path d="M96.4119 74.5019
L95.3936 75.5201
" />
<path d="M96.2895 88.8026
L97.3077 89.8209
" />
<path d="M97.3077 88.8026
L96.2895 89.8209
" />
<path d="M96.4465 85.3255
L97.4647 86.3437
" />
<path d="M97.4647 85.3255
L96.4465 86.3437
" />
<path d="M98.0731 62.0431
L99.0914 63.0613
" />
<path d="M99.0914 62.0431
L98.0731 63.0613
" />
<path d="M99.0819 75.4902
L100.1001 76.5084
" />
<path d="M100.1001 75.4902
L99.0819 76.5084
" />
<path d="M100.7085 52.2078
L101.7267 53.2260
" />
<path d="M101.7267 52.2078
L100.7085 53.2260
" />
<path d="M100.9768 89.3193
L101.9950 90.3375
" />
<path d="M101.9950 89.3193
L100.9768 90.3375
" />
<path d="M102.0543 67.2879
L103.0725 68.3062
" />
<path d="M103.0725 67.2879
L102.0543 68.3062
" />
<path d="M102.3761 63.1961
L103.3943 64.2143
" />
<path d="M103.3943 63.1961
L102.3761 64.2143
" />
<path d="M104.6174 40.0784
L105.6356 41.0966
" />
<path d="M105.6356 40.0784
L104.6174 41.0966
" />
<path d="M104.7667 46.3259
L105.7849 47.3441
" />
<path d="M105.7849 46.3259
L104.7667 47.3441
" />
<path d="M105.0114 53.3608
L106.0297 54.3790
" />
<path d="M106.0297 53.3608
L105.0114 54.3790
" />
<path d="M106.3998 68.6635
L107.4180 69.6817
" />
<path d="M107.4180 68.6635
L106.3998 69.6817
" />
<path d="M107.2527 30.2431
L108.2710 31.2614
" />
<path d="M108.2710 30.2431
L107.2527 31.2614
" />
<path d="M108.1486 44.5439
L109.1668 45.5621
" />
<path d="M109.1668 44.5439
L108.1486 45.5621
" />
<path d="M108.3056 41.0667
L109.3238 42.0849
" />
<path d="M109.3238 41.0667
L108.3056 42.0849
" />
<path d="M110.0308 26.6801
L111.0490 27.6983
" />
<path d="M111.0490 26.6801
L110.0308 27.6983
" />
<path d="M110.9410 31.2314
L111.9592 32.2496
" />
<path d="M111.9592 31.2314
L110.9410 32.2496
" />
<path d="M111.5935 102.5609
L112.6117 103.5791
" />
<path d="M112.6117 102.5609
L111.5935 103.5791
" />
<path d="M112.3234 70.2507
L113.3417 71.2689
" />
<path d="M113.3417 70.2507
L112.3234 71.2689
" />
<path d="M114.8877 90.2668
L115.9059 91.2850
" />
<path d="M115.9059 90.2668
L114.8877 91.2850
" />
<path d="M115.2817 103.5491
L116.2999 104.5673
" />
<path d="M116.2999 103.5491
L115.2817 104.5673
" />
<path d="M117.0967 59.8932
L118.1149 60.9114
" />
<path d="M118.1149 59.8932
L117.0967 60.9114
" />
<path d="M117.5230 80.4315
L118.5413 81.4497
" />
<path d="M118.5413 80.4315
L117.5230 81.4497
" />
<path d="M117.8041 94.5675
L118.8224 95.5857
" />
<path d="M118.8224 94.5675
L117.8041 95.5857
" />
<path d="M118.5759 91.2550
L119.5941 92.2732
" />
<path d="M119.5941 91.2550
L118.5759 92.2732
" />
<path d="M120.2025 67.9727
L121.2208 68.9909
" />
<path d="M121.2208 67.9727
L120.2025 68.9909
" />
<path d="M121.2113 81.4197
L122.2295 82.4380
" />
<path d="M122.2295 81.4197
L121.2113 82.4380
" />
<path d="M121.3663 29.6380
L122.3845 30.6563
" />
<path d="M122.3845 29.6380
L121.3663 30.6563
" />
<path d="M123.1746 68.7690
L124.1928 69.7872
" />
<path d="M124.1928 68.7690
L123.1746 69.7872
" />
<path d="M123.9115 73.1445
L124.9297 74.1628
" />
<path d="M124.9297 73.1445
L123.9115 74.1628
" />
<path d="M124.0157 59.3380
L125.0339 60.3563
" />
<path d="M125.0339 59.3380
L124.0157 60.3563
" />
<path d="M125.9144 45.1261
L126.9326 46.1443
" />
<path d="M126.9326 45.1261
L125.9144 46.1443
" />
<path d="M126.0126 66.3918
L127.0308 67.4100
" />
<path d="M127.0308 66.3918
L126.0126 67.4100
" />
<path d="M128.3851 35.9055
L129.4033 36.9238
" />
<path d="M129.4033 35.9055
L128.3851 36.9238
" />
<path d="M128.6275 65.0656
L129.6457 66.0838
" />
<path d="M129.6457 65.0656
L128.6275 66.0838
" />
<path d="M128.7893 62.5264
L129.8075 63.5447
" />
<path d="M129.8075 62.5264
L128.7893 63.5447
" />
<path d="M129.5694 73.3643
L130.5877 74.3826
" />
<path d="M130.5877 73.3643
L129.5694 74.3826
" />
<path d="M130.2779 50.4734
L131.2962 51.4916
" />
<path d="M131.2962 50.4734
L130.2779 51.4916
" />
<path d="M130.5997 46.3815
L131.6179 47.3998
" />
<path d="M131.6179 46.3815
L130.5997 47.3998
" />
<path d="M131.2663 92.6946
L132.2845 93.7128
" />
<path d="M132.2845 92.6946
L131.2663 93.7128
" />
<path d="M131.9391 63.4364
L132.9573 64.4547
" />
<path d="M132.9573 63.4364
L131.9391 64.4547
" />
<path d="M133.0704 37.1610
L134.0886 38.1792
" />
<path d="M134.0886 37.1610
L133.0704 38.1792
" />
<path d="M133.4534 32.2693
L134.4716 33.2875
" />
<path d="M134.4716 32.2693
L133.4534 33.2875
" />
<path d="M134.5687 67.9259
L135.5870 68.9442
" />
<path d="M135.5870 67.9259
L134.5687 68.9442
" />
<path d="M134.8505 65.3973
L135.8687 66.4155
" />
<path d="M135.8687 65.3973
L134.8505 66.4155
" />
<path d="M135.2442 23.0280
L136.2624 24.0462
" />
<path d="M136.2624 23.0280
L135.2442 24.0462
" />
<path d="M135.9455 51.6199
L136.9637 52.6381
" />
<path d="M136.9637 51.6199
L135.9455 52.6381
" />
<path d="M138.4911 43.1108
L139.5093 44.1291
" />
<path d="M139.5093 43.1108
L138.4911 44.1291
" />
<path d="M141.7881 42.5631
L142.8063 43.5813
" />
<path d="M142.8063 42.5631
L141.7881 43.5813
" />
<path d="M143.5173 23.0280
L144.5355 24.0462
" />
<path d="M144.5355 23.0280
L143.5173 24.0462
" />
<path d="M143.7793 36.5394
L144.7975 37.5576
" />
<path d="M144.7975 36.5394
L143.7793 37.5576
" />
<path d="M144.2822 50.3928
L145.3004 51.4110
" />
<path d="M145.3004 50.3928
L144.2822 51.4110
" />
<path d="M144.2822 46.1269
L145.3004 47.1451
" />
<path d="M145.3004 46.1269
L144.2822 47.1451
" />
<path d="M144.5554 75.8484
L145.5736 76.8666
" />
<path d="M145.5736 75.8484
L144.5554 76.8666
" />
<path d="M151.1540 23.0280
L152.1722 24.0462
" />
<path d="M152.1722 23.0280
L151.1540 24.0462
" />
<path d="M152.4725 42.7991
L153.4907 43.8173
" />
<path d="M153.4907 42.7991
L152.4725 43.8173
" />
<path d="M152.6443 39.4003
L153.6625 40.4185
" />
<path d="M153.6625 39.4003
L152.6443 40.4185
" />
<path d="M154.3359 50.3928
L155.3541 51.4110
" />
<path d="M155.3541 50.3928
L154.3359 51.4110
" />
<path d="M156.0339 41.8459
L157.0521 42.8641
" />
<path d="M157.0521 41.8459
L156.0339 42.8641
" />
<path d="M156.2501 35.5801
L157.2683 36.5983
" />
<path d="M157.2683 35.5801
L156.2501 36.5983
" />
<path d="M156.8069 51.4725
L157.8251 52.4908
" />
<path d="M157.8251 51.4725
L156.8069 52.4908
" />
<path d="M158.5171 61.1253
L159.5353 62.1435
" />
<path d="M159.5353 61.1253
L158.5171 62.1435
" />
<path d="M158.6803 63.7193
L159.6985 64.7375
" />
<path d="M159.6985 63.7193
L158.6803 64.7375
" />
<path d="M160.2799 65.6978
L161.2981 66.7160
" />
<path d="M161.2981 65.6978
L160.2799 66.7160
" />
<path d="M160.6998 23.0280
L161.7180 24.0463
" />
<path d="M161.7180 23.0280
L160.6998 24.0463
" />
<path d="M161.0100 70.6625
L162.0282 71.6807
" />
<path d="M162.0282 70.6625
L161.0100 71.6807
" />
<path d="M161.1240 68.0980
L162.1422 69.1162
" />
<path d="M162.1422 68.0980
L161.1240 69.1162
" />
<path d="M161.9726 75.8484
L162.9908 76.8666
" />
<path d="M162.9908 75.8484
L161.9726 76.8666
" />
<path d="M162.4060 30.3874
L163.4242 31.4056
" />
<path d="M163.4242 30.3874
L162.4060 31.4056
" />
<path d="M162.9050 43.7737
L163.9233 44.7919
" />
<path d="M163.9233 43.7737
L162.9050 44.7919
" />
<path d="M163.7683 37.5719
L164.7865 38.5901
" />
<path d="M164.7865 37.5719
L163.7683 38.5901
" />
<path d="M165.8326 50.5521
L166.8508 51.5703
" />
<path d="M166.8508 50.5521
L165.8326 51.5703
" />
<path d="M166.4683 32.8954
L167.4865 33.9137
" />
<path d="M167.4865 32.8954
L166.4683 33.9137
" />
<path d="M166.6585 55.7346
L167.6767 56.7528
" />
<path d="M167.6767 55.7346
L166.6585 56.7528
" />
<path d="M169.4752 56.7699
L170.4934 57.7881
" />
<path d="M170.4934 56.7699
L169.4752 57.7881
" />
<path d="M170.5274 41.7313
L171.5456 42.7495
" />
<path d="M171.5456 41.7313
L170.5274 42.7495
" />
<path d="M171.7622 72.6815
L172.7804 73.6997
" />
<path d="M172.7804 72.6815
L171.7622 73.6997
" />
<path d="M172.5630 54.3217
L173.5812 55.3399
" />
<path d="M173.5812 54.3217
L172.5630 55.3399
" />
<path d="M174.8652 84.0115
L175.8834 85.0297
" />
<path d="M175.8834 84.0115
L174.8652 85.0297
" />
<path d="M177.6917 94.8109
L178.7099 95.8291
" />
<path d="M178.7099 94.8109
L177.6917 95.8291
" />
<path d="M180.4245 82.5219
L181.4427 83.5401
" />
<path d="M181.4427 82.5219
L180.4245 83.5401
" />
<path d="M180.7948 106.1408
L181.8130 107.1591
" />
<path d="M181.8130 106.1408
L180.7948 107.1591
" />
<path d="M186.3540 104.6512
L187.3723 105.6695
" />
<path d="M187.3723 104.6512
L186.3540 105.6695
" />
<path d="M187.9620 44.6226
L188.9802 45.6408
" />
<path d="M188.9802 44.6226
L187.9620 45.6408
" />
<path d="M189.3565 49.8219
L190.3747 50.8401
" />
<path d="M190.3747 49.8219
L189.3565 50.8401
" />
<path d="M192.5279 54.5322
L193.5461 55.5504
" />
<path d="M193.5461 54.5322
L192.5279 55.5504
" />
<path d="M193.8915 66.7519
L194.9098 67.7702
" />
<path d="M194.9098 66.7519
L193.8915 67.7702
" />
<path d="M194.6924 48.3922
L195.7106 49.4104
" />
<path d="M195.7106 48.3922
L194.6924 49.4104
" />
<path d="M196.9946 78.0819
L198.0128 79.1001
" />
<path d="M198.0128 78.0819
L196.9946 79.1001
" />
<path d="M197.3481 55.6460
L198.3663 56.6642
" />
<path d="M198.3663 55.6460
L197.3481 56.6642
" />
<path d="M199.4228 57.1188
L200.4410 58.1370
" />
<path d="M200.4410 57.1188
L199.4228 58.1370
" />
<path d="M199.8211 88.8814
L200.8393 89.8996
" />
<path d="M200.8393 88.8814
L199.8211 89.8996
" />
<path d="M202.1844 57.5316
L203.2027 58.5499
" />
<path d="M203.2027 57.5316
L202.1844 58.5499
" />
<path d="M202.5539 76.5923
L203.5721 77.6105
" />
<path d="M203.5721 76.5923
L202.5539 77.6105
" />
<path d="M203.0274 100.8425
L204.0456 101.8607
" />
<path d="M204.0456 100.8425
L203.0274 101.8607
" />
<path d="M203.9393 64.1393
L204.9575 65.1576
" />
<path d="M204.9575 64.1393
L203.9393 65.1576
" />
<path d="M208.5628 55.8226
L209.5810 56.8408
" />
<path d="M209.5810 55.8226
L208.5628 56.8408
" />
<path d="M209.2628 99.1717
L210.2811 100.1899
" />
<path d="M210.2811 99.1717
L209.2628 100.1899
" />
<path d="M209.3023 85.1378
L210.3205 86.1560
" />
<path d="M210.3205 85.1378
L209.3023 86.1560
" />
<path d="M210.3322 62.4263
L211.3505 63.4446
" />
<path d="M211.3505 62.4263
L210.3322 63.4446
" />
<path d="M210.7061 38.5283
L211.7243 39.5465
" />
<path d="M211.7243 38.5283
L210.7061 39.5465
" />
<path d="M210.7487 54.1452
L211.7669 55.1634
" />
<path d="M211.7669 54.1452
L210.7487 55.1634
" />
<path d="M213.1503 47.3994
L214.1685 48.4177
" />
<path d="M214.1685 47.3994
L213.1503 48.4177
" />
<path d="M216.0209 60.8224
L217.0392 61.8406
" />
<path d="M217.0392 60.8224
L216.0209 61.8406
" />
<path d="M217.1705 83.0295
L218.1887 84.0477
" />
<path d="M218.1887 83.0295
L217.1705 84.0477
" />
<path d="M217.4802 46.2392
L218.4984 47.2575
" />
<path d="M218.4984 46.2392
L217.4802 47.2575
" />
<path d="M219.0625 72.1688
L220.0807 73.1870
" />
<path d="M220.0807 72.1688
L219.0625 73.1870
" />
<path d="M221.9505 82.9518
L222.9687 83.9700
" />
<path d="M222.9687 82.9518
L221.9505 83.9700
" />
<path d="M224.6833 70.6627
L225.7015 71.6810
" />
<path d="M225.7015 70.6627
L224.6833 71.6810
" />
<path d="M225.1568 94.9129
L226.1750 95.9311
" />
<path d="M226.1750 94.9129
L225.1568 95.9311
" />
<path d="M231.3922 93.2421
L232.4105 94.2604
" />
<path d="M232.4105 93.2421
L231.3922 94.2604
" />
<path d="M232.8355 32.5987
L233.8537 33.6170
" />
<path d="M233.8537 32.5987
L232.8355 33.6170
" />
<path d="M235.2182 41.4863
L236.2365 42.5046
" />
<path d="M236.2365 41.4863
L235.2182 42.5046
" />
<path d="M238.5876 46.9355
L239.6059 47.9537
" />
<path d="M239.6059 46.9355
L238.5876 47.9537
" />
<path d="M239.7743 40.9244
L240.7925 41.9426
" />
<path d="M240.7925 40.9244
L239.7743 41.9426
" />
<path d="M254.3502 26.8339
L255.3684 27.8521
" />
<path d="M255.3684 26.8339
L254.3502 27.8521
" />
<path d="M256.7944 35.7050
L257.8126 36.7233
" />
<path d="M257.8126 35.7050
L256.7944 36.7233
" />
<path d="M259.6370 42.8765
L260.6553 43.8948
" />
<path d="M260.6553 42.8765
L259.6370 43.8948
" />
<path d="M261.7390 34.3801
L262.7572 35.3984
" />
<path d="M262.7572 34.3801
L261.7390 35.3984
" />
<circle cx="137.4843" cy="17.9751" r="0.7637" /> 
<path d="M138.2480 18.7388
L138.2480 17.2114
" />
<path d="M138.2480 17.2114 A0.7637 0.7637 0.0 0 0 136.7206 17.2114" />
<path d="M136.7206 17.2114
L136.7206 18.7388
" />
<path d="M136.7206 18.7388 A0.7637 0.7637 0.0 0 0 138.2480 18.7388" />
<circle cx="137.4843" cy="28.6155" r="0.7637" /> 
<path d="M138.2480 30.0156
L138.2480 27.2155
" />
<path d="M138.2480 27.2155 A0.7637 0.7637 0.0 0 0 136.7206 27.2155" />
<path d="M136.7206 27.2155
L136.7206 30.0156
" />
<path d="M136.7206 30.0156 A0.7637 0.7637 0.0 0 0 138.2480 30.0156" />
<circle cx="159.4779" cy="17.9751" r="0.7637" /> 
<path d="M160.2416 18.7388
L160.2416 17.2114
" />
<path d="M160.2416 17.2114 A0.7637 0.7637 0.0 0 0 158.7143 17.2114" />
<path d="M158.7143 17.2114
L158.7143 18.7388
" />
<path d="M158.7143 18.7388 A0.7637 0.7637 0.0 0 0 160.2416 18.7388" />
<circle cx="159.4779" cy="28.6155" r="0.7637" /> 
<path d="M160.2416 30.0156
L160.2416 27.2155
" />
<path d="M160.2416 27.2155 A0.7637 0.7637 0.0 0 0 158.7143 27.2155" />
<path d="M158.7143 27.2155
L158.7143 30.0156
" />
<path d="M158.7143 30.0156 A0.7637 0.7637 0.0 0 0 160.2416 30.0156" />
</g>
<g style="fill:none; 
stroke:#000000; stroke-width:0.5091; stroke-opacity:1; 
stroke-linecap:round; stroke-linejoin:round;">
<path d="M49.8301 29.4328
L49.8301 34.5239
" />
<path d="M47.2846 31.9784
L52.3757 31.9784
" />
<path d="M82.2298 85.5507
L82.2298 90.6418
" />
<path d="M79.6842 88.0963
L84.7754 88.0963
" />
<path d="M104.3592 91.4802
L104.3592 96.5714
" />
<path d="M101.8136 94.0258
L106.9048 94.0258
" />
<path d="M116.2183 47.2215
L116.2183 52.3126
" />
<path d="M113.6727 49.7670
L118.7639 49.7670
" />
<path d="M180.7838 47.2215
L180.7838 52.3126
" />
<path d="M178.2382 49.7670
L183.3293 49.7670
" />
<path d="M192.6429 91.4803
L192.6429 96.5714
" />
<path d="M190.0973 94.0258
L195.1884 94.0258
" />
<path d="M214.7723 85.5507
L214.7723 90.6418
" />
<path d="M212.2267 88.0963
L217.3178 88.0963
" />
<path d="M247.1719 29.4328
L247.1719 34.5240
" />
<path d="M244.6264 31.9784
L249.7175 31.9784
" />
</g>
<g style="fill:none; 
stroke:#000000; stroke-width:0.2000; stroke-opacity:1; 
stroke-linecap:round; stroke-linejoin:round;">
<text x="24.8519" y="124.2043"
textLength="14.8667" font-size="2.6667" lengthAdjust="spacingAndGlyphs"
text-anchor="start" opacity="0">Drill Map:</text>
<g class="stroked-text"><desc>Drill Map:</desc>
<path d="M25.4597 124.1192
L25.4597 122.1192
" />
<path d="M25.4597 122.1192
L25.9359 122.1192
" />
<path d="M25.9359 122.1192
L26.2216 122.2144
" />
<path d="M26.2216 122.2144
L26.4120 122.4049
" />
<path d="M26.4120 122.4049
L26.5073 122.5953
" />
<path d="M26.5073 122.5953
L26.6025 122.9763
" />
<path d="M26.6025 122.9763
L26.6025 123.2620
" />
<path d="M26.6025 123.2620
L26.5073 123.6430
" />
<path d="M26.5073 123.6430
L26.4120 123.8334
" />
<path d="M26.4120 123.8334
L26.2216 124.0239
" />
<path d="M26.2216 124.0239
L25.9359 124.1192
" />
<path d="M25.9359 124.1192
L25.4597 124.1192
" />
<path d="M27.4597 124.1192
L27.4597 122.7858
" />
<path d="M27.4597 123.1668
L27.5549 122.9763
" />
<path d="M27.5549 122.9763
L27.6501 122.8811
" />
<path d="M27.6501 122.8811
L27.8406 122.7858
" />
<path d="M27.8406 122.7858
L28.0311 122.7858
" />
<path d="M28.6978 124.1192
L28.6978 122.7858
" />
<path d="M28.6978 122.1192
L28.6025 122.2144
" />
<path d="M28.6025 122.2144
L28.6978 122.3096
" />
<path d="M28.6978 122.3096
L28.7930 122.2144
" />
<path d="M28.7930 122.2144
L28.6978 122.1192
" />
<path d="M28.6978 122.1192
L28.6978 122.3096
" />
<path d="M29.9359 124.1192
L29.7454 124.0239
" />
<path d="M29.7454 124.0239
L29.6501 123.8334
" />
<path d="M29.6501 123.8334
L29.6501 122.1192
" />
<path d="M30.9835 124.1192
L30.7930 124.0239
" />
<path d="M30.7930 124.0239
L30.6978 123.8334
" />
<path d="M30.6978 123.8334
L30.6978 122.1192
" />
<path d="M33.2692 124.1192
L33.2692 122.1192
" />
<path d="M33.2692 122.1192
L33.9359 123.5477
" />
<path d="M33.9359 123.5477
L34.6025 122.1192
" />
<path d="M34.6025 122.1192
L34.6025 124.1192
" />
<path d="M36.4120 124.1192
L36.4120 123.0715
" />
<path d="M36.4120 123.0715
L36.3168 122.8811
" />
<path d="M36.3168 122.8811
L36.1263 122.7858
" />
<path d="M36.1263 122.7858
L35.7454 122.7858
" />
<path d="M35.7454 122.7858
L35.5549 122.8811
" />
<path d="M36.4120 124.0239
L36.2216 124.1192
" />
<path d="M36.2216 124.1192
L35.7454 124.1192
" />
<path d="M35.7454 124.1192
L35.5549 124.0239
" />
<path d="M35.5549 124.0239
L35.4597 123.8334
" />
<path d="M35.4597 123.8334
L35.4597 123.6430
" />
<path d="M35.4597 123.6430
L35.5549 123.4525
" />
<path d="M35.5549 123.4525
L35.7454 123.3573
" />
<path d="M35.7454 123.3573
L36.2216 123.3573
" />
<path d="M36.2216 123.3573
L36.4120 123.2620
" />
<path d="M37.3644 122.7858
L37.3644 124.7858
" />
<path d="M37.3644 122.8811
L37.5549 122.7858
" />
<path d="M37.5549 122.7858
L37.9359 122.7858
" />
<path d="M37.9359 122.7858
L38.1263 122.8811
" />
<path d="M38.1263 122.8811
L38.2216 122.9763
" />
<path d="M38.2216 122.9763
L38.3168 123.1668
" />
<path d="M38.3168 123.1668
L38.3168 123.7382
" />
<path d="M38.3168 123.7382
L38.2216 123.9287
" />
<path d="M38.2216 123.9287
L38.1263 124.0239
" />
<path d="M38.1263 124.0239
L37.9359 124.1192
" />
<path d="M37.9359 124.1192
L37.5549 124.1192
" />
<path d="M37.5549 124.1192
L37.3644 124.0239
" />
<path d="M39.1740 123.9287
L39.2692 124.0239
" />
<path d="M39.2692 124.0239
L39.1740 124.1192
" />
<path d="M39.1740 124.1192
L39.0787 124.0239
" />
<path d="M39.0787 124.0239
L39.1740 123.9287
" />
<path d="M39.1740 123.9287
L39.1740 124.1192
" />
<path d="M39.1740 122.8811
L39.2692 122.9763
" />
<path d="M39.2692 122.9763
L39.1740 123.0715
" />
<path d="M39.1740 123.0715
L39.0787 122.9763
" />
<path d="M39.0787 122.9763
L39.1740 122.8811
" />
<path d="M39.1740 122.8811
L39.1740 123.0715
" />
</g></g>
<g style="fill:none; 
stroke:#000000; stroke-width:0.2546; stroke-opacity:1; 
stroke-linecap:round; stroke-linejoin:round;">
<path d="M21.8337 126.8952
L22.8519 127.9134
" />
<path d="M22.8519 126.8952
L21.8337 127.9134
" />
</g>
<g style="fill:none; 
stroke:#000000; stroke-width:0.2000; stroke-opacity:1; 
stroke-linecap:round; stroke-linejoin:round;">
<text x="24.8519" y="128.4043"
textLength="50.6762" font-size="2.6667" lengthAdjust="spacingAndGlyphs"
text-anchor="start" opacity="0">0.400mm / 0.0157" (153 holes)</text>
<g class="stroked-text"><desc>0.400mm / 0.0157" (153 holes)</desc>
<path d="M25.8406 126.3192
L26.0311 126.3192
" />
<path d="M26.0311 126.3192
L26.2216 126.4144
" />
<path d="M26.2216 126.4144
L26.3168 126.5096
" />
<path d="M26.3168 126.5096
L26.4120 126.7001
" />
<path d="M26.4120 126.7001
L26.5073 127.0811
" />
<path d="M26.5073 127.0811
L26.5073 127.5573
" />
<path d="M26.5073 127.5573
L26.4120 127.9382
" />
<path d="M26.4120 127.9382
L26.3168 128.1287
" />
<path d="M26.3168 128.1287
L26.2216 128.2239
" />
<path d="M26.2216 128.2239
L26.0311 128.3192
" />
<path d="M26.0311 128.3192
L25.8406 128.3192
" />
<path d="M25.8406 128.3192
L25.6501 128.2239
" />
<path d="M25.6501 128.2239
L25.5549 128.1287
" />
<path d="M25.5549 128.1287
L25.4597 127.9382
" />
<path d="M25.4597 127.9382
L25.3644 127.5573
" />
<path d="M25.3644 127.5573
L25.3644 127.0811
" />
<path d="M25.3644 127.0811
L25.4597 126.7001
" />
<path d="M25.4597 126.7001
L25.5549 126.5096
" />
<path d="M25.5549 126.5096
L25.6501 126.4144
" />
<path d="M25.6501 126.4144
L25.8406 126.3192
" />
<path d="M27.3644 128.1287
L27.4597 128.2239
" />
<path d="M27.4597 128.2239
L27.3644 128.3192
" />
<path d="M27.3644 128.3192
L27.2692 128.2239
" />
<path d="M27.2692 128.2239
L27.3644 128.1287
" />
<path d="M27.3644 128.1287
L27.3644 128.3192
" />
<path d="M29.1740 126.9858
L29.1740 128.3192
" />
<path d="M28.6978 126.2239
L28.2216 127.6525
" />
<path d="M28.2216 127.6525
L29.4597 127.6525
" />
<path d="M30.6025 126.3192
L30.7930 126.3192
" />
<path d="M30.7930 126.3192
L30.9835 126.4144
" />
<path d="M30.9835 126.4144
L31.0787 126.5096
" />
<path d="M31.0787 126.5096
L31.1740 126.7001
" />
<path d="M31.1740 126.7001
L31.2692 127.0811
" />
<path d="M31.2692 127.0811
L31.2692 127.5573
" />
<path d="M31.2692 127.5573
L31.1740 127.9382
" />
<path d="M31.1740 127.9382
L31.0787 128.1287
" />
<path d="M31.0787 128.1287
L30.9835 128.2239
" />
<path d="M30.9835 128.2239
L30.7930 128.3192
" />
<path d="M30.7930 128.3192
L30.6025 128.3192
" />
<path d="M30.6025 128.3192
L30.4121 128.2239
" />
<path d="M30.4121 128.2239
L30.3168 128.1287
" />
<path d="M30.3168 128.1287
L30.2216 127.9382
" />
<path d="M30.2216 127.9382
L30.1263 127.5573
" />
<path d="M30.1263 127.5573
L30.1263 127.0811
" />
<path d="M30.1263 127.0811
L30.2216 126.7001
" />
<path d="M30.2216 126.7001
L30.3168 126.5096
" />
<path d="M30.3168 126.5096
L30.4121 126.4144
" />
<path d="M30.4121 126.4144
L30.6025 126.3192
" />
<path d="M32.5073 126.3192
L32.6978 126.3192
" />
<path d="M32.6978 126.3192
L32.8882 126.4144
" />
<path d="M32.8882 126.4144
L32.9835 126.5096
" />
<path d="M32.9835 126.5096
L33.0787 126.7001
" />
<path d="M33.0787 126.7001
L33.1740 127.0811
" />
<path d="M33.1740 127.0811
L33.1740 127.5573
" />
<path d="M33.1740 127.5573
L33.0787 127.9382
" />
<path d="M33.0787 127.9382
L32.9835 128.1287
" />
<path d="M32.9835 128.1287
L32.8882 128.2239
" />
<path d="M32.8882 128.2239
L32.6978 128.3192
" />
<path d="M32.6978 128.3192
L32.5073 128.3192
" />
<path d="M32.5073 128.3192
L32.3168 128.2239
" />
<path d="M32.3168 128.2239
L32.2216 128.1287
" />
<path d="M32.2216 128.1287
L32.1263 127.9382
" />
<path d="M32.1263 127.9382
L32.0311 127.5573
" />
<path d="M32.0311 127.5573
L32.0311 127.0811
" />
<path d="M32.0311 127.0811
L32.1263 126.7001
" />
<path d="M32.1263 126.7001
L32.2216 126.5096
" />
<path d="M32.2216 126.5096
L32.3168 126.4144
" />
<path d="M32.3168 126.4144
L32.5073 126.3192
" />
<path d="M34.0311 128.3192
L34.0311 126.9858
" />
<path d="M34.0311 127.1763
L34.1263 127.0811
" />
<path d="M34.1263 127.0811
L34.3168 126.9858
" />
<path d="M34.3168 126.9858
L34.6025 126.9858
" />
<path d="M34.6025 126.9858
L34.7930 127.0811
" />
<path d="M34.7930 127.0811
L34.8882 127.2715
" />
<path d="M34.8882 127.2715
L34.8882 128.3192
" />
<path d="M34.8882 127.2715
L34.9835 127.0811
" />
<path d="M34.9835 127.0811
L35.1740 126.9858
" />
<path d="M35.1740 126.9858
L35.4597 126.9858
" />
<path d="M35.4597 126.9858
L35.6501 127.0811
" />
<path d="M35.6501 127.0811
L35.7454 127.2715
" />
<path d="M35.7454 127.2715
L35.7454 128.3192
" />
<path d="M36.6978 128.3192
L36.6978 126.9858
" />
<path d="M36.6978 127.1763
L36.7930 127.0811
" />
<path d="M36.7930 127.0811
L36.9835 126.9858
" />
<path d="M36.9835 126.9858
L37.2692 126.9858
" />
<path d="M37.2692 126.9858
L37.4597 127.0811
" />
<path d="M37.4597 127.0811
L37.5549 127.2715
" />
<path d="M37.5549 127.2715
L37.5549 128.3192
" />
<path d="M37.5549 127.2715
L37.6501 127.0811
" />
<path d="M37.6501 127.0811
L37.8406 126.9858
" />
<path d="M37.8406 126.9858
L38.1263 126.9858
" />
<path d="M38.1263 126.9858
L38.3168 127.0811
" />
<path d="M38.3168 127.0811
L38.4120 127.2715
" />
<path d="M38.4120 127.2715
L38.4120 128.3192
" />
<path d="M42.3168 126.2239
L40.6025 128.7953
" />
<path d="M44.8882 126.3192
L45.0787 126.3192
" />
<path d="M45.0787 126.3192
L45.2692 126.4144
" />
<path d="M45.2692 126.4144
L45.3644 126.5096
" />
<path d="M45.3644 126.5096
L45.4597 126.7001
" />
<path d="M45.4597 126.7001
L45.5549 127.0811
" />
<path d="M45.5549 127.0811
L45.5549 127.5573
" />
<path d="M45.5549 127.5573
L45.4597 127.9382
" />
<path d="M45.4597 127.9382
L45.3644 128.1287
" />
<path d="M45.3644 128.1287
L45.2692 128.2239
" />
<path d="M45.2692 128.2239
L45.0787 128.3192
" />
<path d="M45.0787 128.3192
L44.8882 128.3192
" />
<path d="M44.8882 128.3192
L44.6978 128.2239
" />
<path d="M44.6978 128.2239
L44.6025 128.1287
" />
<path d="M44.6025 128.1287
L44.5073 127.9382
" />
<path d="M44.5073 127.9382
L44.4120 127.5573
" />
<path d="M44.4120 127.5573
L44.4120 127.0811
" />
<path d="M44.4120 127.0811
L44.5073 126.7001
" />
<path d="M44.5073 126.7001
L44.6025 126.5096
" />
<path d="M44.6025 126.5096
L44.6978 126.4144
" />
<path d="M44.6978 126.4144
L44.8882 126.3192
" />
<path d="M46.4121 128.1287
L46.5073 128.2239
" />
<path d="M46.5073 128.2239
L46.4121 128.3192
" />
<path d="M46.4121 128.3192
L46.3168 128.2239
" />
<path d="M46.3168 128.2239
L46.4121 128.1287
" />
<path d="M46.4121 128.1287
L46.4121 128.3192
" />
<path d="M47.7454 126.3192
L47.9359 126.3192
" />
<path d="M47.9359 126.3192
L48.1263 126.4144
" />
<path d="M48.1263 126.4144
L48.2216 126.5096
" />
<path d="M48.2216 126.5096
L48.3168 126.7001
" />
<path d="M48.3168 126.7001
L48.4120 127.0811
" />
<path d="M48.4120 127.0811
L48.4120 127.5573
" />
<path d="M48.4120 127.5573
L48.3168 127.9382
" />
<path d="M48.3168 127.9382
L48.2216 128.1287
" />
<path d="M48.2216 128.1287
L48.1263 128.2239
" />
<path d="M48.1263 128.2239
L47.9359 128.3192
" />
<path d="M47.9359 128.3192
L47.7454 128.3192
" />
<path d="M47.7454 128.3192
L47.5549 128.2239
" />
<path d="M47.5549 128.2239
L47.4597 128.1287
" />
<path d="M47.4597 128.1287
L47.3644 127.9382
" />
<path d="M47.3644 127.9382
L47.2692 127.5573
" />
<path d="M47.2692 127.5573
L47.2692 127.0811
" />
<path d="M47.2692 127.0811
L47.3644 126.7001
" />
<path d="M47.3644 126.7001
L47.4597 126.5096
" />
<path d="M47.4597 126.5096
L47.5549 126.4144
" />
<path d="M47.5549 126.4144
L47.7454 126.3192
" />
<path d="M50.3168 128.3192
L49.1740 128.3192
" />
<path d="M49.7454 128.3192
L49.7454 126.3192
" />
<path d="M49.7454 126.3192
L49.5549 126.6049
" />
<path d="M49.5549 126.6049
L49.3644 126.7953
" />
<path d="M49.3644 126.7953
L49.1740 126.8906
" />
<path d="M52.1263 126.3192
L51.1740 126.3192
" />
<path d="M51.1740 126.3192
L51.0787 127.2715
" />
<path d="M51.0787 127.2715
L51.1740 127.1763
" />
<path d="M51.1740 127.1763
L51.3644 127.0811
" />
<path d="M51.3644 127.0811
L51.8406 127.0811
" />
<path d="M51.8406 127.0811
L52.0311 127.1763
" />
<path d="M52.0311 127.1763
L52.1263 127.2715
" />
<path d="M52.1263 127.2715
L52.2216 127.4620
" />
<path d="M52.2216 127.4620
L52.2216 127.9382
" />
<path d="M52.2216 127.9382
L52.1263 128.1287
" />
<path d="M52.1263 128.1287
L52.0311 128.2239
" />
<path d="M52.0311 128.2239
L51.8406 128.3192
" />
<path d="M51.8406 128.3192
L51.3644 128.3192
" />
<path d="M51.3644 128.3192
L51.1740 128.2239
" />
<path d="M51.1740 128.2239
L51.0787 128.1287
" />
<path d="M52.8882 126.3192
L54.2216 126.3192
" />
<path d="M54.2216 126.3192
L53.3644 128.3192
" />
<path d="M54.8882 126.3192
L54.8882 126.7001
" />
<path d="M55.6502 126.3192
L55.6502 126.7001
" />
<path d="M58.6025 129.0811
L58.5073 128.9858
" />
<path d="M58.5073 128.9858
L58.3168 128.7001
" />
<path d="M58.3168 128.7001
L58.2216 128.5096
" />
<path d="M58.2216 128.5096
L58.1263 128.2239
" />
<path d="M58.1263 128.2239
L58.0311 127.7477
" />
<path d="M58.0311 127.7477
L58.0311 127.3668
" />
<path d="M58.0311 127.3668
L58.1263 126.8906
" />
<path d="M58.1263 126.8906
L58.2216 126.6049
" />
<path d="M58.2216 126.6049
L58.3168 126.4144
" />
<path d="M58.3168 126.4144
L58.5073 126.1287
" />
<path d="M58.5073 126.1287
L58.6025 126.0334
" />
<path d="M60.4121 128.3192
L59.2692 128.3192
" />
<path d="M59.8406 128.3192
L59.8406 126.3192
" />
<path d="M59.8406 126.3192
L59.6501 126.6049
" />
<path d="M59.6501 126.6049
L59.4597 126.7953
" />
<path d="M59.4597 126.7953
L59.2692 126.8906
" />
<path d="M62.2216 126.3192
L61.2692 126.3192
" />
<path d="M61.2692 126.3192
L61.1740 127.2715
" />
<path d="M61.1740 127.2715
L61.2692 127.1763
" />
<path d="M61.2692 127.1763
L61.4597 127.0811
" />
<path d="M61.4597 127.0811
L61.9359 127.0811
" />
<path d="M61.9359 127.0811
L62.1263 127.1763
" />
<path d="M62.1263 127.1763
L62.2216 127.2715
" />
<path d="M62.2216 127.2715
L62.3168 127.4620
" />
<path d="M62.3168 127.4620
L62.3168 127.9382
" />
<path d="M62.3168 127.9382
L62.2216 128.1287
" />
<path d="M62.2216 128.1287
L62.1263 128.2239
" />
<path d="M62.1263 128.2239
L61.9359 128.3192
" />
<path d="M61.9359 128.3192
L61.4597 128.3192
" />
<path d="M61.4597 128.3192
L61.2692 128.2239
" />
<path d="M61.2692 128.2239
L61.1740 128.1287
" />
<path d="M62.9835 126.3192
L64.2216 126.3192
" />
<path d="M64.2216 126.3192
L63.5549 127.0811
" />
<path d="M63.5549 127.0811
L63.8406 127.0811
" />
<path d="M63.8406 127.0811
L64.0311 127.1763
" />
<path d="M64.0311 127.1763
L64.1263 127.2715
" />
<path d="M64.1263 127.2715
L64.2216 127.4620
" />
<path d="M64.2216 127.4620
L64.2216 127.9382
" />
<path d="M64.2216 127.9382
L64.1263 128.1287
" />
<path d="M64.1263 128.1287
L64.0311 128.2239
" />
<path d="M64.0311 128.2239
L63.8406 128.3192
" />
<path d="M63.8406 128.3192
L63.2692 128.3192
" />
<path d="M63.2692 128.3192
L63.0787 128.2239
" />
<path d="M63.0787 128.2239
L62.9835 128.1287
" />
<path d="M66.6025 128.3192
L66.6025 126.3192
" />
<path d="M67.4597 128.3192
L67.4597 127.2715
" />
<path d="M67.4597 127.2715
L67.3644 127.0811
" />
<path d="M67.3644 127.0811
L67.1740 126.9858
" />
<path d="M67.1740 126.9858
L66.8882 126.9858
" />
<path d="M66.8882 126.9858
L66.6978 127.0811
" />
<path d="M66.6978 127.0811
L66.6025 127.1763
" />
<path d="M68.6978 128.3192
L68.5073 128.2239
" />
<path d="M68.5073 128.2239
L68.4121 128.1287
" />
<path d="M68.4121 128.1287
L68.3168 127.9382
" />
<path d="M68.3168 127.9382
L68.3168 127.3668
" />
<path d="M68.3168 127.3668
L68.4121 127.1763
" />
<path d="M68.4121 127.1763
L68.5073 127.0811
" />
<path d="M68.5073 127.0811
L68.6978 126.9858
" />
<path d="M68.6978 126.9858
L68.9835 126.9858
" />
<path d="M68.9835 126.9858
L69.1740 127.0811
" />
<path d="M69.1740 127.0811
L69.2692 127.1763
" />
<path d="M69.2692 127.1763
L69.3644 127.3668
" />
<path d="M69.3644 127.3668
L69.3644 127.9382
" />
<path d="M69.3644 127.9382
L69.2692 128.1287
" />
<path d="M69.2692 128.1287
L69.1740 128.2239
" />
<path d="M69.1740 128.2239
L68.9835 128.3192
" />
<path d="M68.9835 128.3192
L68.6978 128.3192
" />
<path d="M70.5073 128.3192
L70.3168 128.2239
" />
<path d="M70.3168 128.2239
L70.2216 128.0334
" />
<path d="M70.2216 128.0334
L70.2216 126.3192
" />
<path d="M72.0311 128.2239
L71.8406 128.3192
" />
<path d="M71.8406 128.3192
L71.4597 128.3192
" />
<path d="M71.4597 128.3192
L71.2692 128.2239
" />
<path d="M71.2692 128.2239
L71.1740 128.0334
" />
<path d="M71.1740 128.0334
L71.1740 127.2715
" />
<path d="M71.1740 127.2715
L71.2692 127.0811
" />
<path d="M71.2692 127.0811
L71.4597 126.9858
" />
<path d="M71.4597 126.9858
L71.8406 126.9858
" />
<path d="M71.8406 126.9858
L72.0311 127.0811
" />
<path d="M72.0311 127.0811
L72.1263 127.2715
" />
<path d="M72.1263 127.2715
L72.1263 127.4620
" />
<path d="M72.1263 127.4620
L71.1740 127.6525
" />
<path d="M72.8882 128.2239
L73.0787 128.3192
" />
<path d="M73.0787 128.3192
L73.4597 128.3192
" />
<path d="M73.4597 128.3192
L73.6502 128.2239
" />
<path d="M73.6502 128.2239
L73.7454 128.0334
" />
<path d="M73.7454 128.0334
L73.7454 127.9382
" />
<path d="M73.7454 127.9382
L73.6502 127.7477
" />
<path d="M73.6502 127.7477
L73.4597 127.6525
" />
<path d="M73.4597 127.6525
L73.1740 127.6525
" />
<path d="M73.1740 127.6525
L72.9835 127.5573
" />
<path d="M72.9835 127.5573
L72.8882 127.3668
" />
<path d="M72.8882 127.3668
L72.8882 127.2715
" />
<path d="M72.8882 127.2715
L72.9835 127.0811
" />
<path d="M72.9835 127.0811
L73.1740 126.9858
" />
<path d="M73.1740 126.9858
L73.4597 126.9858
" />
<path d="M73.4597 126.9858
L73.6502 127.0811
" />
<path d="M74.4121 129.0811
L74.5073 128.9858
" />
<path d="M74.5073 128.9858
L74.6978 128.7001
" />
<path d="M74.6978 128.7001
L74.7930 128.5096
" />
<path d="M74.7930 128.5096
L74.8882 128.2239
" />
<path d="M74.8882 128.2239
L74.9835 127.7477
" />
<path d="M74.9835 127.7477
L74.9835 127.3668
" />
<path d="M74.9835 127.3668
L74.8882 126.8906
" />
<path d="M74.8882 126.8906
L74.7930 126.6049
" />
<path d="M74.7930 126.6049
L74.6978 126.4144
" />
<path d="M74.6978 126.4144
L74.5073 126.1287
" />
<path d="M74.5073 126.1287
L74.4121 126.0334
" />
</g></g>
<g style="fill:none; 
stroke:#000000; stroke-width:0.2546; stroke-opacity:1; 
stroke-linecap:round; stroke-linejoin:round;">
<circle cx="22.0882" cy="130.0443" r="0.7637" /> 
</g>
<g style="fill:none; 
stroke:#000000; stroke-width:0.2000; stroke-opacity:1; 
stroke-linecap:round; stroke-linejoin:round;">
<text x="24.8519" y="131.0443"
textLength="63.0571" font-size="2.6667" lengthAdjust="spacingAndGlyphs"
text-anchor="start" opacity="0">0.600mm / 0.0236" (0 holes + 4 slots)</text>
<g class="stroked-text"><desc>0.600mm / 0.0236" (0 holes + 4 slots)</desc>
<path d="M25.8406 128.9592
L26.0311 128.9592
" />
<path d="M26.0311 128.9592
L26.2216 129.0544
" />
<path d="M26.2216 129.0544
L26.3168 129.1496
" />
<path d="M26.3168 129.1496
L26.4120 129.3401
" />
<path d="M26.4120 129.3401
L26.5073 129.7211
" />
<path d="M26.5073 129.7211
L26.5073 130.1973
" />
<path d="M26.5073 130.1973
L26.4120 130.5782
" />
<path d="M26.4120 130.5782
L26.3168 130.7687
" />
<path d="M26.3168 130.7687
L26.2216 130.8639
" />
<path d="M26.2216 130.8639
L26.0311 130.9592
" />
<path d="M26.0311 130.9592
L25.8406 130.9592
" />
<path d="M25.8406 130.9592
L25.6501 130.8639
" />
<path d="M25.6501 130.8639
L25.5549 130.7687
" />
<path d="M25.5549 130.7687
L25.4597 130.5782
" />
<path d="M25.4597 130.5782
L25.3644 130.1973
" />
<path d="M25.3644 130.1973
L25.3644 129.7211
" />
<path d="M25.3644 129.7211
L25.4597 129.3401
" />
<path d="M25.4597 129.3401
L25.5549 129.1496
" />
<path d="M25.5549 129.1496
L25.6501 129.0544
" />
<path d="M25.6501 129.0544
L25.8406 128.9592
" />
<path d="M27.3644 130.7687
L27.4597 130.8639
" />
<path d="M27.4597 130.8639
L27.3644 130.9592
" />
<path d="M27.3644 130.9592
L27.2692 130.8639
" />
<path d="M27.2692 130.8639
L27.3644 130.7687
" />
<path d="M27.3644 130.7687
L27.3644 130.9592
" />
<path d="M29.1740 128.9592
L28.7930 128.9592
" />
<path d="M28.7930 128.9592
L28.6025 129.0544
" />
<path d="M28.6025 129.0544
L28.5073 129.1496
" />
<path d="M28.5073 129.1496
L28.3168 129.4353
" />
<path d="M28.3168 129.4353
L28.2216 129.8163
" />
<path d="M28.2216 129.8163
L28.2216 130.5782
" />
<path d="M28.2216 130.5782
L28.3168 130.7687
" />
<path d="M28.3168 130.7687
L28.4120 130.8639
" />
<path d="M28.4120 130.8639
L28.6025 130.9592
" />
<path d="M28.6025 130.9592
L28.9835 130.9592
" />
<path d="M28.9835 130.9592
L29.1740 130.8639
" />
<path d="M29.1740 130.8639
L29.2692 130.7687
" />
<path d="M29.2692 130.7687
L29.3644 130.5782
" />
<path d="M29.3644 130.5782
L29.3644 130.1020
" />
<path d="M29.3644 130.1020
L29.2692 129.9115
" />
<path d="M29.2692 129.9115
L29.1740 129.8163
" />
<path d="M29.1740 129.8163
L28.9835 129.7211
" />
<path d="M28.9835 129.7211
L28.6025 129.7211
" />
<path d="M28.6025 129.7211
L28.4120 129.8163
" />
<path d="M28.4120 129.8163
L28.3168 129.9115
" />
<path d="M28.3168 129.9115
L28.2216 130.1020
" />
<path d="M30.6025 128.9592
L30.7930 128.9592
" />
<path d="M30.7930 128.9592
L30.9835 129.0544
" />
<path d="M30.9835 129.0544
L31.0787 129.1496
" />
<path d="M31.0787 129.1496
L31.1740 129.3401
" />
<path d="M31.1740 129.3401
L31.2692 129.7211
" />
<path d="M31.2692 129.7211
L31.2692 130.1973
" />
<path d="M31.2692 130.1973
L31.1740 130.5782
" />
<path d="M31.1740 130.5782
L31.0787 130.7687
" />
<path d="M31.0787 130.7687
L30.9835 130.8639
" />
<path d="M30.9835 130.8639
L30.7930 130.9592
" />
<path d="M30.7930 130.9592
L30.6025 130.9592
" />
<path d="M30.6025 130.9592
L30.4121 130.8639
" />
<path d="M30.4121 130.8639
L30.3168 130.7687
" />
<path d="M30.3168 130.7687
L30.2216 130.5782
" />
<path d="M30.2216 130.5782
L30.1263 130.1973
" />
<path d="M30.1263 130.1973
L30.1263 129.7211
" />
<path d="M30.1263 129.7211
L30.2216 129.3401
" />
<path d="M30.2216 129.3401
L30.3168 129.1496
" />
<path d="M30.3168 129.1496
L30.4121 129.0544
" />
<path d="M30.4121 129.0544
L30.6025 128.9592
" />
<path d="M32.5073 128.9592
L32.6978 128.9592
" />
<path d="M32.6978 128.9592
L32.8882 129.0544
" />
<path d="M32.8882 129.0544
L32.9835 129.1496
" />
<path d="M32.9835 129.1496
L33.0787 129.3401
" />
<path d="M33.0787 129.3401
L33.1740 129.7211
" />
<path d="M33.1740 129.7211
L33.1740 130.1973
" />
<path d="M33.1740 130.1973
L33.0787 130.5782
" />
<path d="M33.0787 130.5782
L32.9835 130.7687
" />
<path d="M32.9835 130.7687
L32.8882 130.8639
" />
<path d="M32.8882 130.8639
L32.6978 130.9592
" />
<path d="M32.6978 130.9592
L32.5073 130.9592
" />
<path d="M32.5073 130.9592
L32.3168 130.8639
" />
<path d="M32.3168 130.8639
L32.2216 130.7687
" />
<path d="M32.2216 130.7687
L32.1263 130.5782
" />
<path d="M32.1263 130.5782
L32.0311 130.1973
" />
<path d="M32.0311 130.1973
L32.0311 129.7211
" />
<path d="M32.0311 129.7211
L32.1263 129.3401
" />
<path d="M32.1263 129.3401
L32.2216 129.1496
" />
<path d="M32.2216 129.1496
L32.3168 129.0544
" />
<path d="M32.3168 129.0544
L32.5073 128.9592
" />
<path d="M34.0311 130.9592
L34.0311 129.6258
" />
<path d="M34.0311 129.8163
L34.1263 129.7211
" />
<path d="M34.1263 129.7211
L34.3168 129.6258
" />
<path d="M34.3168 129.6258
L34.6025 129.6258
" />
<path d="M34.6025 129.6258
L34.7930 129.7211
" />
<path d="M34.7930 129.7211
L34.8882 129.9115
" />
<path d="M34.8882 129.9115
L34.8882 130.9592
" />
<path d="M34.8882 129.9115
L34.9835 129.7211
" />
<path d="M34.9835 129.7211
L35.1740 129.6258
" />
<path d="M35.1740 129.6258
L35.4597 129.6258
" />
<path d="M35.4597 129.6258
L35.6501 129.7211
" />
<path d="M35.6501 129.7211
L35.7454 129.9115
" />
<path d="M35.7454 129.9115
L35.7454 130.9592
" />
<path d="M36.6978 130.9592
L36.6978 129.6258
" />
<path d="M36.6978 129.8163
L36.7930 129.7211
" />
<path d="M36.7930 129.7211
L36.9835 129.6258
" />
<path d="M36.9835 129.6258
L37.2692 129.6258
" />
<path d="M37.2692 129.6258
L37.4597 129.7211
" />
<path d="M37.4597 129.7211
L37.5549 129.9115
" />
<path d="M37.5549 129.9115
L37.5549 130.9592
" />
<path d="M37.5549 129.9115
L37.6501 129.7211
" />
<path d="M37.6501 129.7211
L37.8406 129.6258
" />
<path d="M37.8406 129.6258
L38.1263 129.6258
" />
<path d="M38.1263 129.6258
L38.3168 129.7211
" />
<path d="M38.3168 129.7211
L38.4120 129.9115
" />
<path d="M38.4120 129.9115
L38.4120 130.9592
" />
<path d="M42.3168 128.8639
L40.6025 131.4353
" />
<path d="M44.8882 128.9592
L45.0787 128.9592
" />
<path d="M45.0787 128.9592
L45.2692 129.0544
" />
<path d="M45.2692 129.0544
L45.3644 129.1496
" />
<path d="M45.3644 129.1496
L45.4597 129.3401
" />
<path d="M45.4597 129.3401
L45.5549 129.7211
" />
<path d="M45.5549 129.7211
L45.5549 130.1973
" />
<path d="M45.5549 130.1973
L45.4597 130.5782
" />
<path d="M45.4597 130.5782
L45.3644 130.7687
" />
<path d="M45.3644 130.7687
L45.2692 130.8639
" />
<path d="M45.2692 130.8639
L45.0787 130.9592
" />
<path d="M45.0787 130.9592
L44.8882 130.9592
" />
<path d="M44.8882 130.9592
L44.6978 130.8639
" />
<path d="M44.6978 130.8639
L44.6025 130.7687
" />
<path d="M44.6025 130.7687
L44.5073 130.5782
" />
<path d="M44.5073 130.5782
L44.4120 130.1973
" />
<path d="M44.4120 130.1973
L44.4120 129.7211
" />
<path d="M44.4120 129.7211
L44.5073 129.3401
" />
<path d="M44.5073 129.3401
L44.6025 129.1496
" />
<path d="M44.6025 129.1496
L44.6978 129.0544
" />
<path d="M44.6978 129.0544
L44.8882 128.9592
" />
<path d="M46.4121 130.7687
L46.5073 130.8639
" />
<path d="M46.5073 130.8639
L46.4121 130.9592
" />
<path d="M46.4121 130.9592
L46.3168 130.8639
" />
<path d="M46.3168 130.8639
L46.4121 130.7687
" />
<path d="M46.4121 130.7687
L46.4121 130.9592
" />
<path d="M47.7454 128.9592
L47.9359 128.9592
" />
<path d="M47.9359 128.9592
L48.1263 129.0544
" />
<path d="M48.1263 129.0544
L48.2216 129.1496
" />
<path d="M48.2216 129.1496
L48.3168 129.3401
" />
<path d="M48.3168 129.3401
L48.4120 129.7211
" />
<path d="M48.4120 129.7211
L48.4120 130.1973
" />
<path d="M48.4120 130.1973
L48.3168 130.5782
" />
<path d="M48.3168 130.5782
L48.2216 130.7687
" />
<path d="M48.2216 130.7687
L48.1263 130.8639
" />
<path d="M48.1263 130.8639
L47.9359 130.9592
" />
<path d="M47.9359 130.9592
L47.7454 130.9592
" />
<path d="M47.7454 130.9592
L47.5549 130.8639
" />
<path d="M47.5549 130.8639
L47.4597 130.7687
" />
<path d="M47.4597 130.7687
L47.3644 130.5782
" />
<path d="M47.3644 130.5782
L47.2692 130.1973
" />
<path d="M47.2692 130.1973
L47.2692 129.7211
" />
<path d="M47.2692 129.7211
L47.3644 129.3401
" />
<path d="M47.3644 129.3401
L47.4597 129.1496
" />
<path d="M47.4597 129.1496
L47.5549 129.0544
" />
<path d="M47.5549 129.0544
L47.7454 128.9592
" />
<path d="M49.1740 129.1496
L49.2692 129.0544
" />
<path d="M49.2692 129.0544
L49.4597 128.9592
" />
<path d="M49.4597 128.9592
L49.9359 128.9592
" />
<path d="M49.9359 128.9592
L50.1263 129.0544
" />
<path d="M50.1263 129.0544
L50.2216 129.1496
" />
<path d="M50.2216 129.1496
L50.3168 129.3401
" />
<path d="M50.3168 129.3401
L50.3168 129.5306
" />
<path d="M50.3168 129.5306
L50.2216 129.8163
" />
<path d="M50.2216 129.8163
L49.0787 130.9592
" />
<path d="M49.0787 130.9592
L50.3168 130.9592
" />
<path d="M50.9835 128.9592
L52.2216 128.9592
" />
<path d="M52.2216 128.9592
L51.5549 129.7211
" />
<path d="M51.5549 129.7211
L51.8406 129.7211
" />
<path d="M51.8406 129.7211
L52.0311 129.8163
" />
<path d="M52.0311 129.8163
L52.1263 129.9115
" />
<path d="M52.1263 129.9115
L52.2216 130.1020
" />
<path d="M52.2216 130.1020
L52.2216 130.5782
" />
<path d="M52.2216 130.5782
L52.1263 130.7687
" />
<path d="M52.1263 130.7687
L52.0311 130.8639
" />
<path d="M52.0311 130.8639
L51.8406 130.9592
" />
<path d="M51.8406 130.9592
L51.2692 130.9592
" />
<path d="M51.2692 130.9592
L51.0787 130.8639
" />
<path d="M51.0787 130.8639
L50.9835 130.7687
" />
<path d="M53.9359 128.9592
L53.5549 128.9592
" />
<path d="M53.5549 128.9592
L53.3644 129.0544
" />
<path d="M53.3644 129.0544
L53.2692 129.1496
" />
<path d="M53.2692 129.1496
L53.0787 129.4353
" />
<path d="M53.0787 129.4353
L52.9835 129.8163
" />
<path d="M52.9835 129.8163
L52.9835 130.5782
" />
<path d="M52.9835 130.5782
L53.0787 130.7687
" />
<path d="M53.0787 130.7687
L53.1740 130.8639
" />
<path d="M53.1740 130.8639
L53.3644 130.9592
" />
<path d="M53.3644 130.9592
L53.7454 130.9592
" />
<path d="M53.7454 130.9592
L53.9359 130.8639
" />
<path d="M53.9359 130.8639
L54.0311 130.7687
" />
<path d="M54.0311 130.7687
L54.1263 130.5782
" />
<path d="M54.1263 130.5782
L54.1263 130.1020
" />
<path d="M54.1263 130.1020
L54.0311 129.9115
" />
<path d="M54.0311 129.9115
L53.9359 129.8163
" />
<path d="M53.9359 129.8163
L53.7454 129.7211
" />
<path d="M53.7454 129.7211
L53.3644 129.7211
" />
<path d="M53.3644 129.7211
L53.1740 129.8163
" />
<path d="M53.1740 129.8163
L53.0787 129.9115
" />
<path d="M53.0787 129.9115
L52.9835 130.1020
" />
<path d="M54.8882 128.9592
L54.8882 129.3401
" />
<path d="M55.6502 128.9592
L55.6502 129.3401
" />
<path d="M58.6025 131.7211
L58.5073 131.6258
" />
<path d="M58.5073 131.6258
L58.3168 131.3401
" />
<path d="M58.3168 131.3401
L58.2216 131.1496
" />
<path d="M58.2216 131.1496
L58.1263 130.8639
" />
<path d="M58.1263 130.8639
L58.0311 130.3877
" />
<path d="M58.0311 130.3877
L58.0311 130.0068
" />
<path d="M58.0311 130.0068
L58.1263 129.5306
" />
<path d="M58.1263 129.5306
L58.2216 129.2449
" />
<path d="M58.2216 129.2449
L58.3168 129.0544
" />
<path d="M58.3168 129.0544
L58.5073 128.7687
" />
<path d="M58.5073 128.7687
L58.6025 128.6734
" />
<path d="M59.7454 128.9592
L59.9359 128.9592
" />
<path d="M59.9359 128.9592
L60.1263 129.0544
" />
<path d="M60.1263 129.0544
L60.2216 129.1496
" />
<path d="M60.2216 129.1496
L60.3168 129.3401
" />
<path d="M60.3168 129.3401
L60.4121 129.7211
" />
<path d="M60.4121 129.7211
L60.4121 130.1973
" />
<path d="M60.4121 130.1973
L60.3168 130.5782
" />
<path d="M60.3168 130.5782
L60.2216 130.7687
" />
<path d="M60.2216 130.7687
L60.1263 130.8639
" />
<path d="M60.1263 130.8639
L59.9359 130.9592
" />
<path d="M59.9359 130.9592
L59.7454 130.9592
" />
<path d="M59.7454 130.9592
L59.5549 130.8639
" />
<path d="M59.5549 130.8639
L59.4597 130.7687
" />
<path d="M59.4597 130.7687
L59.3644 130.5782
" />
<path d="M59.3644 130.5782
L59.2692 130.1973
" />
<path d="M59.2692 130.1973
L59.2692 129.7211
" />
<path d="M59.2692 129.7211
L59.3644 129.3401
" />
<path d="M59.3644 129.3401
L59.4597 129.1496
" />
<path d="M59.4597 129.1496
L59.5549 129.0544
" />
<path d="M59.5549 129.0544
L59.7454 128.9592
" />
<path d="M62.7930 130.9592
L62.7930 128.9592
" />
<path d="M63.6502 130.9592
L63.6502 129.9115
" />
<path d="M63.6502 129.9115
L63.5549 129.7211
" />
<path d="M63.5549 129.7211
L63.3644 129.6258
" />
<path d="M63.3644 129.6258
L63.0787 129.6258
" />
<path d="M63.0787 129.6258
L62.8882 129.7211
" />
<path d="M62.8882 129.7211
L62.7930 129.8163
" />
<path d="M64.8882 130.9592
L64.6978 130.8639
" />
<path d="M64.6978 130.8639
L64.6025 130.7687
" />
<path d="M64.6025 130.7687
L64.5073 130.5782
" />
<path d="M64.5073 130.5782
L64.5073 130.0068
" />
<path d="M64.5073 130.0068
L64.6025 129.8163
" />
<path d="M64.6025 129.8163
L64.6978 129.7211
" />
<path d="M64.6978 129.7211
L64.8882 129.6258
" />
<path d="M64.8882 129.6258
L65.1740 129.6258
" />
<path d="M65.1740 129.6258
L65.3644 129.7211
" />
<path d="M65.3644 129.7211
L65.4597 129.8163
" />
<path d="M65.4597 129.8163
L65.5549 130.0068
" />
<path d="M65.5549 130.0068
L65.5549 130.5782
" />
<path d="M65.5549 130.5782
L65.4597 130.7687
" />
<path d="M65.4597 130.7687
L65.3644 130.8639
" />
<path d="M65.3644 130.8639
L65.1740 130.9592
" />
<path d="M65.1740 130.9592
L64.8882 130.9592
" />
<path d="M66.6978 130.9592
L66.5073 130.8639
" />
<path d="M66.5073 130.8639
L66.4121 130.6734
" />
<path d="M66.4121 130.6734
L66.4121 128.9592
" />
<path d="M68.2216 130.8639
L68.0311 130.9592
" />
<path d="M68.0311 130.9592
L67.6502 130.9592
" />
<path d="M67.6502 130.9592
L67.4597 130.8639
" />
<path d="M67.4597 130.8639
L67.3644 130.6734
" />
<path d="M67.3644 130.6734
L67.3644 129.9115
" />
<path d="M67.3644 129.9115
L67.4597 129.7211
" />
<path d="M67.4597 129.7211
L67.6502 129.6258
" />
<path d="M67.6502 129.6258
L68.0311 129.6258
" />
<path d="M68.0311 129.6258
L68.2216 129.7211
" />
<path d="M68.2216 129.7211
L68.3168 129.9115
" />
<path d="M68.3168 129.9115
L68.3168 130.1020
" />
<path d="M68.3168 130.1020
L67.3644 130.2925
" />
<path d="M69.0787 130.8639
L69.2692 130.9592
" />
<path d="M69.2692 130.9592
L69.6502 130.9592
" />
<path d="M69.6502 130.9592
L69.8406 130.8639
" />
<path d="M69.8406 130.8639
L69.9359 130.6734
" />
<path d="M69.9359 130.6734
L69.9359 130.5782
" />
<path d="M69.9359 130.5782
L69.8406 130.3877
" />
<path d="M69.8406 130.3877
L69.6502 130.2925
" />
<path d="M69.6502 130.2925
L69.3644 130.2925
" />
<path d="M69.3644 130.2925
L69.1740 130.1973
" />
<path d="M69.1740 130.1973
L69.0787 130.0068
" />
<path d="M69.0787 130.0068
L69.0787 129.9115
" />
<path d="M69.0787 129.9115
L69.1740 129.7211
" />
<path d="M69.1740 129.7211
L69.3644 129.6258
" />
<path d="M69.3644 129.6258
L69.6502 129.6258
" />
<path d="M69.6502 129.6258
L69.8406 129.7211
" />
<path d="M72.3168 130.1973
L73.8406 130.1973
" />
<path d="M73.0787 130.9592
L73.0787 129.4353
" />
<path d="M77.1740 129.6258
L77.1740 130.9592
" />
<path d="M76.6978 128.8639
L76.2216 130.2925
" />
<path d="M76.2216 130.2925
L77.4597 130.2925
" />
<path d="M79.6502 130.8639
L79.8406 130.9592
" />
<path d="M79.8406 130.9592
L80.2216 130.9592
" />
<path d="M80.2216 130.9592
L80.4121 130.8639
" />
<path d="M80.4121 130.8639
L80.5073 130.6734
" />
<path d="M80.5073 130.6734
L80.5073 130.5782
" />
<path d="M80.5073 130.5782
L80.4121 130.3877
" />
<path d="M80.4121 130.3877
L80.2216 130.2925
" />
<path d="M80.2216 130.2925
L79.9359 130.2925
" />
<path d="M79.9359 130.2925
L79.7454 130.1973
" />
<path d="M79.7454 130.1973
L79.6502 130.0068
" />
<path d="M79.6502 130.0068
L79.6502 129.9115
" />
<path d="M79.6502 129.9115
L79.7454 129.7211
" />
<path d="M79.7454 129.7211
L79.9359 129.6258
" />
<path d="M79.9359 129.6258
L80.2216 129.6258
" />
<path d="M80.2216 129.6258
L80.4121 129.7211
" />
<path d="M81.6502 130.9592
L81.4597 130.8639
" />
<path d="M81.4597 130.8639
L81.3644 130.6734
" />
<path d="M81.3644 130.6734
L81.3644 128.9592
" />
<path d="M82.6978 130.9592
L82.5073 130.8639
" />
<path d="M82.5073 130.8639
L82.4121 130.7687
" />
<path d="M82.4121 130.7687
L82.3168 130.5782
" />
<path d="M82.3168 130.5782
L82.3168 130.0068
" />
<path d="M82.3168 130.0068
L82.4121 129.8163
" />
<path d="M82.4121 129.8163
L82.5073 129.7211
" />
<path d="M82.5073 129.7211
L82.6978 129.6258
" />
<path d="M82.6978 129.6258
L82.9835 129.6258
" />
<path d="M82.9835 129.6258
L83.1740 129.7211
" />
<path d="M83.1740 129.7211
L83.2692 129.8163
" />
<path d="M83.2692 129.8163
L83.3644 130.0068
" />
<path d="M83.3644 130.0068
L83.3644 130.5782
" />
<path d="M83.3644 130.5782
L83.2692 130.7687
" />
<path d="M83.2692 130.7687
L83.1740 130.8639
" />
<path d="M83.1740 130.8639
L82.9835 130.9592
" />
<path d="M82.9835 130.9592
L82.6978 130.9592
" />
<path d="M83.9359 129.6258
L84.6978 129.6258
" />
<path d="M84.2216 128.9592
L84.2216 130.6734
" />
<path d="M84.2216 130.6734
L84.3168 130.8639
" />
<path d="M84.3168 130.8639
L84.5073 130.9592
" />
<path d="M84.5073 130.9592
L84.6978 130.9592
" />
<path d="M85.2692 130.8639
L85.4597 130.9592
" />
<path d="M85.4597 130.9592
L85.8406 130.9592
" />
<path d="M85.8406 130.9592
L86.0311 130.8639
" />
<path d="M86.0311 130.8639
L86.1263 130.6734
" />
<path d="M86.1263 130.6734
L86.1263 130.5782
" />
<path d="M86.1263 130.5782
L86.0311 130.3877
" />
<path d="M86.0311 130.3877
L85.8406 130.2925
" />
<path d="M85.8406 130.2925
L85.5549 130.2925
" />
<path d="M85.5549 130.2925
L85.3644 130.1973
" />
<path d="M85.3644 130.1973
L85.2692 130.0068
" />
<path d="M85.2692 130.0068
L85.2692 129.9115
" />
<path d="M85.2692 129.9115
L85.3644 129.7211
" />
<path d="M85.3644 129.7211
L85.5549 129.6258
" />
<path d="M85.5549 129.6258
L85.8406 129.6258
" />
<path d="M85.8406 129.6258
L86.0311 129.7211
" />
<path d="M86.7930 131.7211
L86.8882 131.6258
" />
<path d="M86.8882 131.6258
L87.0787 131.3401
" />
<path d="M87.0787 131.3401
L87.1740 131.1496
" />
<path d="M87.1740 131.1496
L87.2692 130.8639
" />
<path d="M87.2692 130.8639
L87.3644 130.3877
" />
<path d="M87.3644 130.3877
L87.3644 130.0068
" />
<path d="M87.3644 130.0068
L87.2692 129.5306
" />
<path d="M87.2692 129.5306
L87.1740 129.2449
" />
<path d="M87.1740 129.2449
L87.0787 129.0544
" />
<path d="M87.0787 129.0544
L86.8882 128.7687
" />
<path d="M86.8882 128.7687
L86.7930 128.6734
" />
</g></g>
<g style="fill:none; 
stroke:#000000; stroke-width:0.2546; stroke-opacity:1; 
stroke-linecap:round; stroke-linejoin:round;">
<path d="M21.8519 131.7717
L21.8519 133.7717
" />
<path d="M20.8519 132.7717
L22.8519 132.7717
" />
</g>
<g style="fill:none; 
stroke:#000000; stroke-width:0.2000; stroke-opacity:1; 
stroke-linecap:round; stroke-linejoin:round;">
<text x="24.8519" y="133.7717"
textLength="46.8667" font-size="2.6667" lengthAdjust="spacingAndGlyphs"
text-anchor="start" opacity="0">2.000mm / 0.0787" (8 holes)</text>
<g class="stroked-text"><desc>2.000mm / 0.0787" (8 holes)</desc>
<path d="M25.3644 131.8770
L25.4597 131.7817
" />
<path d="M25.4597 131.7817
L25.6501 131.6865
" />
<path d="M25.6501 131.6865
L26.1263 131.6865
" />
<path d="M26.1263 131.6865
L26.3168 131.7817
" />
<path d="M26.3168 131.7817
L26.4120 131.8770
" />
<path d="M26.4120 131.8770
L26.5073 132.0674
" />
<path d="M26.5073 132.0674
L26.5073 132.2579
" />
<path d="M26.5073 132.2579
L26.4120 132.5436
" />
<path d="M26.4120 132.5436
L25.2692 133.6865
" />
<path d="M25.2692 133.6865
L26.5073 133.6865
" />
<path d="M27.3644 133.4960
L27.4597 133.5913
" />
<path d="M27.4597 133.5913
L27.3644 133.6865
" />
<path d="M27.3644 133.6865
L27.2692 133.5913
" />
<path d="M27.2692 133.5913
L27.3644 133.4960
" />
<path d="M27.3644 133.4960
L27.3644 133.6865
" />
<path d="M28.6978 131.6865
L28.8882 131.6865
" />
<path d="M28.8882 131.6865
L29.0787 131.7817
" />
<path d="M29.0787 131.7817
L29.1740 131.8770
" />
<path d="M29.1740 131.8770
L29.2692 132.0674
" />
<path d="M29.2692 132.0674
L29.3644 132.4484
" />
<path d="M29.3644 132.4484
L29.3644 132.9246
" />
<path d="M29.3644 132.9246
L29.2692 133.3055
" />
<path d="M29.2692 133.3055
L29.1740 133.4960
" />
<path d="M29.1740 133.4960
L29.0787 133.5913
" />
<path d="M29.0787 133.5913
L28.8882 133.6865
" />
<path d="M28.8882 133.6865
L28.6978 133.6865
" />
<path d="M28.6978 133.6865
L28.5073 133.5913
" />
<path d="M28.5073 133.5913
L28.4120 133.4960
" />
<path d="M28.4120 133.4960
L28.3168 133.3055
" />
<path d="M28.3168 133.3055
L28.2216 132.9246
" />
<path d="M28.2216 132.9246
L28.2216 132.4484
" />
<path d="M28.2216 132.4484
L28.3168 132.0674
" />
<path d="M28.3168 132.0674
L28.4120 131.8770
" />
<path d="M28.4120 131.8770
L28.5073 131.7817
" />
<path d="M28.5073 131.7817
L28.6978 131.6865
" />
<path d="M30.6025 131.6865
L30.7930 131.6865
" />
<path d="M30.7930 131.6865
L30.9835 131.7817
" />
<path d="M30.9835 131.7817
L31.0787 131.8770
" />
<path d="M31.0787 131.8770
L31.1740 132.0674
" />
<path d="M31.1740 132.0674
L31.2692 132.4484
" />
<path d="M31.2692 132.4484
L31.2692 132.9246
" />
<path d="M31.2692 132.9246
L31.1740 133.3055
" />
<path d="M31.1740 133.3055
L31.0787 133.4960
" />
<path d="M31.0787 133.4960
L30.9835 133.5913
" />
<path d="M30.9835 133.5913
L30.7930 133.6865
" />
<path d="M30.7930 133.6865
L30.6025 133.6865
" />
<path d="M30.6025 133.6865
L30.4121 133.5913
" />
<path d="M30.4121 133.5913
L30.3168 133.4960
" />
<path d="M30.3168 133.4960
L30.2216 133.3055
" />
<path d="M30.2216 133.3055
L30.1263 132.9246
" />
<path d="M30.1263 132.9246
L30.1263 132.4484
" />
<path d="M30.1263 132.4484
L30.2216 132.0674
" />
<path d="M30.2216 132.0674
L30.3168 131.8770
" />
<path d="M30.3168 131.8770
L30.4121 131.7817
" />
<path d="M30.4121 131.7817
L30.6025 131.6865
" />
<path d="M32.5073 131.6865
L32.6978 131.6865
" />
<path d="M32.6978 131.6865
L32.8882 131.7817
" />
<path d="M32.8882 131.7817
L32.9835 131.8770
" />
<path d="M32.9835 131.8770
L33.0787 132.0674
" />
<path d="M33.0787 132.0674
L33.1740 132.4484
" />
<path d="M33.1740 132.4484
L33.1740 132.9246
" />
<path d="M33.1740 132.9246
L33.0787 133.3055
" />
<path d="M33.0787 133.3055
L32.9835 133.4960
" />
<path d="M32.9835 133.4960
L32.8882 133.5913
" />
<path d="M32.8882 133.5913
L32.6978 133.6865
" />
<path d="M32.6978 133.6865
L32.5073 133.6865
" />
<path d="M32.5073 133.6865
L32.3168 133.5913
" />
<path d="M32.3168 133.5913
L32.2216 133.4960
" />
<path d="M32.2216 133.4960
L32.1263 133.3055
" />
<path d="M32.1263 133.3055
L32.0311 132.9246
" />
<path d="M32.0311 132.9246
L32.0311 132.4484
" />
<path d="M32.0311 132.4484
L32.1263 132.0674
" />
<path d="M32.1263 132.0674
L32.2216 131.8770
" />
<path d="M32.2216 131.8770
L32.3168 131.7817
" />
<path d="M32.3168 131.7817
L32.5073 131.6865
" />
<path d="M34.0311 133.6865
L34.0311 132.3532
" />
<path d="M34.0311 132.5436
L34.1263 132.4484
" />
<path d="M34.1263 132.4484
L34.3168 132.3532
" />
<path d="M34.3168 132.3532
L34.6025 132.3532
" />
<path d="M34.6025 132.3532
L34.7930 132.4484
" />
<path d="M34.7930 132.4484
L34.8882 132.6389
" />
<path d="M34.8882 132.6389
L34.8882 133.6865
" />
<path d="M34.8882 132.6389
L34.9835 132.4484
" />
<path d="M34.9835 132.4484
L35.1740 132.3532
" />
<path d="M35.1740 132.3532
L35.4597 132.3532
" />
<path d="M35.4597 132.3532
L35.6501 132.4484
" />
<path d="M35.6501 132.4484
L35.7454 132.6389
" />
<path d="M35.7454 132.6389
L35.7454 133.6865
" />
<path d="M36.6978 133.6865
L36.6978 132.3532
" />
<path d="M36.6978 132.5436
L36.7930 132.4484
" />
<path d="M36.7930 132.4484
L36.9835 132.3532
" />
<path d="M36.9835 132.3532
L37.2692 132.3532
" />
<path d="M37.2692 132.3532
L37.4597 132.4484
" />
<path d="M37.4597 132.4484
L37.5549 132.6389
" />
<path d="M37.5549 132.6389
L37.5549 133.6865
" />
<path d="M37.5549 132.6389
L37.6501 132.4484
" />
<path d="M37.6501 132.4484
L37.8406 132.3532
" />
<path d="M37.8406 132.3532
L38.1263 132.3532
" />
<path d="M38.1263 132.3532
L38.3168 132.4484
" />
<path d="M38.3168 132.4484
L38.4120 132.6389
" />
<path d="M38.4120 132.6389
L38.4120 133.6865
" />
<path d="M42.3168 131.5913
L40.6025 134.1627
" />
<path d="M44.8882 131.6865
L45.0787 131.6865
" />
<path d="M45.0787 131.6865
L45.2692 131.7817
" />
<path d="M45.2692 131.7817
L45.3644 131.8770
" />
<path d="M45.3644 131.8770
L45.4597 132.0674
" />
<path d="M45.4597 132.0674
L45.5549 132.4484
" />
<path d="M45.5549 132.4484
L45.5549 132.9246
" />
<path d="M45.5549 132.9246
L45.4597 133.3055
" />
<path d="M45.4597 133.3055
L45.3644 133.4960
" />
<path d="M45.3644 133.4960
L45.2692 133.5913
" />
<path d="M45.2692 133.5913
L45.0787 133.6865
" />
<path d="M45.0787 133.6865
L44.8882 133.6865
" />
<path d="M44.8882 133.6865
L44.6978 133.5913
" />
<path d="M44.6978 133.5913
L44.6025 133.4960
" />
<path d="M44.6025 133.4960
L44.5073 133.3055
" />
<path d="M44.5073 133.3055
L44.4120 132.9246
" />
<path d="M44.4120 132.9246
L44.4120 132.4484
" />
<path d="M44.4120 132.4484
L44.5073 132.0674
" />
<path d="M44.5073 132.0674
L44.6025 131.8770
" />
<path d="M44.6025 131.8770
L44.6978 131.7817
" />
<path d="M44.6978 131.7817
L44.8882 131.6865
" />
<path d="M46.4121 133.4960
L46.5073 133.5913
" />
<path d="M46.5073 133.5913
L46.4121 133.6865
" />
<path d="M46.4121 133.6865
L46.3168 133.5913
" />
<path d="M46.3168 133.5913
L46.4121 133.4960
" />
<path d="M46.4121 133.4960
L46.4121 133.6865
" />
<path d="M47.7454 131.6865
L47.9359 131.6865
" />
<path d="M47.9359 131.6865
L48.1263 131.7817
" />
<path d="M48.1263 131.7817
L48.2216 131.8770
" />
<path d="M48.2216 131.8770
L48.3168 132.0674
" />
<path d="M48.3168 132.0674
L48.4120 132.4484
" />
<path d="M48.4120 132.4484
L48.4120 132.9246
" />
<path d="M48.4120 132.9246
L48.3168 133.3055
" />
<path d="M48.3168 133.3055
L48.2216 133.4960
" />
<path d="M48.2216 133.4960
L48.1263 133.5913
" />
<path d="M48.1263 133.5913
L47.9359 133.6865
" />
<path d="M47.9359 133.6865
L47.7454 133.6865
" />
<path d="M47.7454 133.6865
L47.5549 133.5913
" />
<path d="M47.5549 133.5913
L47.4597 133.4960
" />
<path d="M47.4597 133.4960
L47.3644 133.3055
" />
<path d="M47.3644 133.3055
L47.2692 132.9246
" />
<path d="M47.2692 132.9246
L47.2692 132.4484
" />
<path d="M47.2692 132.4484
L47.3644 132.0674
" />
<path d="M47.3644 132.0674
L47.4597 131.8770
" />
<path d="M47.4597 131.8770
L47.5549 131.7817
" />
<path d="M47.5549 131.7817
L47.7454 131.6865
" />
<path d="M49.0787 131.6865
L50.4121 131.6865
" />
<path d="M50.4121 131.6865
L49.5549 133.6865
" />
<path d="M51.4597 132.5436
L51.2692 132.4484
" />
<path d="M51.2692 132.4484
L51.1740 132.3532
" />
<path d="M51.1740 132.3532
L51.0787 132.1627
" />
<path d="M51.0787 132.1627
L51.0787 132.0674
" />
<path d="M51.0787 132.0674
L51.1740 131.8770
" />
<path d="M51.1740 131.8770
L51.2692 131.7817
" />
<path d="M51.2692 131.7817
L51.4597 131.6865
" />
<path d="M51.4597 131.6865
L51.8406 131.6865
" />
<path d="M51.8406 131.6865
L52.0311 131.7817
" />
<path d="M52.0311 131.7817
L52.1263 131.8770
" />
<path d="M52.1263 131.8770
L52.2216 132.0674
" />
<path d="M52.2216 132.0674
L52.2216 132.1627
" />
<path d="M52.2216 132.1627
L52.1263 132.3532
" />
<path d="M52.1263 132.3532
L52.0311 132.4484
" />
<path d="M52.0311 132.4484
L51.8406 132.5436
" />
<path d="M51.8406 132.5436
L51.4597 132.5436
" />
<path d="M51.4597 132.5436
L51.2692 132.6389
" />
<path d="M51.2692 132.6389
L51.1740 132.7341
" />
<path d="M51.1740 132.7341
L51.0787 132.9246
" />
<path d="M51.0787 132.9246
L51.0787 133.3055
" />
<path d="M51.0787 133.3055
L51.1740 133.4960
" />
<path d="M51.1740 133.4960
L51.2692 133.5913
" />
<path d="M51.2692 133.5913
L51.4597 133.6865
" />
<path d="M51.4597 133.6865
L51.8406 133.6865
" />
<path d="M51.8406 133.6865
L52.0311 133.5913
" />
<path d="M52.0311 133.5913
L52.1263 133.4960
" />
<path d="M52.1263 133.4960
L52.2216 133.3055
" />
<path d="M52.2216 133.3055
L52.2216 132.9246
" />
<path d="M52.2216 132.9246
L52.1263 132.7341
" />
<path d="M52.1263 132.7341
L52.0311 132.6389
" />
<path d="M52.0311 132.6389
L51.8406 132.5436
" />
<path d="M52.8882 131.6865
L54.2216 131.6865
" />
<path d="M54.2216 131.6865
L53.3644 133.6865
" />
<path d="M54.8882 131.6865
L54.8882 132.0674
" />
<path d="M55.6502 131.6865
L55.6502 132.0674
" />
<path d="M58.6025 134.4484
L58.5073 134.3532
" />
<path d="M58.5073 134.3532
L58.3168 134.0674
" />
<path d="M58.3168 134.0674
L58.2216 133.8770
" />
<path d="M58.2216 133.8770
L58.1263 133.5913
" />
<path d="M58.1263 133.5913
L58.0311 133.1151
" />
<path d="M58.0311 133.1151
L58.0311 132.7341
" />
<path d="M58.0311 132.7341
L58.1263 132.2579
" />
<path d="M58.1263 132.2579
L58.2216 131.9722
" />
<path d="M58.2216 131.9722
L58.3168 131.7817
" />
<path d="M58.3168 131.7817
L58.5073 131.4960
" />
<path d="M58.5073 131.4960
L58.6025 131.4008
" />
<path d="M59.6501 132.5436
L59.4597 132.4484
" />
<path d="M59.4597 132.4484
L59.3644 132.3532
" />
<path d="M59.3644 132.3532
L59.2692 132.1627
" />
<path d="M59.2692 132.1627
L59.2692 132.0674
" />
<path d="M59.2692 132.0674
L59.3644 131.8770
" />
<path d="M59.3644 131.8770
L59.4597 131.7817
" />
<path d="M59.4597 131.7817
L59.6501 131.6865
" />
<path d="M59.6501 131.6865
L60.0311 131.6865
" />
<path d="M60.0311 131.6865
L60.2216 131.7817
" />
<path d="M60.2216 131.7817
L60.3168 131.8770
" />
<path d="M60.3168 131.8770
L60.4121 132.0674
" />
<path d="M60.4121 132.0674
L60.4121 132.1627
" />
<path d="M60.4121 132.1627
L60.3168 132.3532
" />
<path d="M60.3168 132.3532
L60.2216 132.4484
" />
<path d="M60.2216 132.4484
L60.0311 132.5436
" />
<path d="M60.0311 132.5436
L59.6501 132.5436
" />
<path d="M59.6501 132.5436
L59.4597 132.6389
" />
<path d="M59.4597 132.6389
L59.3644 132.7341
" />
<path d="M59.3644 132.7341
L59.2692 132.9246
" />
<path d="M59.2692 132.9246
L59.2692 133.3055
" />
<path d="M59.2692 133.3055
L59.3644 133.4960
" />
<path d="M59.3644 133.4960
L59.4597 133.5913
" />
<path d="M59.4597 133.5913
L59.6501 133.6865
" />
<path d="M59.6501 133.6865
L60.0311 133.6865
" />
<path d="M60.0311 133.6865
L60.2216 133.5913
" />
<path d="M60.2216 133.5913
L60.3168 133.4960
" />
<path d="M60.3168 133.4960
L60.4121 133.3055
" />
<path d="M60.4121 133.3055
L60.4121 132.9246
" />
<path d="M60.4121 132.9246
L60.3168 132.7341
" />
<path d="M60.3168 132.7341
L60.2216 132.6389
" />
<path d="M60.2216 132.6389
L60.0311 132.5436
" />
<path d="M62.7930 133.6865
L62.7930 131.6865
" />
<path d="M63.6502 133.6865
L63.6502 132.6389
" />
<path d="M63.6502 132.6389
L63.5549 132.4484
" />
<path d="M63.5549 132.4484
L63.3644 132.3532
" />
<path d="M63.3644 132.3532
L63.0787 132.3532
" />
<path d="M63.0787 132.3532
L62.8882 132.4484
" />
<path d="M62.8882 132.4484
L62.7930 132.5436
" />
<path d="M64.8882 133.6865
L64.6978 133.5913
" />
<path d="M64.6978 133.5913
L64.6025 133.4960
" />
<path d="M64.6025 133.4960
L64.5073 133.3055
" />
<path d="M64.5073 133.3055
L64.5073 132.7341
" />
<path d="M64.5073 132.7341
L64.6025 132.5436
" />
<path d="M64.6025 132.5436
L64.6978 132.4484
" />
<path d="M64.6978 132.4484
L64.8882 132.3532
" />
<path d="M64.8882 132.3532
L65.1740 132.3532
" />
<path d="M65.1740 132.3532
L65.3644 132.4484
" />
<path d="M65.3644 132.4484
L65.4597 132.5436
" />
<path d="M65.4597 132.5436
L65.5549 132.7341
" />
<path d="M65.5549 132.7341
L65.5549 133.3055
" />
<path d="M65.5549 133.3055
L65.4597 133.4960
" />
<path d="M65.4597 133.4960
L65.3644 133.5913
" />
<path d="M65.3644 133.5913
L65.1740 133.6865
" />
<path d="M65.1740 133.6865
L64.8882 133.6865
" />
<path d="M66.6978 133.6865
L66.5073 133.5913
" />
<path d="M66.5073 133.5913
L66.4121 133.4008
" />
<path d="M66.4121 133.4008
L66.4121 131.6865
" />
<path d="M68.2216 133.5913
L68.0311 133.6865
" />
<path d="M68.0311 133.6865
L67.6502 133.6865
" />
<path d="M67.6502 133.6865
L67.4597 133.5913
" />
<path d="M67.4597 133.5913
L67.3644 133.4008
" />
<path d="M67.3644 133.4008
L67.3644 132.6389
" />
<path d="M67.3644 132.6389
L67.4597 132.4484
" />
<path d="M67.4597 132.4484
L67.6502 132.3532
" />
<path d="M67.6502 132.3532
L68.0311 132.3532
" />
<path d="M68.0311 132.3532
L68.2216 132.4484
" />
<path d="M68.2216 132.4484
L68.3168 132.6389
" />
<path d="M68.3168 132.6389
L68.3168 132.8293
" />
<path d="M68.3168 132.8293
L67.3644 133.0198
" />
<path d="M69.0787 133.5913
L69.2692 133.6865
" />
<path d="M69.2692 133.6865
L69.6502 133.6865
" />
<path d="M69.6502 133.6865
L69.8406 133.5913
" />
<path d="M69.8406 133.5913
L69.9359 133.4008
" />
<path d="M69.9359 133.4008
L69.9359 133.3055
" />
<path d="M69.9359 133.3055
L69.8406 133.1151
" />
<path d="M69.8406 133.1151
L69.6502 133.0198
" />
<path d="M69.6502 133.0198
L69.3644 133.0198
" />
<path d="M69.3644 133.0198
L69.1740 132.9246
" />
<path d="M69.1740 132.9246
L69.0787 132.7341
" />
<path d="M69.0787 132.7341
L69.0787 132.6389
" />
<path d="M69.0787 132.6389
L69.1740 132.4484
" />
<path d="M69.1740 132.4484
L69.3644 132.3532
" />
<path d="M69.3644 132.3532
L69.6502 132.3532
" />
<path d="M69.6502 132.3532
L69.8406 132.4484
" />
<path d="M70.6025 134.4484
L70.6978 134.3532
" />
<path d="M70.6978 134.3532
L70.8882 134.0674
" />
<path d="M70.8882 134.0674
L70.9835 133.8770
" />
<path d="M70.9835 133.8770
L71.0787 133.5913
" />
<path d="M71.0787 133.5913
L71.1740 133.1151
" />
<path d="M71.1740 133.1151
L71.1740 132.7341
" />
<path d="M71.1740 132.7341
L71.0787 132.2579
" />
<path d="M71.0787 132.2579
L70.9835 131.9722
" />
<path d="M70.9835 131.9722
L70.8882 131.7817
" />
<path d="M70.8882 131.7817
L70.6978 131.4960
" />
<path d="M70.6978 131.4960
L70.6025 131.4008
" />
</g></g> 
</svg>
