%TF.GenerationSoftware,KiCad,Pcbnew,7.0.8*%
%TF.CreationDate,2024-02-24T18:47:46-06:00*%
%TF.ProjectId,idawgz32,69646177-677a-4333-922e-6b696361645f,rev?*%
%TF.SameCoordinates,Original*%
%TF.FileFunction,Legend,Bot*%
%TF.FilePolarity,Positive*%
%FSLAX46Y46*%
G04 Gerber Fmt 4.6, Leading zero omitted, Abs format (unit mm)*
G04 Created by KiCad (PCBNEW 7.0.8) date 2024-02-24 18:47:46*
%MOMM*%
%LPD*%
G01*
G04 APERTURE LIST*
%ADD10C,0.000000*%
%ADD11C,0.150000*%
%ADD12C,0.300000*%
G04 APERTURE END LIST*
D10*
G36*
X76494091Y-60305658D02*
G01*
X76494093Y-63521286D01*
X76494092Y-66543247D01*
X71092186Y-69662037D01*
X65690274Y-66543247D01*
X65690274Y-63521287D01*
X66597729Y-63521287D01*
X66601830Y-63714944D01*
X66614028Y-63906519D01*
X66634163Y-64095840D01*
X66662055Y-64282747D01*
X66697548Y-64467075D01*
X66740481Y-64648650D01*
X66790675Y-64827316D01*
X66847970Y-65002898D01*
X66912197Y-65175236D01*
X66983198Y-65344164D01*
X67060805Y-65509521D01*
X67144843Y-65671124D01*
X67235156Y-65828824D01*
X67331573Y-65982448D01*
X67433930Y-66131828D01*
X67542061Y-66276799D01*
X67557701Y-66168701D01*
X67576537Y-66061668D01*
X67598528Y-65955746D01*
X67623615Y-65850990D01*
X67651749Y-65747447D01*
X67682879Y-65645176D01*
X67716957Y-65544220D01*
X67753935Y-65444620D01*
X67793759Y-65346446D01*
X67836375Y-65249740D01*
X67881741Y-65154549D01*
X67929799Y-65060925D01*
X67980502Y-64968922D01*
X68033802Y-64878588D01*
X68089647Y-64789972D01*
X68147979Y-64703123D01*
X68077240Y-64646189D01*
X68009865Y-64585414D01*
X67975170Y-64550396D01*
X69234862Y-64550396D01*
X69234896Y-64558320D01*
X69235294Y-64566228D01*
X69236062Y-64574118D01*
X69237194Y-64581973D01*
X69238696Y-64589777D01*
X69240568Y-64597521D01*
X69242807Y-64605184D01*
X69245416Y-64612749D01*
X69248385Y-64620214D01*
X69251728Y-64627558D01*
X69255439Y-64634769D01*
X69259517Y-64641835D01*
X69263962Y-64648734D01*
X69268778Y-64655458D01*
X69273959Y-64661992D01*
X69279509Y-64668323D01*
X69279478Y-64668350D01*
X69279456Y-64668374D01*
X69279429Y-64668399D01*
X69279401Y-64668427D01*
X69284405Y-64673429D01*
X69659440Y-65048463D01*
X69284404Y-65423496D01*
X69279403Y-65428494D01*
X69279505Y-65428600D01*
X69273957Y-65434929D01*
X69268776Y-65441467D01*
X69263963Y-65448194D01*
X69259516Y-65455089D01*
X69255438Y-65462156D01*
X69251730Y-65469366D01*
X69248389Y-65476713D01*
X69245414Y-65484175D01*
X69242809Y-65491745D01*
X69240567Y-65499409D01*
X69238697Y-65507147D01*
X69237196Y-65514952D01*
X69236061Y-65522805D01*
X69235293Y-65530694D01*
X69234894Y-65538609D01*
X69234864Y-65546530D01*
X69235201Y-65554442D01*
X69235909Y-65562338D01*
X69236980Y-65570196D01*
X69238421Y-65578019D01*
X69240231Y-65585768D01*
X69242406Y-65593440D01*
X69244948Y-65601032D01*
X69247860Y-65608509D01*
X69251142Y-65615875D01*
X69254790Y-65623109D01*
X69258804Y-65630200D01*
X69263188Y-65637130D01*
X69267944Y-65643881D01*
X69273060Y-65650455D01*
X69278546Y-65656819D01*
X69284403Y-65662972D01*
X69290559Y-65668825D01*
X69296923Y-65674315D01*
X69303488Y-65679433D01*
X69310245Y-65684185D01*
X69317176Y-65688564D01*
X69324264Y-65692586D01*
X69331497Y-65696230D01*
X69338863Y-65699511D01*
X69346348Y-65702424D01*
X69353935Y-65704969D01*
X69361609Y-65707144D01*
X69369361Y-65708954D01*
X69377173Y-65710393D01*
X69385033Y-65711468D01*
X69392929Y-65712175D01*
X69400847Y-65712511D01*
X69408769Y-65712478D01*
X69416677Y-65712078D01*
X69424568Y-65711314D01*
X69432421Y-65710177D01*
X69440227Y-65708676D01*
X69447967Y-65706804D01*
X69455628Y-65704566D01*
X69463198Y-65701960D01*
X69470663Y-65698991D01*
X69478006Y-65695646D01*
X69485222Y-65691937D01*
X69492283Y-65687858D01*
X69499183Y-65683412D01*
X69505911Y-65678597D01*
X69512443Y-65673417D01*
X69518773Y-65667865D01*
X69518789Y-65667878D01*
X69518800Y-65667895D01*
X69518825Y-65667918D01*
X69518852Y-65667942D01*
X69518878Y-65667973D01*
X69523875Y-65662969D01*
X69898911Y-65287937D01*
X70278946Y-65667970D01*
X70278997Y-65667918D01*
X70279022Y-65667895D01*
X70279048Y-65667865D01*
X70285379Y-65673416D01*
X70291915Y-65678597D01*
X70298640Y-65683411D01*
X70305540Y-65687854D01*
X70312601Y-65691931D01*
X70319814Y-65695645D01*
X70327157Y-65698989D01*
X70334621Y-65701961D01*
X70342192Y-65704567D01*
X70349854Y-65706805D01*
X70357593Y-65708675D01*
X70365399Y-65710182D01*
X70373256Y-65711313D01*
X70381144Y-65712079D01*
X70389058Y-65712477D01*
X70396974Y-65712509D01*
X70404892Y-65712173D01*
X70412787Y-65711469D01*
X70420647Y-65710396D01*
X70428462Y-65708953D01*
X70436211Y-65707145D01*
X70443889Y-65704967D01*
X70451473Y-65702425D01*
X70458957Y-65699510D01*
X70466322Y-65696236D01*
X70473559Y-65692585D01*
X70480647Y-65688567D01*
X70487575Y-65684188D01*
X70494330Y-65679434D01*
X70500898Y-65674314D01*
X70507267Y-65668825D01*
X70513419Y-65662970D01*
X70519273Y-65656815D01*
X70524763Y-65650452D01*
X70529882Y-65643884D01*
X70534632Y-65637127D01*
X70539019Y-65630196D01*
X70543033Y-65623111D01*
X70546684Y-65615877D01*
X70549961Y-65608511D01*
X70552872Y-65601027D01*
X70555419Y-65593437D01*
X70557593Y-65585762D01*
X70559404Y-65578011D01*
X70560841Y-65570199D01*
X70561913Y-65562341D01*
X70562625Y-65554442D01*
X70562958Y-65546530D01*
X70562928Y-65538608D01*
X70562527Y-65530700D01*
X70561764Y-65522804D01*
X70560628Y-65514951D01*
X70559125Y-65507148D01*
X70557254Y-65499404D01*
X70555018Y-65491743D01*
X70552407Y-65484175D01*
X70549436Y-65476709D01*
X70546095Y-65469368D01*
X70542381Y-65462155D01*
X70538307Y-65455097D01*
X70533862Y-65448196D01*
X70529045Y-65441467D01*
X70523866Y-65434934D01*
X70518316Y-65428602D01*
X70518416Y-65428496D01*
X70138386Y-65048464D01*
X71416408Y-65048464D01*
X71416619Y-65056949D01*
X71417241Y-65065337D01*
X71418267Y-65073599D01*
X71419681Y-65081736D01*
X71421483Y-65089737D01*
X71423652Y-65097588D01*
X71426190Y-65105280D01*
X71429077Y-65112808D01*
X71432311Y-65120160D01*
X71435877Y-65127321D01*
X71439763Y-65134293D01*
X71443965Y-65141049D01*
X71448473Y-65147598D01*
X71453271Y-65153913D01*
X71458357Y-65159991D01*
X71463716Y-65165825D01*
X71469339Y-65171407D01*
X71475219Y-65176719D01*
X71481338Y-65181757D01*
X71487694Y-65186508D01*
X71494273Y-65190962D01*
X71501070Y-65195117D01*
X71508072Y-65198950D01*
X71515267Y-65202458D01*
X71522648Y-65205634D01*
X71530204Y-65208468D01*
X71537924Y-65210944D01*
X71545801Y-65213051D01*
X71553830Y-65214787D01*
X71561987Y-65216141D01*
X71570271Y-65217100D01*
X71578669Y-65217650D01*
X71578673Y-65217797D01*
X72116123Y-65217794D01*
X72116118Y-65546527D01*
X72116118Y-65755242D01*
X72116265Y-65755244D01*
X72116816Y-65763644D01*
X72117773Y-65771930D01*
X72119127Y-65780091D01*
X72120866Y-65788109D01*
X72122977Y-65795990D01*
X72125449Y-65803714D01*
X72128280Y-65811270D01*
X72131454Y-65818650D01*
X72134966Y-65825847D01*
X72138803Y-65832846D01*
X72142956Y-65839641D01*
X72147407Y-65846220D01*
X72152160Y-65852578D01*
X72157194Y-65858698D01*
X72162508Y-65864580D01*
X72168086Y-65870196D01*
X72173924Y-65875556D01*
X72180004Y-65880638D01*
X72186321Y-65885442D01*
X72192865Y-65889948D01*
X72199625Y-65894151D01*
X72206593Y-65898039D01*
X72213757Y-65901604D01*
X72221108Y-65904835D01*
X72228632Y-65907724D01*
X72236328Y-65910258D01*
X72244179Y-65912433D01*
X72252177Y-65914233D01*
X72260313Y-65915648D01*
X72268580Y-65916671D01*
X72276960Y-65917295D01*
X72285456Y-65917504D01*
X72293942Y-65917298D01*
X72302325Y-65916675D01*
X72310587Y-65915653D01*
X72318723Y-65914231D01*
X72326725Y-65912431D01*
X72334581Y-65910262D01*
X72342275Y-65907727D01*
X72349802Y-65904834D01*
X72357149Y-65901607D01*
X72364316Y-65898040D01*
X72371283Y-65894149D01*
X72378043Y-65889947D01*
X72384588Y-65885442D01*
X72390904Y-65880638D01*
X72396988Y-65875554D01*
X72402817Y-65870199D01*
X72408396Y-65864576D01*
X72413713Y-65858699D01*
X72418748Y-65852578D01*
X72423502Y-65846220D01*
X72427953Y-65839641D01*
X72432106Y-65832847D01*
X72435943Y-65825849D01*
X72439451Y-65818648D01*
X72442624Y-65811269D01*
X72445459Y-65803710D01*
X72447933Y-65795992D01*
X72450043Y-65788113D01*
X72451780Y-65780088D01*
X72453128Y-65771930D01*
X72454089Y-65763647D01*
X72454645Y-65755245D01*
X72454785Y-65755244D01*
X72454785Y-65217798D01*
X72992235Y-65217792D01*
X72992232Y-65217651D01*
X73000639Y-65217097D01*
X73008920Y-65216144D01*
X73017078Y-65214789D01*
X73025102Y-65213051D01*
X73032981Y-65210942D01*
X73040703Y-65208465D01*
X73048259Y-65205638D01*
X73055641Y-65202458D01*
X73062837Y-65198949D01*
X73069837Y-65195114D01*
X73076631Y-65190962D01*
X73083213Y-65186511D01*
X73089570Y-65181758D01*
X73095689Y-65176719D01*
X73101566Y-65171410D01*
X73107190Y-65165830D01*
X73112544Y-65159993D01*
X73117631Y-65153911D01*
X73122429Y-65147595D01*
X73126938Y-65141054D01*
X73131141Y-65134291D01*
X73135030Y-65127326D01*
X73138591Y-65120160D01*
X73141830Y-65112809D01*
X73144715Y-65105280D01*
X73147250Y-65097588D01*
X73149425Y-65089735D01*
X73151227Y-65081736D01*
X73152642Y-65073596D01*
X73153663Y-65065334D01*
X73154288Y-65056951D01*
X73154497Y-65048466D01*
X73154287Y-65039968D01*
X73153665Y-65031591D01*
X73152641Y-65023325D01*
X73151224Y-65015186D01*
X73149424Y-65007188D01*
X73147251Y-64999337D01*
X73144714Y-64991644D01*
X73141827Y-64984116D01*
X73138592Y-64976766D01*
X73135030Y-64969599D01*
X73131142Y-64962633D01*
X73126936Y-64955875D01*
X73122434Y-64949331D01*
X73117630Y-64943012D01*
X73112546Y-64936929D01*
X73107192Y-64931095D01*
X73101570Y-64925514D01*
X73095690Y-64920203D01*
X73089569Y-64915163D01*
X73083214Y-64910412D01*
X73076631Y-64905961D01*
X73069837Y-64901807D01*
X73062838Y-64897974D01*
X73055638Y-64894465D01*
X73048258Y-64891287D01*
X73040702Y-64888458D01*
X73032981Y-64885988D01*
X73025104Y-64883874D01*
X73017078Y-64882137D01*
X73008922Y-64880785D01*
X73000635Y-64879830D01*
X72992230Y-64879274D01*
X72992234Y-64879127D01*
X72454785Y-64879126D01*
X72454786Y-64341681D01*
X72454644Y-64341681D01*
X72454086Y-64333281D01*
X72453128Y-64324993D01*
X72451779Y-64316833D01*
X72450040Y-64308814D01*
X72447931Y-64300937D01*
X72445456Y-64293212D01*
X72442629Y-64285657D01*
X72439450Y-64278273D01*
X72435942Y-64271081D01*
X72432108Y-64264077D01*
X72427955Y-64257281D01*
X72423502Y-64250700D01*
X72418749Y-64244350D01*
X72413714Y-64238224D01*
X72408399Y-64232346D01*
X72402818Y-64226723D01*
X72396986Y-64221370D01*
X72390903Y-64216281D01*
X72384588Y-64211479D01*
X72378043Y-64206976D01*
X72371280Y-64202773D01*
X72364314Y-64198885D01*
X72357147Y-64195321D01*
X72349800Y-64192091D01*
X72342269Y-64189195D01*
X72334579Y-64186662D01*
X72326725Y-64184491D01*
X72318729Y-64182690D01*
X72310591Y-64181276D01*
X72302326Y-64180247D01*
X72293944Y-64179627D01*
X72285449Y-64179421D01*
X72276963Y-64179625D01*
X72268579Y-64180249D01*
X72260315Y-64181274D01*
X72252180Y-64182688D01*
X72244178Y-64184488D01*
X72236329Y-64186660D01*
X72228632Y-64189197D01*
X72221105Y-64192086D01*
X72213753Y-64195321D01*
X72206592Y-64198880D01*
X72199622Y-64202773D01*
X72192860Y-64206978D01*
X72186321Y-64211484D01*
X72180001Y-64216283D01*
X72173921Y-64221367D01*
X72168085Y-64226727D01*
X72162506Y-64232348D01*
X72157198Y-64238226D01*
X72152156Y-64244348D01*
X72147407Y-64250701D01*
X72142954Y-64257284D01*
X72138803Y-64264081D01*
X72134963Y-64271079D01*
X72131455Y-64278274D01*
X72128279Y-64285656D01*
X72125449Y-64293214D01*
X72122974Y-64300934D01*
X72120864Y-64308813D01*
X72119125Y-64316839D01*
X72117772Y-64324997D01*
X72116816Y-64333279D01*
X72116263Y-64341682D01*
X72116119Y-64341677D01*
X72116119Y-64879129D01*
X71585533Y-64879126D01*
X71578672Y-64879126D01*
X71578672Y-64879274D01*
X71570272Y-64879824D01*
X71561986Y-64880785D01*
X71553822Y-64882136D01*
X71545804Y-64883873D01*
X71537927Y-64885984D01*
X71530202Y-64888460D01*
X71522647Y-64891289D01*
X71515265Y-64894464D01*
X71508068Y-64897972D01*
X71501071Y-64901806D01*
X71494271Y-64905960D01*
X71487693Y-64910415D01*
X71481332Y-64915167D01*
X71475216Y-64920202D01*
X71469342Y-64925517D01*
X71463715Y-64931095D01*
X71458356Y-64936931D01*
X71453275Y-64943008D01*
X71448472Y-64949333D01*
X71443966Y-64955870D01*
X71439766Y-64962633D01*
X71435874Y-64969599D01*
X71432308Y-64976765D01*
X71429078Y-64984114D01*
X71426191Y-64991637D01*
X71423656Y-64999337D01*
X71421480Y-65007191D01*
X71419680Y-65015185D01*
X71418268Y-65023326D01*
X71417240Y-65031593D01*
X71416619Y-65039970D01*
X71416408Y-65048464D01*
X70138386Y-65048464D01*
X70138385Y-65048463D01*
X70513419Y-64673428D01*
X70518418Y-64668431D01*
X70518316Y-64668329D01*
X70523863Y-64661997D01*
X70529046Y-64655461D01*
X70533861Y-64648738D01*
X70538305Y-64641832D01*
X70542385Y-64634772D01*
X70546094Y-64627562D01*
X70549436Y-64620216D01*
X70552411Y-64612755D01*
X70555015Y-64605181D01*
X70557255Y-64597521D01*
X70559126Y-64589776D01*
X70560629Y-64581975D01*
X70561761Y-64574123D01*
X70562529Y-64566232D01*
X70562930Y-64558319D01*
X70562958Y-64550398D01*
X70562622Y-64542483D01*
X70561918Y-64534585D01*
X70560845Y-64526728D01*
X70559403Y-64518910D01*
X70557592Y-64511159D01*
X70555414Y-64503485D01*
X70552872Y-64495901D01*
X70549959Y-64488414D01*
X70546681Y-64481048D01*
X70543032Y-64473819D01*
X70539016Y-64466729D01*
X70534634Y-64459798D01*
X70529879Y-64453041D01*
X70524763Y-64446470D01*
X70519272Y-64440106D01*
X70513415Y-64433954D01*
X70507268Y-64428101D01*
X70500898Y-64422612D01*
X70494328Y-64417493D01*
X70487578Y-64412742D01*
X70480647Y-64408357D01*
X70473558Y-64404340D01*
X70466324Y-64400694D01*
X70458957Y-64397412D01*
X70451476Y-64394501D01*
X70443891Y-64391956D01*
X70436215Y-64389780D01*
X70428463Y-64387972D01*
X70420647Y-64386533D01*
X70412785Y-64385455D01*
X70404893Y-64384751D01*
X70396973Y-64384417D01*
X70389057Y-64384443D01*
X70381141Y-64384844D01*
X70373254Y-64385610D01*
X70365402Y-64386747D01*
X70357597Y-64388250D01*
X70349854Y-64390118D01*
X70342191Y-64392358D01*
X70334624Y-64394960D01*
X70327159Y-64397941D01*
X70319817Y-64401280D01*
X70312602Y-64404989D01*
X70305542Y-64409070D01*
X70298639Y-64413512D01*
X70291916Y-64418330D01*
X70285379Y-64423509D01*
X70279050Y-64429058D01*
X70278949Y-64428954D01*
X70273942Y-64433956D01*
X69898907Y-64808987D01*
X69523878Y-64433957D01*
X69523802Y-64433884D01*
X69523766Y-64433846D01*
X69523726Y-64433811D01*
X69518882Y-64428957D01*
X69518865Y-64428965D01*
X69518854Y-64428979D01*
X69518839Y-64428996D01*
X69518828Y-64429003D01*
X69518776Y-64429058D01*
X69512444Y-64423505D01*
X69505911Y-64418328D01*
X69499184Y-64413514D01*
X69492282Y-64409067D01*
X69485220Y-64404992D01*
X69478007Y-64401277D01*
X69470665Y-64397938D01*
X69463199Y-64394960D01*
X69455629Y-64392356D01*
X69447968Y-64390121D01*
X69440227Y-64388252D01*
X69432423Y-64386750D01*
X69424569Y-64385614D01*
X69416681Y-64384843D01*
X69408766Y-64384446D01*
X69400846Y-64384415D01*
X69392935Y-64384754D01*
X69385034Y-64385455D01*
X69377177Y-64386527D01*
X69369362Y-64387970D01*
X69361611Y-64389778D01*
X69353936Y-64391958D01*
X69346349Y-64394501D01*
X69338866Y-64397419D01*
X69331499Y-64400695D01*
X69324265Y-64404344D01*
X69317175Y-64408355D01*
X69310244Y-64412739D01*
X69303489Y-64417491D01*
X69296919Y-64422611D01*
X69290556Y-64428104D01*
X69284405Y-64433953D01*
X69278548Y-64440105D01*
X69273061Y-64446472D01*
X69267943Y-64453044D01*
X69263189Y-64459797D01*
X69258806Y-64466730D01*
X69254788Y-64473820D01*
X69251143Y-64481052D01*
X69247860Y-64488416D01*
X69244949Y-64495896D01*
X69242405Y-64503487D01*
X69240227Y-64511161D01*
X69238423Y-64518911D01*
X69236979Y-64526726D01*
X69235907Y-64534590D01*
X69235200Y-64542482D01*
X69234862Y-64550396D01*
X67975170Y-64550396D01*
X67946020Y-64520975D01*
X67885873Y-64453026D01*
X67829591Y-64381738D01*
X67777332Y-64307282D01*
X67729267Y-64229815D01*
X67685560Y-64149499D01*
X67646377Y-64066507D01*
X67611883Y-63981003D01*
X67582241Y-63893152D01*
X67557615Y-63803117D01*
X67538182Y-63711062D01*
X67524089Y-63617156D01*
X67515515Y-63521561D01*
X67512620Y-63424448D01*
X67514710Y-63341912D01*
X67520915Y-63260448D01*
X67531120Y-63180175D01*
X67545242Y-63101178D01*
X67563172Y-63023561D01*
X67584804Y-62947429D01*
X67610046Y-62872881D01*
X67638793Y-62800018D01*
X67670939Y-62728941D01*
X67706392Y-62659751D01*
X67745045Y-62592551D01*
X67786803Y-62527439D01*
X67831555Y-62464519D01*
X67879209Y-62403893D01*
X67929653Y-62345660D01*
X67982800Y-62289918D01*
X68038543Y-62236777D01*
X68096776Y-62186328D01*
X68157403Y-62138670D01*
X68220324Y-62093922D01*
X68285435Y-62052162D01*
X68352634Y-62013510D01*
X68421822Y-61978061D01*
X68492898Y-61945908D01*
X68565761Y-61917160D01*
X68640308Y-61891928D01*
X68716441Y-61870290D01*
X68794056Y-61852361D01*
X68873055Y-61838238D01*
X68953336Y-61828031D01*
X69034792Y-61821827D01*
X69117330Y-61819736D01*
X69192175Y-61821456D01*
X69266143Y-61826560D01*
X69339158Y-61834971D01*
X69411142Y-61846610D01*
X69482023Y-61861418D01*
X69551724Y-61879303D01*
X69620170Y-61900200D01*
X69687290Y-61924029D01*
X69752999Y-61950715D01*
X69817235Y-61980187D01*
X69879908Y-62012361D01*
X69940957Y-62047171D01*
X70000297Y-62084535D01*
X70057853Y-62124384D01*
X70113559Y-62166637D01*
X70167325Y-62211220D01*
X70219092Y-62258062D01*
X70268774Y-62307084D01*
X70316295Y-62358210D01*
X70361589Y-62411366D01*
X70404569Y-62466475D01*
X70445168Y-62523473D01*
X70483313Y-62582267D01*
X70518919Y-62642793D01*
X70551919Y-62704976D01*
X70582236Y-62768730D01*
X70609789Y-62833993D01*
X70634510Y-62900685D01*
X70656325Y-62968726D01*
X70675153Y-63038049D01*
X70690917Y-63108569D01*
X70703553Y-63180223D01*
X70751516Y-63175359D01*
X70799665Y-63171137D01*
X70847995Y-63167547D01*
X70896497Y-63164602D01*
X70945171Y-63162305D01*
X70994012Y-63160656D01*
X71043019Y-63159670D01*
X71092184Y-63159336D01*
X71092182Y-63159335D01*
X71144905Y-63159716D01*
X71197443Y-63160860D01*
X71249795Y-63162752D01*
X71301954Y-63165390D01*
X71353915Y-63168774D01*
X71405671Y-63172898D01*
X71457217Y-63177748D01*
X71508550Y-63183325D01*
X71521972Y-63112657D01*
X71538453Y-63043103D01*
X71557919Y-62974763D01*
X71580292Y-62907688D01*
X71605506Y-62841963D01*
X71633479Y-62777661D01*
X71664151Y-62714853D01*
X71697435Y-62653610D01*
X71733265Y-62594004D01*
X71771570Y-62536115D01*
X71812265Y-62480008D01*
X71855294Y-62425768D01*
X71900570Y-62373455D01*
X71948024Y-62323148D01*
X71997584Y-62274924D01*
X72049181Y-62228849D01*
X72102732Y-62185002D01*
X72158174Y-62143450D01*
X72215424Y-62104271D01*
X72274414Y-62067537D01*
X72335072Y-62033322D01*
X72397326Y-62001700D01*
X72461096Y-61972741D01*
X72526317Y-61946515D01*
X72592905Y-61923107D01*
X72660798Y-61902577D01*
X72729920Y-61885015D01*
X72800192Y-61870472D01*
X72871549Y-61859037D01*
X72943916Y-61850779D01*
X73017214Y-61845770D01*
X73091375Y-61844084D01*
X73173911Y-61846168D01*
X73255371Y-61852370D01*
X73335651Y-61862582D01*
X73414645Y-61876708D01*
X73492264Y-61894634D01*
X73568398Y-61916263D01*
X73642947Y-61941510D01*
X73715809Y-61970250D01*
X73786881Y-62002404D01*
X73856073Y-62037857D01*
X73923271Y-62076504D01*
X73988383Y-62118260D01*
X74051303Y-62163013D01*
X74111927Y-62210669D01*
X74170161Y-62261118D01*
X74225903Y-62314267D01*
X74279050Y-62370004D01*
X74329498Y-62428241D01*
X74377152Y-62488866D01*
X74421905Y-62551786D01*
X74463657Y-62616894D01*
X74502310Y-62684093D01*
X74537762Y-62753281D01*
X74569913Y-62824360D01*
X74598659Y-62897222D01*
X74623900Y-62971772D01*
X74645532Y-63047903D01*
X74663465Y-63125515D01*
X74677582Y-63204521D01*
X74687793Y-63284795D01*
X74693994Y-63366255D01*
X74696084Y-63448792D01*
X74696086Y-63448792D01*
X74693163Y-63546326D01*
X74684516Y-63642322D01*
X74670306Y-63736616D01*
X74650703Y-63829036D01*
X74625870Y-63919422D01*
X74595986Y-64007599D01*
X74561205Y-64093407D01*
X74521701Y-64176672D01*
X74477643Y-64257234D01*
X74429193Y-64334915D01*
X74376522Y-64409555D01*
X74319796Y-64480988D01*
X74259184Y-64549040D01*
X74194846Y-64613554D01*
X74126961Y-64674357D01*
X74055695Y-64731271D01*
X74112071Y-64816902D01*
X74166044Y-64904209D01*
X74217559Y-64993161D01*
X74247498Y-65048463D01*
X74266572Y-65083694D01*
X74313039Y-65175771D01*
X74356906Y-65269346D01*
X74398127Y-65364362D01*
X74436658Y-65460781D01*
X74472448Y-65558549D01*
X74505453Y-65657624D01*
X74535621Y-65757952D01*
X74562908Y-65859491D01*
X74587269Y-65962194D01*
X74608655Y-66066013D01*
X74627015Y-66170899D01*
X74642303Y-66276799D01*
X74750431Y-66131824D01*
X74852790Y-65982443D01*
X74949206Y-65828821D01*
X75039521Y-65671126D01*
X75123560Y-65509515D01*
X75201165Y-65344166D01*
X75272166Y-65175236D01*
X75336395Y-65002898D01*
X75393691Y-64827313D01*
X75443883Y-64648646D01*
X75486811Y-64467073D01*
X75522308Y-64282747D01*
X75550202Y-64095840D01*
X75570331Y-63906517D01*
X75582535Y-63714941D01*
X75586635Y-63521290D01*
X75580785Y-63290114D01*
X75563419Y-63061965D01*
X75534817Y-62837124D01*
X75495274Y-62615865D01*
X75445059Y-62398480D01*
X75384467Y-62185249D01*
X75313773Y-61976454D01*
X75233256Y-61772381D01*
X75143218Y-61573312D01*
X75043919Y-61379529D01*
X74935662Y-61191317D01*
X74818715Y-61008958D01*
X74693368Y-60832733D01*
X74559905Y-60662926D01*
X74418610Y-60499827D01*
X74269760Y-60343709D01*
X74113642Y-60194858D01*
X73950540Y-60053561D01*
X73780732Y-59920101D01*
X73604513Y-59794750D01*
X73422151Y-59677809D01*
X73233937Y-59569547D01*
X73040154Y-59470253D01*
X72841087Y-59380208D01*
X72637012Y-59299696D01*
X72428219Y-59229004D01*
X72214987Y-59168410D01*
X71997605Y-59118197D01*
X71776346Y-59078651D01*
X71551500Y-59050050D01*
X71323354Y-59032684D01*
X71092183Y-59026831D01*
X70861011Y-59032683D01*
X70632858Y-59050051D01*
X70408013Y-59078651D01*
X70186760Y-59118197D01*
X69969375Y-59168408D01*
X69756145Y-59229005D01*
X69547348Y-59299700D01*
X69343276Y-59380206D01*
X69144209Y-59470254D01*
X68950424Y-59569550D01*
X68762211Y-59677809D01*
X68579850Y-59794752D01*
X68403627Y-59920097D01*
X68233821Y-60053559D01*
X68070721Y-60194857D01*
X67914600Y-60343707D01*
X67765751Y-60499826D01*
X67624456Y-60662927D01*
X67490992Y-60832735D01*
X67365647Y-61008955D01*
X67248702Y-61191319D01*
X67140440Y-61379530D01*
X67041148Y-61573311D01*
X66951100Y-61772384D01*
X66870591Y-61976454D01*
X66799899Y-62185250D01*
X66739304Y-62398486D01*
X66689093Y-62615865D01*
X66649543Y-62837119D01*
X66620945Y-63061967D01*
X66603578Y-63290114D01*
X66597729Y-63521287D01*
X65690274Y-63521287D01*
X65690274Y-60305653D01*
X71092181Y-57186867D01*
X76494091Y-60305658D01*
G37*
D11*
X74605530Y-71875585D02*
X74605530Y-71208918D01*
X74605530Y-70875585D02*
X74653149Y-70923204D01*
X74653149Y-70923204D02*
X74605530Y-70970823D01*
X74605530Y-70970823D02*
X74557911Y-70923204D01*
X74557911Y-70923204D02*
X74605530Y-70875585D01*
X74605530Y-70875585D02*
X74605530Y-70970823D01*
X73700769Y-71875585D02*
X73700769Y-70875585D01*
X73700769Y-71827966D02*
X73796007Y-71875585D01*
X73796007Y-71875585D02*
X73986483Y-71875585D01*
X73986483Y-71875585D02*
X74081721Y-71827966D01*
X74081721Y-71827966D02*
X74129340Y-71780346D01*
X74129340Y-71780346D02*
X74176959Y-71685108D01*
X74176959Y-71685108D02*
X74176959Y-71399394D01*
X74176959Y-71399394D02*
X74129340Y-71304156D01*
X74129340Y-71304156D02*
X74081721Y-71256537D01*
X74081721Y-71256537D02*
X73986483Y-71208918D01*
X73986483Y-71208918D02*
X73796007Y-71208918D01*
X73796007Y-71208918D02*
X73700769Y-71256537D01*
X72796007Y-71875585D02*
X72796007Y-71351775D01*
X72796007Y-71351775D02*
X72843626Y-71256537D01*
X72843626Y-71256537D02*
X72938864Y-71208918D01*
X72938864Y-71208918D02*
X73129340Y-71208918D01*
X73129340Y-71208918D02*
X73224578Y-71256537D01*
X72796007Y-71827966D02*
X72891245Y-71875585D01*
X72891245Y-71875585D02*
X73129340Y-71875585D01*
X73129340Y-71875585D02*
X73224578Y-71827966D01*
X73224578Y-71827966D02*
X73272197Y-71732727D01*
X73272197Y-71732727D02*
X73272197Y-71637489D01*
X73272197Y-71637489D02*
X73224578Y-71542251D01*
X73224578Y-71542251D02*
X73129340Y-71494632D01*
X73129340Y-71494632D02*
X72891245Y-71494632D01*
X72891245Y-71494632D02*
X72796007Y-71447013D01*
X72415054Y-71208918D02*
X72224578Y-71875585D01*
X72224578Y-71875585D02*
X72034102Y-71399394D01*
X72034102Y-71399394D02*
X71843626Y-71875585D01*
X71843626Y-71875585D02*
X71653150Y-71208918D01*
X70843626Y-71208918D02*
X70843626Y-72018442D01*
X70843626Y-72018442D02*
X70891245Y-72113680D01*
X70891245Y-72113680D02*
X70938864Y-72161299D01*
X70938864Y-72161299D02*
X71034102Y-72208918D01*
X71034102Y-72208918D02*
X71176959Y-72208918D01*
X71176959Y-72208918D02*
X71272197Y-72161299D01*
X70843626Y-71827966D02*
X70938864Y-71875585D01*
X70938864Y-71875585D02*
X71129340Y-71875585D01*
X71129340Y-71875585D02*
X71224578Y-71827966D01*
X71224578Y-71827966D02*
X71272197Y-71780346D01*
X71272197Y-71780346D02*
X71319816Y-71685108D01*
X71319816Y-71685108D02*
X71319816Y-71399394D01*
X71319816Y-71399394D02*
X71272197Y-71304156D01*
X71272197Y-71304156D02*
X71224578Y-71256537D01*
X71224578Y-71256537D02*
X71129340Y-71208918D01*
X71129340Y-71208918D02*
X70938864Y-71208918D01*
X70938864Y-71208918D02*
X70843626Y-71256537D01*
X70462673Y-71208918D02*
X69938864Y-71208918D01*
X69938864Y-71208918D02*
X70462673Y-71875585D01*
X70462673Y-71875585D02*
X69938864Y-71875585D01*
X69653149Y-70875585D02*
X69034102Y-70875585D01*
X69034102Y-70875585D02*
X69367435Y-71256537D01*
X69367435Y-71256537D02*
X69224578Y-71256537D01*
X69224578Y-71256537D02*
X69129340Y-71304156D01*
X69129340Y-71304156D02*
X69081721Y-71351775D01*
X69081721Y-71351775D02*
X69034102Y-71447013D01*
X69034102Y-71447013D02*
X69034102Y-71685108D01*
X69034102Y-71685108D02*
X69081721Y-71780346D01*
X69081721Y-71780346D02*
X69129340Y-71827966D01*
X69129340Y-71827966D02*
X69224578Y-71875585D01*
X69224578Y-71875585D02*
X69510292Y-71875585D01*
X69510292Y-71875585D02*
X69605530Y-71827966D01*
X69605530Y-71827966D02*
X69653149Y-71780346D01*
X68653149Y-70970823D02*
X68605530Y-70923204D01*
X68605530Y-70923204D02*
X68510292Y-70875585D01*
X68510292Y-70875585D02*
X68272197Y-70875585D01*
X68272197Y-70875585D02*
X68176959Y-70923204D01*
X68176959Y-70923204D02*
X68129340Y-70970823D01*
X68129340Y-70970823D02*
X68081721Y-71066061D01*
X68081721Y-71066061D02*
X68081721Y-71161299D01*
X68081721Y-71161299D02*
X68129340Y-71304156D01*
X68129340Y-71304156D02*
X68700768Y-71875585D01*
X68700768Y-71875585D02*
X68081721Y-71875585D01*
X72796006Y-72818918D02*
X72557911Y-73485585D01*
X72557911Y-73485585D02*
X72319816Y-72818918D01*
X71986482Y-72580823D02*
X71938863Y-72533204D01*
X71938863Y-72533204D02*
X71843625Y-72485585D01*
X71843625Y-72485585D02*
X71605530Y-72485585D01*
X71605530Y-72485585D02*
X71510292Y-72533204D01*
X71510292Y-72533204D02*
X71462673Y-72580823D01*
X71462673Y-72580823D02*
X71415054Y-72676061D01*
X71415054Y-72676061D02*
X71415054Y-72771299D01*
X71415054Y-72771299D02*
X71462673Y-72914156D01*
X71462673Y-72914156D02*
X72034101Y-73485585D01*
X72034101Y-73485585D02*
X71415054Y-73485585D01*
X70986482Y-73390346D02*
X70938863Y-73437966D01*
X70938863Y-73437966D02*
X70986482Y-73485585D01*
X70986482Y-73485585D02*
X71034101Y-73437966D01*
X71034101Y-73437966D02*
X70986482Y-73390346D01*
X70986482Y-73390346D02*
X70986482Y-73485585D01*
X70319816Y-72485585D02*
X70224578Y-72485585D01*
X70224578Y-72485585D02*
X70129340Y-72533204D01*
X70129340Y-72533204D02*
X70081721Y-72580823D01*
X70081721Y-72580823D02*
X70034102Y-72676061D01*
X70034102Y-72676061D02*
X69986483Y-72866537D01*
X69986483Y-72866537D02*
X69986483Y-73104632D01*
X69986483Y-73104632D02*
X70034102Y-73295108D01*
X70034102Y-73295108D02*
X70081721Y-73390346D01*
X70081721Y-73390346D02*
X70129340Y-73437966D01*
X70129340Y-73437966D02*
X70224578Y-73485585D01*
X70224578Y-73485585D02*
X70319816Y-73485585D01*
X70319816Y-73485585D02*
X70415054Y-73437966D01*
X70415054Y-73437966D02*
X70462673Y-73390346D01*
X70462673Y-73390346D02*
X70510292Y-73295108D01*
X70510292Y-73295108D02*
X70557911Y-73104632D01*
X70557911Y-73104632D02*
X70557911Y-72866537D01*
X70557911Y-72866537D02*
X70510292Y-72676061D01*
X70510292Y-72676061D02*
X70462673Y-72580823D01*
X70462673Y-72580823D02*
X70415054Y-72533204D01*
X70415054Y-72533204D02*
X70319816Y-72485585D01*
X75819817Y-75095585D02*
X75819817Y-74095585D01*
X75819817Y-74476537D02*
X75724579Y-74428918D01*
X75724579Y-74428918D02*
X75534103Y-74428918D01*
X75534103Y-74428918D02*
X75438865Y-74476537D01*
X75438865Y-74476537D02*
X75391246Y-74524156D01*
X75391246Y-74524156D02*
X75343627Y-74619394D01*
X75343627Y-74619394D02*
X75343627Y-74905108D01*
X75343627Y-74905108D02*
X75391246Y-75000346D01*
X75391246Y-75000346D02*
X75438865Y-75047966D01*
X75438865Y-75047966D02*
X75534103Y-75095585D01*
X75534103Y-75095585D02*
X75724579Y-75095585D01*
X75724579Y-75095585D02*
X75819817Y-75047966D01*
X75010293Y-74428918D02*
X74772198Y-75095585D01*
X74534103Y-74428918D02*
X74772198Y-75095585D01*
X74772198Y-75095585D02*
X74867436Y-75333680D01*
X74867436Y-75333680D02*
X74915055Y-75381299D01*
X74915055Y-75381299D02*
X75010293Y-75428918D01*
X73438864Y-75047966D02*
X73343626Y-75095585D01*
X73343626Y-75095585D02*
X73153150Y-75095585D01*
X73153150Y-75095585D02*
X73057912Y-75047966D01*
X73057912Y-75047966D02*
X73010293Y-74952727D01*
X73010293Y-74952727D02*
X73010293Y-74905108D01*
X73010293Y-74905108D02*
X73057912Y-74809870D01*
X73057912Y-74809870D02*
X73153150Y-74762251D01*
X73153150Y-74762251D02*
X73296007Y-74762251D01*
X73296007Y-74762251D02*
X73391245Y-74714632D01*
X73391245Y-74714632D02*
X73438864Y-74619394D01*
X73438864Y-74619394D02*
X73438864Y-74571775D01*
X73438864Y-74571775D02*
X73391245Y-74476537D01*
X73391245Y-74476537D02*
X73296007Y-74428918D01*
X73296007Y-74428918D02*
X73153150Y-74428918D01*
X73153150Y-74428918D02*
X73057912Y-74476537D01*
X72581721Y-74428918D02*
X72581721Y-75428918D01*
X72581721Y-74476537D02*
X72486483Y-74428918D01*
X72486483Y-74428918D02*
X72296007Y-74428918D01*
X72296007Y-74428918D02*
X72200769Y-74476537D01*
X72200769Y-74476537D02*
X72153150Y-74524156D01*
X72153150Y-74524156D02*
X72105531Y-74619394D01*
X72105531Y-74619394D02*
X72105531Y-74905108D01*
X72105531Y-74905108D02*
X72153150Y-75000346D01*
X72153150Y-75000346D02*
X72200769Y-75047966D01*
X72200769Y-75047966D02*
X72296007Y-75095585D01*
X72296007Y-75095585D02*
X72486483Y-75095585D01*
X72486483Y-75095585D02*
X72581721Y-75047966D01*
X71534102Y-75095585D02*
X71629340Y-75047966D01*
X71629340Y-75047966D02*
X71676959Y-75000346D01*
X71676959Y-75000346D02*
X71724578Y-74905108D01*
X71724578Y-74905108D02*
X71724578Y-74619394D01*
X71724578Y-74619394D02*
X71676959Y-74524156D01*
X71676959Y-74524156D02*
X71629340Y-74476537D01*
X71629340Y-74476537D02*
X71534102Y-74428918D01*
X71534102Y-74428918D02*
X71391245Y-74428918D01*
X71391245Y-74428918D02*
X71296007Y-74476537D01*
X71296007Y-74476537D02*
X71248388Y-74524156D01*
X71248388Y-74524156D02*
X71200769Y-74619394D01*
X71200769Y-74619394D02*
X71200769Y-74905108D01*
X71200769Y-74905108D02*
X71248388Y-75000346D01*
X71248388Y-75000346D02*
X71296007Y-75047966D01*
X71296007Y-75047966D02*
X71391245Y-75095585D01*
X71391245Y-75095585D02*
X71534102Y-75095585D01*
X70772197Y-75095585D02*
X70772197Y-74428918D01*
X70772197Y-74619394D02*
X70724578Y-74524156D01*
X70724578Y-74524156D02*
X70676959Y-74476537D01*
X70676959Y-74476537D02*
X70581721Y-74428918D01*
X70581721Y-74428918D02*
X70486483Y-74428918D01*
X69772197Y-75047966D02*
X69867435Y-75095585D01*
X69867435Y-75095585D02*
X70057911Y-75095585D01*
X70057911Y-75095585D02*
X70153149Y-75047966D01*
X70153149Y-75047966D02*
X70200768Y-74952727D01*
X70200768Y-74952727D02*
X70200768Y-74571775D01*
X70200768Y-74571775D02*
X70153149Y-74476537D01*
X70153149Y-74476537D02*
X70057911Y-74428918D01*
X70057911Y-74428918D02*
X69867435Y-74428918D01*
X69867435Y-74428918D02*
X69772197Y-74476537D01*
X69772197Y-74476537D02*
X69724578Y-74571775D01*
X69724578Y-74571775D02*
X69724578Y-74667013D01*
X69724578Y-74667013D02*
X70200768Y-74762251D01*
X69391244Y-74428918D02*
X69200768Y-75095585D01*
X69200768Y-75095585D02*
X69010292Y-74619394D01*
X69010292Y-74619394D02*
X68819816Y-75095585D01*
X68819816Y-75095585D02*
X68629340Y-74428918D01*
X68105530Y-75095585D02*
X68200768Y-75047966D01*
X68200768Y-75047966D02*
X68248387Y-75000346D01*
X68248387Y-75000346D02*
X68296006Y-74905108D01*
X68296006Y-74905108D02*
X68296006Y-74619394D01*
X68296006Y-74619394D02*
X68248387Y-74524156D01*
X68248387Y-74524156D02*
X68200768Y-74476537D01*
X68200768Y-74476537D02*
X68105530Y-74428918D01*
X68105530Y-74428918D02*
X67962673Y-74428918D01*
X67962673Y-74428918D02*
X67867435Y-74476537D01*
X67867435Y-74476537D02*
X67819816Y-74524156D01*
X67819816Y-74524156D02*
X67772197Y-74619394D01*
X67772197Y-74619394D02*
X67772197Y-74905108D01*
X67772197Y-74905108D02*
X67819816Y-75000346D01*
X67819816Y-75000346D02*
X67867435Y-75047966D01*
X67867435Y-75047966D02*
X67962673Y-75095585D01*
X67962673Y-75095585D02*
X68105530Y-75095585D01*
X67343625Y-75095585D02*
X67343625Y-74095585D01*
X66915054Y-75095585D02*
X66915054Y-74571775D01*
X66915054Y-74571775D02*
X66962673Y-74476537D01*
X66962673Y-74476537D02*
X67057911Y-74428918D01*
X67057911Y-74428918D02*
X67200768Y-74428918D01*
X67200768Y-74428918D02*
X67296006Y-74476537D01*
X67296006Y-74476537D02*
X67343625Y-74524156D01*
D12*
X75693882Y-55384929D02*
X75598644Y-55480168D01*
X75598644Y-55480168D02*
X75693882Y-55575406D01*
X75693882Y-55575406D02*
X75789120Y-55480168D01*
X75789120Y-55480168D02*
X75693882Y-55384929D01*
X75693882Y-55384929D02*
X75693882Y-55575406D01*
X75693882Y-54813501D02*
X75789120Y-53670644D01*
X75789120Y-53670644D02*
X75693882Y-53575406D01*
X75693882Y-53575406D02*
X75598644Y-53670644D01*
X75598644Y-53670644D02*
X75693882Y-54813501D01*
X75693882Y-54813501D02*
X75693882Y-53575406D01*
X74741501Y-53670644D02*
X74741501Y-54337310D01*
X73598644Y-53670644D02*
X73693882Y-54242072D01*
X73693882Y-54242072D02*
X73789120Y-54623025D01*
X73789120Y-54623025D02*
X73884358Y-55003977D01*
X73884358Y-55003977D02*
X74074834Y-55289691D01*
X74074834Y-55289691D02*
X74360549Y-55480168D01*
X74741501Y-53670644D02*
X73598644Y-53670644D01*
X72646263Y-53765882D02*
X72265311Y-54146834D01*
X72646263Y-55289691D02*
X72170073Y-55194453D01*
X72170073Y-55194453D02*
X71884358Y-54908739D01*
X71884358Y-54908739D02*
X71693882Y-54623025D01*
X71693882Y-54623025D02*
X71503406Y-53956358D01*
X70551025Y-53670644D02*
X70551025Y-54337310D01*
X69408168Y-53670644D02*
X69503406Y-54242072D01*
X69503406Y-54242072D02*
X69598644Y-54623025D01*
X69598644Y-54623025D02*
X69693882Y-55003977D01*
X69693882Y-55003977D02*
X69884358Y-55289691D01*
X69884358Y-55289691D02*
X70170073Y-55480168D01*
X70551025Y-53670644D02*
X69408168Y-53670644D01*
X68455787Y-53765882D02*
X68074835Y-54146834D01*
X68455787Y-55289691D02*
X67979597Y-55194453D01*
X67979597Y-55194453D02*
X67693882Y-54908739D01*
X67693882Y-54908739D02*
X67503406Y-54623025D01*
X67503406Y-54623025D02*
X67312930Y-53956358D01*
X66360549Y-55384929D02*
X66265311Y-55480168D01*
X66265311Y-55480168D02*
X66360549Y-55575406D01*
X66360549Y-55575406D02*
X66455787Y-55480168D01*
X66455787Y-55480168D02*
X66360549Y-55384929D01*
X66360549Y-55384929D02*
X66360549Y-55575406D01*
X66360549Y-54813501D02*
X66455787Y-53670644D01*
X66455787Y-53670644D02*
X66360549Y-53575406D01*
X66360549Y-53575406D02*
X66265311Y-53670644D01*
X66265311Y-53670644D02*
X66360549Y-54813501D01*
X66360549Y-54813501D02*
X66360549Y-53575406D01*
M02*
