%TF.GenerationSoftware,KiCad,Pcbnew,7.0.8*%
%TF.CreationDate,2024-02-24T18:47:46-06:00*%
%TF.ProjectId,idawgz32,69646177-677a-4333-922e-6b696361645f,rev?*%
%TF.SameCoordinates,Original*%
%TF.FileFunction,Profile,NP*%
%FSLAX46Y46*%
G04 Gerber Fmt 4.6, Leading zero omitted, Abs format (unit mm)*
G04 Created by KiCad (PCBNEW 7.0.8) date 2024-02-24 18:47:46*
%MOMM*%
%LPD*%
G01*
G04 APERTURE LIST*
%TA.AperFunction,Profile*%
%ADD10C,0.050000*%
%TD*%
G04 APERTURE END LIST*
D10*
X62047604Y-80004454D02*
X60633069Y-85283579D01*
X27898104Y-41312869D02*
G75*
G03*
X25448618Y-42727095I-517613J-1931885D01*
G01*
X106217101Y-80744948D02*
X84000806Y-86697787D01*
X27898102Y-41312876D02*
X43098589Y-45385835D01*
X58183591Y-86697729D02*
G75*
G03*
X60633069Y-85283579I517750J1931664D01*
G01*
X63979453Y-78522140D02*
G75*
G03*
X62047605Y-80004454I85J-2000123D01*
G01*
X34553068Y-78295462D02*
X38176538Y-64772500D01*
X38176513Y-64772493D02*
G75*
G03*
X36762327Y-62323009I-1931872J517628D01*
G01*
X106217095Y-80744927D02*
G75*
G03*
X107631313Y-78295467I-517655J1931858D01*
G01*
X81551325Y-85283568D02*
G75*
G03*
X84000806Y-86697787I1931719J517404D01*
G01*
X43098590Y-45385831D02*
G75*
G03*
X43616219Y-45453981I517750J1932667D01*
G01*
X98568159Y-45453977D02*
G75*
G03*
X99085796Y-45385834I-22J2000309D01*
G01*
X116735768Y-42727086D02*
G75*
G03*
X114286281Y-41312883I-1931925J-517780D01*
G01*
X118945020Y-58699545D02*
X105422061Y-62323010D01*
X58183575Y-86697790D02*
X35967281Y-80744953D01*
X78204932Y-78522095D02*
X63979453Y-78522094D01*
X80136818Y-80004441D02*
G75*
G03*
X78204932Y-78522095I-1931976J-517821D01*
G01*
X43616219Y-45453981D02*
X98568159Y-45453988D01*
X116735769Y-42727086D02*
X120359232Y-56250056D01*
X105422054Y-62322985D02*
G75*
G03*
X104007845Y-64772501I517685J-1931881D01*
G01*
X104007845Y-64772501D02*
X107631313Y-78295467D01*
X118945017Y-58699533D02*
G75*
G03*
X120359232Y-56250056I-517677J1931872D01*
G01*
X99085796Y-45385834D02*
X114286281Y-41312883D01*
X36762327Y-62323008D02*
X23239362Y-58699545D01*
X21825218Y-56250070D02*
G75*
G03*
X23239362Y-58699545I1931924J-517599D01*
G01*
X34553044Y-78295456D02*
G75*
G03*
X35967281Y-80744952I1931897J-517612D01*
G01*
X21825151Y-56250052D02*
X25448618Y-42727095D01*
X81551316Y-85283571D02*
X80136778Y-80004452D01*
M02*
