%TF.GenerationSoftware,KiCad,Pcbnew,7.0.8*%
%TF.CreationDate,2024-02-24T18:47:44-06:00*%
%TF.ProjectId,idawgz32,69646177-677a-4333-922e-6b696361645f,rev?*%
%TF.SameCoordinates,Original*%
%TF.FileFunction,Plated,1,2,PTH,Mixed*%
%TF.FilePolarity,Positive*%
%FSLAX46Y46*%
G04 Gerber Fmt 4.6, Leading zero omitted, Abs format (unit mm)*
G04 Created by KiCad (PCBNEW 7.0.8) date 2024-02-24 18:47:44*
%MOMM*%
%LPD*%
G01*
G04 APERTURE LIST*
%TA.AperFunction,ViaDrill*%
%ADD10C,0.400000*%
%TD*%
G04 aperture for slot hole*
%TA.AperFunction,ComponentDrill*%
%ADD11O,0.600000X1.200000*%
%TD*%
G04 aperture for slot hole*
%TA.AperFunction,ComponentDrill*%
%ADD12O,0.600000X1.700000*%
%TD*%
%TA.AperFunction,ComponentDrill*%
%ADD13C,2.000000*%
%TD*%
G04 APERTURE END LIST*
D10*
X23301010Y-53090558D03*
X23927775Y-50751436D03*
X25402046Y-56840484D03*
X26502027Y-52735301D03*
X27092416Y-57293421D03*
X27731420Y-48147151D03*
X28192398Y-53188239D03*
X29421789Y-48600090D03*
X29424793Y-49724576D03*
X32362083Y-46356273D03*
X34095382Y-59169856D03*
X35195361Y-55064673D03*
X35785748Y-59622792D03*
X36885732Y-55517605D03*
X38118129Y-52053950D03*
X39406726Y-75086898D03*
X40459343Y-70192560D03*
X40855615Y-75475126D03*
X41736100Y-66393560D03*
X41857066Y-49691148D03*
X42088012Y-72011468D03*
X42149712Y-70645496D03*
X42788713Y-61499231D03*
X43184986Y-66781794D03*
X43888691Y-57394044D03*
X44352679Y-63559610D03*
X44479080Y-61952160D03*
X45579061Y-57846980D03*
X46505272Y-54560093D03*
X48100061Y-77416265D03*
X49152671Y-72521933D03*
X49548948Y-77804497D03*
X50390839Y-52594443D03*
X50429430Y-68722936D03*
X50781344Y-74340841D03*
X50843041Y-72974865D03*
X51482043Y-63828602D03*
X51878321Y-69111164D03*
X52517322Y-59964896D03*
X52622706Y-74543807D03*
X53046010Y-65888989D03*
X53172416Y-64281531D03*
X54052898Y-55199971D03*
X54111546Y-57654234D03*
X54207691Y-60417831D03*
X54753109Y-66429352D03*
X55088174Y-51336269D03*
X55440084Y-56954175D03*
X55501786Y-55588203D03*
X56179492Y-49936549D03*
X56537060Y-51724501D03*
X56793393Y-79745636D03*
X57080151Y-67052880D03*
X58087488Y-74916009D03*
X58242282Y-80133864D03*
X58955280Y-62984036D03*
X59122762Y-71052310D03*
X59233196Y-76605506D03*
X59536375Y-75304238D03*
X60175380Y-66157972D03*
X60571650Y-71440533D03*
X60632561Y-51098557D03*
X61342917Y-66470815D03*
X61632401Y-68189697D03*
X61673335Y-62765936D03*
X62419246Y-57182911D03*
X62457822Y-65536949D03*
X63389814Y-53560688D03*
X63485063Y-65015952D03*
X63548596Y-64018470D03*
X63855084Y-68276047D03*
X64133417Y-59283542D03*
X64259822Y-57676090D03*
X64521691Y-75869768D03*
X64785990Y-64375963D03*
X65230394Y-54053869D03*
X65380860Y-52132221D03*
X65819018Y-66139618D03*
X65929699Y-65146262D03*
X66084370Y-48501873D03*
X66359872Y-59733930D03*
X67359872Y-56391226D03*
X68655085Y-56176048D03*
X69334368Y-48501872D03*
X69437290Y-53809696D03*
X69634869Y-59251877D03*
X69634871Y-57576047D03*
X69742183Y-69251873D03*
X72334370Y-48501871D03*
X72852335Y-56268772D03*
X72919830Y-54933566D03*
X73584370Y-59251875D03*
X74251399Y-55894307D03*
X74336326Y-53432839D03*
X74555083Y-59676052D03*
X75226897Y-63468030D03*
X75291008Y-64487059D03*
X75919412Y-65264307D03*
X76084367Y-48501878D03*
X76206219Y-67214655D03*
X76251002Y-66207203D03*
X76584373Y-69251879D03*
X76754639Y-51392948D03*
X76950673Y-56651624D03*
X77289807Y-54215316D03*
X78100745Y-59314468D03*
X78350464Y-52378200D03*
X78425184Y-61350369D03*
X79531696Y-61757068D03*
X79945043Y-55849285D03*
X80430116Y-68007800D03*
X80744728Y-60795325D03*
X81649123Y-72458668D03*
X82759491Y-76701128D03*
X83833034Y-71873492D03*
X83978499Y-81152002D03*
X86162403Y-80566826D03*
X86794078Y-56985095D03*
X87341892Y-59027619D03*
X88587755Y-60878009D03*
X89123449Y-65678426D03*
X89438060Y-58465953D03*
X90342455Y-70129297D03*
X90481322Y-61315558D03*
X91296349Y-61894122D03*
X91452823Y-74371764D03*
X92381240Y-62056307D03*
X92526365Y-69544120D03*
X92712384Y-79070580D03*
X93070619Y-64652084D03*
X94886902Y-61384917D03*
X95161921Y-78414230D03*
X95177417Y-72901135D03*
X95582026Y-63979154D03*
X95728896Y-54591023D03*
X95745612Y-60725965D03*
X96689079Y-58075963D03*
X97816782Y-63349053D03*
X98268379Y-72072908D03*
X98390027Y-57620197D03*
X99011641Y-67806396D03*
X100146156Y-72042390D03*
X101219698Y-67214747D03*
X101405718Y-76741209D03*
X103855255Y-76084856D03*
X104422226Y-52261645D03*
X105358265Y-55753060D03*
X106681910Y-57893708D03*
X107148064Y-55532304D03*
X112874076Y-49996984D03*
X113834264Y-53481923D03*
X114950975Y-56299182D03*
X115776692Y-52961451D03*
D11*
%TO.C,J1*%
X66764366Y-46316875D03*
D12*
X66764366Y-50496875D03*
D11*
X75404366Y-46316875D03*
D12*
X75404366Y-50496875D03*
D13*
%TO.C,H1*%
X32330212Y-51817942D03*
%TO.C,H5*%
X45058133Y-73863350D03*
%TO.C,H6*%
X53751469Y-76192718D03*
%TO.C,H2*%
X58410208Y-58806057D03*
%TO.C,H3*%
X83774173Y-58806057D03*
%TO.C,H7*%
X88432913Y-76192723D03*
%TO.C,H8*%
X97126245Y-73863353D03*
%TO.C,H4*%
X109854168Y-51817947D03*
M02*
