<?xml version="1.0" standalone="no"?>
 <!DOCTYPE svg PUBLIC "-//W3C//DTD SVG 1.1//EN" 
 "http://www.w3.org/Graphics/SVG/1.1/DTD/svg11.dtd"> 
<svg
  xmlns:svg="http://www.w3.org/2000/svg"
  xmlns="http://www.w3.org/2000/svg"
  xmlns:xlink="http://www.w3.org/1999/xlink"
  version="1.1"
  width="297.0022mm" height="210.0072mm" viewBox="0.0000 0.0000 297.0022 210.0072">
<title>SVG Image created as idawgz32-NPTH-drl-drl_map.svg date 2024/02/24 18:47:45 </title>
  <desc>Image generated by PCBNEW </desc>
<g style="fill:#000000; fill-opacity:1.0000;stroke:#000000; stroke-opacity:1.0000;
stroke-linecap:round; stroke-linejoin:round;"
 transform="translate(0 0) scale(1 1)">
</g>
<g style="fill:#000000; fill-opacity:0.0; 
stroke:#000000; stroke-width:0.0000; stroke-opacity:1; 
stroke-linecap:round; stroke-linejoin:round;">
</g>
<g style="fill:#000000; fill-opacity:0.0; 
stroke:#000000; stroke-width:0.1273; stroke-opacity:1; 
stroke-linecap:round; stroke-linejoin:round;">
<path d="M125.4775 103.7288
L121.8767 117.1672
" />
<path d="M38.5479 5.2371 A5.0912 5.0912 0.0 0 0 32.3126 8.8371" />
<path d="M237.9136 105.6138
L181.3607 120.7671
" />
<path d="M38.5479 5.2371
L77.2416 15.6051
" />
<path d="M115.6414 120.7670 A5.0907 5.0907 0.0 0 0 121.8767 117.1672" />
<path d="M130.3951 99.9555 A5.0914 5.0914 0.0 0 0 125.4775 103.7288" />
<path d="M55.4885 99.3785
L64.7123 64.9550
" />
<path d="M64.7122 64.9550 A5.0912 5.0912 0.0 0 0 61.1123 58.7197" />
<path d="M237.9135 105.6137 A5.0911 5.0911 0.0 0 0 241.5135 99.3785" />
<path d="M175.1254 117.1671 A5.0906 5.0906 0.0 0 0 181.3607 120.7671" />
<path d="M77.2416 15.6051 A5.0932 5.0932 0.0 0 0 78.5593 15.7785" />
<path d="M218.4427 15.7785 A5.0919 5.0919 0.0 0 0 219.7604 15.6051" />
<path d="M264.6895 8.8371 A5.0914 5.0914 0.0 0 0 258.4541 5.2371" />
<path d="M270.3132 49.4959
L235.8897 58.7197
" />
<path d="M115.6414 120.7671
L59.0885 105.6138
" />
<path d="M166.6069 99.9554
L130.3951 99.9554
" />
<path d="M171.5246 103.7288 A5.0915 5.0915 0.0 0 0 166.6069 99.9554" />
<path d="M78.5593 15.7785
L218.4427 15.7786
" />
<path d="M264.6895 8.8371
L273.9132 43.2606
" />
<path d="M235.8897 58.7196 A5.0912 5.0912 0.0 0 0 232.2898 64.9550" />
<path d="M232.2898 64.9550
L241.5135 99.3785
" />
<path d="M270.3132 49.4959 A5.0912 5.0912 0.0 0 0 273.9132 43.2606" />
<path d="M219.7604 15.6051
L258.4541 5.2371
" />
<path d="M61.1123 58.7197
L26.6888 49.4959
" />
<path d="M23.0890 43.2606 A5.0913 5.0913 0.0 0 0 26.6888 49.4959" />
<path d="M55.4884 99.3785 A5.0912 5.0912 0.0 0 0 59.0885 105.6138" />
<path d="M23.0888 43.2606
L32.3126 8.8371
" />
<path d="M175.1253 117.1671
L171.5245 103.7288
" />
</g>
<g style="fill:#000000; fill-opacity:0.0; 
stroke:#000000; stroke-width:0.5091; stroke-opacity:1; 
stroke-linecap:round; stroke-linejoin:round;">
</g>
<g style="fill:#000000; fill-opacity:0.0; 
stroke:#000000; stroke-width:0.1655; stroke-opacity:1; 
stroke-linecap:round; stroke-linejoin:round;">
<path d="M140.2971 26.4391
L141.9517 28.0937
" />
<path d="M141.9517 26.4391
L140.2971 28.0937
" />
<path d="M155.0105 26.4391
L156.6651 28.0937
" />
<path d="M156.6651 26.4391
L155.0105 28.0937
" />
</g>
<g style="fill:#000000; fill-opacity:0.0; 
stroke:#000000; stroke-width:0.5091; stroke-opacity:1; 
stroke-linecap:round; stroke-linejoin:round;">
</g>
<g style="fill:#000000; fill-opacity:0.0; 
stroke:#000000; stroke-width:0.2000; stroke-opacity:1; 
stroke-linecap:round; stroke-linejoin:round;">
<text x="24.8519" y="124.2043"
textLength="14.8667" font-size="2.6667" lengthAdjust="spacingAndGlyphs"
text-anchor="start" opacity="0">Drill Map:</text>
<g class="stroked-text"><desc>Drill Map:</desc>
<path d="M25.4597 124.1192
L25.4597 122.1192
" />
<path d="M25.4597 122.1192
L25.9359 122.1192
" />
<path d="M25.9359 122.1192
L26.2216 122.2144
" />
<path d="M26.2216 122.2144
L26.4121 122.4049
" />
<path d="M26.4121 122.4049
L26.5073 122.5953
" />
<path d="M26.5073 122.5953
L26.6025 122.9763
" />
<path d="M26.6025 122.9763
L26.6025 123.2620
" />
<path d="M26.6025 123.2620
L26.5073 123.6430
" />
<path d="M26.5073 123.6430
L26.4121 123.8334
" />
<path d="M26.4121 123.8334
L26.2216 124.0239
" />
<path d="M26.2216 124.0239
L25.9359 124.1192
" />
<path d="M25.9359 124.1192
L25.4597 124.1192
" />
<path d="M27.4597 124.1192
L27.4597 122.7858
" />
<path d="M27.4597 123.1668
L27.5549 122.9763
" />
<path d="M27.5549 122.9763
L27.6502 122.8811
" />
<path d="M27.6502 122.8811
L27.8406 122.7858
" />
<path d="M27.8406 122.7858
L28.0311 122.7858
" />
<path d="M28.6978 124.1192
L28.6978 122.7858
" />
<path d="M28.6978 122.1192
L28.6025 122.2144
" />
<path d="M28.6025 122.2144
L28.6978 122.3096
" />
<path d="M28.6978 122.3096
L28.7930 122.2144
" />
<path d="M28.7930 122.2144
L28.6978 122.1192
" />
<path d="M28.6978 122.1192
L28.6978 122.3096
" />
<path d="M29.9359 124.1192
L29.7454 124.0239
" />
<path d="M29.7454 124.0239
L29.6502 123.8334
" />
<path d="M29.6502 123.8334
L29.6502 122.1192
" />
<path d="M30.9835 124.1192
L30.7930 124.0239
" />
<path d="M30.7930 124.0239
L30.6978 123.8334
" />
<path d="M30.6978 123.8334
L30.6978 122.1192
" />
<path d="M33.2692 124.1192
L33.2692 122.1192
" />
<path d="M33.2692 122.1192
L33.9359 123.5477
" />
<path d="M33.9359 123.5477
L34.6025 122.1192
" />
<path d="M34.6025 122.1192
L34.6025 124.1192
" />
<path d="M36.4121 124.1192
L36.4121 123.0715
" />
<path d="M36.4121 123.0715
L36.3168 122.8811
" />
<path d="M36.3168 122.8811
L36.1264 122.7858
" />
<path d="M36.1264 122.7858
L35.7454 122.7858
" />
<path d="M35.7454 122.7858
L35.5549 122.8811
" />
<path d="M36.4121 124.0239
L36.2216 124.1192
" />
<path d="M36.2216 124.1192
L35.7454 124.1192
" />
<path d="M35.7454 124.1192
L35.5549 124.0239
" />
<path d="M35.5549 124.0239
L35.4597 123.8334
" />
<path d="M35.4597 123.8334
L35.4597 123.6430
" />
<path d="M35.4597 123.6430
L35.5549 123.4525
" />
<path d="M35.5549 123.4525
L35.7454 123.3573
" />
<path d="M35.7454 123.3573
L36.2216 123.3573
" />
<path d="M36.2216 123.3573
L36.4121 123.2620
" />
<path d="M37.3645 122.7858
L37.3645 124.7858
" />
<path d="M37.3645 122.8811
L37.5549 122.7858
" />
<path d="M37.5549 122.7858
L37.9359 122.7858
" />
<path d="M37.9359 122.7858
L38.1264 122.8811
" />
<path d="M38.1264 122.8811
L38.2216 122.9763
" />
<path d="M38.2216 122.9763
L38.3168 123.1668
" />
<path d="M38.3168 123.1668
L38.3168 123.7382
" />
<path d="M38.3168 123.7382
L38.2216 123.9287
" />
<path d="M38.2216 123.9287
L38.1264 124.0239
" />
<path d="M38.1264 124.0239
L37.9359 124.1192
" />
<path d="M37.9359 124.1192
L37.5549 124.1192
" />
<path d="M37.5549 124.1192
L37.3645 124.0239
" />
<path d="M39.1740 123.9287
L39.2692 124.0239
" />
<path d="M39.2692 124.0239
L39.1740 124.1192
" />
<path d="M39.1740 124.1192
L39.0787 124.0239
" />
<path d="M39.0787 124.0239
L39.1740 123.9287
" />
<path d="M39.1740 123.9287
L39.1740 124.1192
" />
<path d="M39.1740 122.8811
L39.2692 122.9763
" />
<path d="M39.2692 122.9763
L39.1740 123.0715
" />
<path d="M39.1740 123.0715
L39.0787 122.9763
" />
<path d="M39.0787 122.9763
L39.1740 122.8811
" />
<path d="M39.1740 122.8811
L39.1740 123.0715
" />
</g></g>
<g style="fill:#000000; fill-opacity:0.0; 
stroke:#000000; stroke-width:0.1655; stroke-opacity:1; 
stroke-linecap:round; stroke-linejoin:round;">
<path d="M21.1973 126.5770
L22.8519 128.2316
" />
<path d="M22.8519 126.5770
L21.1973 128.2316
" />
</g>
<g style="fill:#000000; fill-opacity:0.0; 
stroke:#000000; stroke-width:0.5091; stroke-opacity:1; 
stroke-linecap:round; stroke-linejoin:round;">
</g>
<g style="fill:#000000; fill-opacity:0.0; 
stroke:#000000; stroke-width:0.2000; stroke-opacity:1; 
stroke-linecap:round; stroke-linejoin:round;">
<text x="24.8519" y="128.4043"
textLength="66.6762" font-size="2.6667" lengthAdjust="spacingAndGlyphs"
text-anchor="start" opacity="0">0.650mm / 0.0256" (2 holes) (not plated)</text>
<g class="stroked-text"><desc>0.650mm / 0.0256" (2 holes) (not plated)</desc>
<path d="M25.8406 126.3192
L26.0311 126.3192
" />
<path d="M26.0311 126.3192
L26.2216 126.4144
" />
<path d="M26.2216 126.4144
L26.3168 126.5096
" />
<path d="M26.3168 126.5096
L26.4121 126.7001
" />
<path d="M26.4121 126.7001
L26.5073 127.0811
" />
<path d="M26.5073 127.0811
L26.5073 127.5573
" />
<path d="M26.5073 127.5573
L26.4121 127.9382
" />
<path d="M26.4121 127.9382
L26.3168 128.1287
" />
<path d="M26.3168 128.1287
L26.2216 128.2239
" />
<path d="M26.2216 128.2239
L26.0311 128.3192
" />
<path d="M26.0311 128.3192
L25.8406 128.3192
" />
<path d="M25.8406 128.3192
L25.6502 128.2239
" />
<path d="M25.6502 128.2239
L25.5549 128.1287
" />
<path d="M25.5549 128.1287
L25.4597 127.9382
" />
<path d="M25.4597 127.9382
L25.3644 127.5573
" />
<path d="M25.3644 127.5573
L25.3644 127.0811
" />
<path d="M25.3644 127.0811
L25.4597 126.7001
" />
<path d="M25.4597 126.7001
L25.5549 126.5096
" />
<path d="M25.5549 126.5096
L25.6502 126.4144
" />
<path d="M25.6502 126.4144
L25.8406 126.3192
" />
<path d="M27.3644 128.1287
L27.4597 128.2239
" />
<path d="M27.4597 128.2239
L27.3644 128.3192
" />
<path d="M27.3644 128.3192
L27.2692 128.2239
" />
<path d="M27.2692 128.2239
L27.3644 128.1287
" />
<path d="M27.3644 128.1287
L27.3644 128.3192
" />
<path d="M29.1740 126.3192
L28.7930 126.3192
" />
<path d="M28.7930 126.3192
L28.6025 126.4144
" />
<path d="M28.6025 126.4144
L28.5073 126.5096
" />
<path d="M28.5073 126.5096
L28.3168 126.7953
" />
<path d="M28.3168 126.7953
L28.2216 127.1763
" />
<path d="M28.2216 127.1763
L28.2216 127.9382
" />
<path d="M28.2216 127.9382
L28.3168 128.1287
" />
<path d="M28.3168 128.1287
L28.4121 128.2239
" />
<path d="M28.4121 128.2239
L28.6025 128.3192
" />
<path d="M28.6025 128.3192
L28.9835 128.3192
" />
<path d="M28.9835 128.3192
L29.1740 128.2239
" />
<path d="M29.1740 128.2239
L29.2692 128.1287
" />
<path d="M29.2692 128.1287
L29.3644 127.9382
" />
<path d="M29.3644 127.9382
L29.3644 127.4620
" />
<path d="M29.3644 127.4620
L29.2692 127.2715
" />
<path d="M29.2692 127.2715
L29.1740 127.1763
" />
<path d="M29.1740 127.1763
L28.9835 127.0811
" />
<path d="M28.9835 127.0811
L28.6025 127.0811
" />
<path d="M28.6025 127.0811
L28.4121 127.1763
" />
<path d="M28.4121 127.1763
L28.3168 127.2715
" />
<path d="M28.3168 127.2715
L28.2216 127.4620
" />
<path d="M31.1740 126.3192
L30.2216 126.3192
" />
<path d="M30.2216 126.3192
L30.1264 127.2715
" />
<path d="M30.1264 127.2715
L30.2216 127.1763
" />
<path d="M30.2216 127.1763
L30.4121 127.0811
" />
<path d="M30.4121 127.0811
L30.8883 127.0811
" />
<path d="M30.8883 127.0811
L31.0787 127.1763
" />
<path d="M31.0787 127.1763
L31.1740 127.2715
" />
<path d="M31.1740 127.2715
L31.2692 127.4620
" />
<path d="M31.2692 127.4620
L31.2692 127.9382
" />
<path d="M31.2692 127.9382
L31.1740 128.1287
" />
<path d="M31.1740 128.1287
L31.0787 128.2239
" />
<path d="M31.0787 128.2239
L30.8883 128.3192
" />
<path d="M30.8883 128.3192
L30.4121 128.3192
" />
<path d="M30.4121 128.3192
L30.2216 128.2239
" />
<path d="M30.2216 128.2239
L30.1264 128.1287
" />
<path d="M32.5073 126.3192
L32.6978 126.3192
" />
<path d="M32.6978 126.3192
L32.8883 126.4144
" />
<path d="M32.8883 126.4144
L32.9835 126.5096
" />
<path d="M32.9835 126.5096
L33.0787 126.7001
" />
<path d="M33.0787 126.7001
L33.1740 127.0811
" />
<path d="M33.1740 127.0811
L33.1740 127.5573
" />
<path d="M33.1740 127.5573
L33.0787 127.9382
" />
<path d="M33.0787 127.9382
L32.9835 128.1287
" />
<path d="M32.9835 128.1287
L32.8883 128.2239
" />
<path d="M32.8883 128.2239
L32.6978 128.3192
" />
<path d="M32.6978 128.3192
L32.5073 128.3192
" />
<path d="M32.5073 128.3192
L32.3168 128.2239
" />
<path d="M32.3168 128.2239
L32.2216 128.1287
" />
<path d="M32.2216 128.1287
L32.1264 127.9382
" />
<path d="M32.1264 127.9382
L32.0311 127.5573
" />
<path d="M32.0311 127.5573
L32.0311 127.0811
" />
<path d="M32.0311 127.0811
L32.1264 126.7001
" />
<path d="M32.1264 126.7001
L32.2216 126.5096
" />
<path d="M32.2216 126.5096
L32.3168 126.4144
" />
<path d="M32.3168 126.4144
L32.5073 126.3192
" />
<path d="M34.0311 128.3192
L34.0311 126.9858
" />
<path d="M34.0311 127.1763
L34.1264 127.0811
" />
<path d="M34.1264 127.0811
L34.3168 126.9858
" />
<path d="M34.3168 126.9858
L34.6025 126.9858
" />
<path d="M34.6025 126.9858
L34.7930 127.0811
" />
<path d="M34.7930 127.0811
L34.8883 127.2715
" />
<path d="M34.8883 127.2715
L34.8883 128.3192
" />
<path d="M34.8883 127.2715
L34.9835 127.0811
" />
<path d="M34.9835 127.0811
L35.1740 126.9858
" />
<path d="M35.1740 126.9858
L35.4597 126.9858
" />
<path d="M35.4597 126.9858
L35.6502 127.0811
" />
<path d="M35.6502 127.0811
L35.7454 127.2715
" />
<path d="M35.7454 127.2715
L35.7454 128.3192
" />
<path d="M36.6978 128.3192
L36.6978 126.9858
" />
<path d="M36.6978 127.1763
L36.7930 127.0811
" />
<path d="M36.7930 127.0811
L36.9835 126.9858
" />
<path d="M36.9835 126.9858
L37.2692 126.9858
" />
<path d="M37.2692 126.9858
L37.4597 127.0811
" />
<path d="M37.4597 127.0811
L37.5549 127.2715
" />
<path d="M37.5549 127.2715
L37.5549 128.3192
" />
<path d="M37.5549 127.2715
L37.6502 127.0811
" />
<path d="M37.6502 127.0811
L37.8406 126.9858
" />
<path d="M37.8406 126.9858
L38.1264 126.9858
" />
<path d="M38.1264 126.9858
L38.3168 127.0811
" />
<path d="M38.3168 127.0811
L38.4121 127.2715
" />
<path d="M38.4121 127.2715
L38.4121 128.3192
" />
<path d="M42.3168 126.2239
L40.6025 128.7953
" />
<path d="M44.8883 126.3192
L45.0787 126.3192
" />
<path d="M45.0787 126.3192
L45.2692 126.4144
" />
<path d="M45.2692 126.4144
L45.3645 126.5096
" />
<path d="M45.3645 126.5096
L45.4597 126.7001
" />
<path d="M45.4597 126.7001
L45.5549 127.0811
" />
<path d="M45.5549 127.0811
L45.5549 127.5573
" />
<path d="M45.5549 127.5573
L45.4597 127.9382
" />
<path d="M45.4597 127.9382
L45.3645 128.1287
" />
<path d="M45.3645 128.1287
L45.2692 128.2239
" />
<path d="M45.2692 128.2239
L45.0787 128.3192
" />
<path d="M45.0787 128.3192
L44.8883 128.3192
" />
<path d="M44.8883 128.3192
L44.6978 128.2239
" />
<path d="M44.6978 128.2239
L44.6025 128.1287
" />
<path d="M44.6025 128.1287
L44.5073 127.9382
" />
<path d="M44.5073 127.9382
L44.4121 127.5573
" />
<path d="M44.4121 127.5573
L44.4121 127.0811
" />
<path d="M44.4121 127.0811
L44.5073 126.7001
" />
<path d="M44.5073 126.7001
L44.6025 126.5096
" />
<path d="M44.6025 126.5096
L44.6978 126.4144
" />
<path d="M44.6978 126.4144
L44.8883 126.3192
" />
<path d="M46.4121 128.1287
L46.5073 128.2239
" />
<path d="M46.5073 128.2239
L46.4121 128.3192
" />
<path d="M46.4121 128.3192
L46.3168 128.2239
" />
<path d="M46.3168 128.2239
L46.4121 128.1287
" />
<path d="M46.4121 128.1287
L46.4121 128.3192
" />
<path d="M47.7454 126.3192
L47.9359 126.3192
" />
<path d="M47.9359 126.3192
L48.1264 126.4144
" />
<path d="M48.1264 126.4144
L48.2216 126.5096
" />
<path d="M48.2216 126.5096
L48.3168 126.7001
" />
<path d="M48.3168 126.7001
L48.4121 127.0811
" />
<path d="M48.4121 127.0811
L48.4121 127.5573
" />
<path d="M48.4121 127.5573
L48.3168 127.9382
" />
<path d="M48.3168 127.9382
L48.2216 128.1287
" />
<path d="M48.2216 128.1287
L48.1264 128.2239
" />
<path d="M48.1264 128.2239
L47.9359 128.3192
" />
<path d="M47.9359 128.3192
L47.7454 128.3192
" />
<path d="M47.7454 128.3192
L47.5549 128.2239
" />
<path d="M47.5549 128.2239
L47.4597 128.1287
" />
<path d="M47.4597 128.1287
L47.3645 127.9382
" />
<path d="M47.3645 127.9382
L47.2692 127.5573
" />
<path d="M47.2692 127.5573
L47.2692 127.0811
" />
<path d="M47.2692 127.0811
L47.3645 126.7001
" />
<path d="M47.3645 126.7001
L47.4597 126.5096
" />
<path d="M47.4597 126.5096
L47.5549 126.4144
" />
<path d="M47.5549 126.4144
L47.7454 126.3192
" />
<path d="M49.1740 126.5096
L49.2692 126.4144
" />
<path d="M49.2692 126.4144
L49.4597 126.3192
" />
<path d="M49.4597 126.3192
L49.9359 126.3192
" />
<path d="M49.9359 126.3192
L50.1264 126.4144
" />
<path d="M50.1264 126.4144
L50.2216 126.5096
" />
<path d="M50.2216 126.5096
L50.3168 126.7001
" />
<path d="M50.3168 126.7001
L50.3168 126.8906
" />
<path d="M50.3168 126.8906
L50.2216 127.1763
" />
<path d="M50.2216 127.1763
L49.0787 128.3192
" />
<path d="M49.0787 128.3192
L50.3168 128.3192
" />
<path d="M52.1264 126.3192
L51.1740 126.3192
" />
<path d="M51.1740 126.3192
L51.0787 127.2715
" />
<path d="M51.0787 127.2715
L51.1740 127.1763
" />
<path d="M51.1740 127.1763
L51.3645 127.0811
" />
<path d="M51.3645 127.0811
L51.8406 127.0811
" />
<path d="M51.8406 127.0811
L52.0311 127.1763
" />
<path d="M52.0311 127.1763
L52.1264 127.2715
" />
<path d="M52.1264 127.2715
L52.2216 127.4620
" />
<path d="M52.2216 127.4620
L52.2216 127.9382
" />
<path d="M52.2216 127.9382
L52.1264 128.1287
" />
<path d="M52.1264 128.1287
L52.0311 128.2239
" />
<path d="M52.0311 128.2239
L51.8406 128.3192
" />
<path d="M51.8406 128.3192
L51.3645 128.3192
" />
<path d="M51.3645 128.3192
L51.1740 128.2239
" />
<path d="M51.1740 128.2239
L51.0787 128.1287
" />
<path d="M53.9359 126.3192
L53.5549 126.3192
" />
<path d="M53.5549 126.3192
L53.3645 126.4144
" />
<path d="M53.3645 126.4144
L53.2692 126.5096
" />
<path d="M53.2692 126.5096
L53.0787 126.7953
" />
<path d="M53.0787 126.7953
L52.9835 127.1763
" />
<path d="M52.9835 127.1763
L52.9835 127.9382
" />
<path d="M52.9835 127.9382
L53.0787 128.1287
" />
<path d="M53.0787 128.1287
L53.1740 128.2239
" />
<path d="M53.1740 128.2239
L53.3645 128.3192
" />
<path d="M53.3645 128.3192
L53.7454 128.3192
" />
<path d="M53.7454 128.3192
L53.9359 128.2239
" />
<path d="M53.9359 128.2239
L54.0311 128.1287
" />
<path d="M54.0311 128.1287
L54.1264 127.9382
" />
<path d="M54.1264 127.9382
L54.1264 127.4620
" />
<path d="M54.1264 127.4620
L54.0311 127.2715
" />
<path d="M54.0311 127.2715
L53.9359 127.1763
" />
<path d="M53.9359 127.1763
L53.7454 127.0811
" />
<path d="M53.7454 127.0811
L53.3645 127.0811
" />
<path d="M53.3645 127.0811
L53.1740 127.1763
" />
<path d="M53.1740 127.1763
L53.0787 127.2715
" />
<path d="M53.0787 127.2715
L52.9835 127.4620
" />
<path d="M54.8883 126.3192
L54.8883 126.7001
" />
<path d="M55.6502 126.3192
L55.6502 126.7001
" />
<path d="M58.6026 129.0811
L58.5073 128.9858
" />
<path d="M58.5073 128.9858
L58.3168 128.7001
" />
<path d="M58.3168 128.7001
L58.2216 128.5096
" />
<path d="M58.2216 128.5096
L58.1264 128.2239
" />
<path d="M58.1264 128.2239
L58.0311 127.7477
" />
<path d="M58.0311 127.7477
L58.0311 127.3668
" />
<path d="M58.0311 127.3668
L58.1264 126.8906
" />
<path d="M58.1264 126.8906
L58.2216 126.6049
" />
<path d="M58.2216 126.6049
L58.3168 126.4144
" />
<path d="M58.3168 126.4144
L58.5073 126.1287
" />
<path d="M58.5073 126.1287
L58.6026 126.0334
" />
<path d="M59.2692 126.5096
L59.3645 126.4144
" />
<path d="M59.3645 126.4144
L59.5549 126.3192
" />
<path d="M59.5549 126.3192
L60.0311 126.3192
" />
<path d="M60.0311 126.3192
L60.2216 126.4144
" />
<path d="M60.2216 126.4144
L60.3168 126.5096
" />
<path d="M60.3168 126.5096
L60.4121 126.7001
" />
<path d="M60.4121 126.7001
L60.4121 126.8906
" />
<path d="M60.4121 126.8906
L60.3168 127.1763
" />
<path d="M60.3168 127.1763
L59.1740 128.3192
" />
<path d="M59.1740 128.3192
L60.4121 128.3192
" />
<path d="M62.7930 128.3192
L62.7930 126.3192
" />
<path d="M63.6502 128.3192
L63.6502 127.2715
" />
<path d="M63.6502 127.2715
L63.5549 127.0811
" />
<path d="M63.5549 127.0811
L63.3645 126.9858
" />
<path d="M63.3645 126.9858
L63.0787 126.9858
" />
<path d="M63.0787 126.9858
L62.8883 127.0811
" />
<path d="M62.8883 127.0811
L62.7930 127.1763
" />
<path d="M64.8883 128.3192
L64.6978 128.2239
" />
<path d="M64.6978 128.2239
L64.6026 128.1287
" />
<path d="M64.6026 128.1287
L64.5073 127.9382
" />
<path d="M64.5073 127.9382
L64.5073 127.3668
" />
<path d="M64.5073 127.3668
L64.6026 127.1763
" />
<path d="M64.6026 127.1763
L64.6978 127.0811
" />
<path d="M64.6978 127.0811
L64.8883 126.9858
" />
<path d="M64.8883 126.9858
L65.1740 126.9858
" />
<path d="M65.1740 126.9858
L65.3645 127.0811
" />
<path d="M65.3645 127.0811
L65.4597 127.1763
" />
<path d="M65.4597 127.1763
L65.5549 127.3668
" />
<path d="M65.5549 127.3668
L65.5549 127.9382
" />
<path d="M65.5549 127.9382
L65.4597 128.1287
" />
<path d="M65.4597 128.1287
L65.3645 128.2239
" />
<path d="M65.3645 128.2239
L65.1740 128.3192
" />
<path d="M65.1740 128.3192
L64.8883 128.3192
" />
<path d="M66.6978 128.3192
L66.5073 128.2239
" />
<path d="M66.5073 128.2239
L66.4121 128.0334
" />
<path d="M66.4121 128.0334
L66.4121 126.3192
" />
<path d="M68.2216 128.2239
L68.0311 128.3192
" />
<path d="M68.0311 128.3192
L67.6502 128.3192
" />
<path d="M67.6502 128.3192
L67.4597 128.2239
" />
<path d="M67.4597 128.2239
L67.3645 128.0334
" />
<path d="M67.3645 128.0334
L67.3645 127.2715
" />
<path d="M67.3645 127.2715
L67.4597 127.0811
" />
<path d="M67.4597 127.0811
L67.6502 126.9858
" />
<path d="M67.6502 126.9858
L68.0311 126.9858
" />
<path d="M68.0311 126.9858
L68.2216 127.0811
" />
<path d="M68.2216 127.0811
L68.3168 127.2715
" />
<path d="M68.3168 127.2715
L68.3168 127.4620
" />
<path d="M68.3168 127.4620
L67.3645 127.6525
" />
<path d="M69.0787 128.2239
L69.2692 128.3192
" />
<path d="M69.2692 128.3192
L69.6502 128.3192
" />
<path d="M69.6502 128.3192
L69.8407 128.2239
" />
<path d="M69.8407 128.2239
L69.9359 128.0334
" />
<path d="M69.9359 128.0334
L69.9359 127.9382
" />
<path d="M69.9359 127.9382
L69.8407 127.7477
" />
<path d="M69.8407 127.7477
L69.6502 127.6525
" />
<path d="M69.6502 127.6525
L69.3645 127.6525
" />
<path d="M69.3645 127.6525
L69.1740 127.5573
" />
<path d="M69.1740 127.5573
L69.0787 127.3668
" />
<path d="M69.0787 127.3668
L69.0787 127.2715
" />
<path d="M69.0787 127.2715
L69.1740 127.0811
" />
<path d="M69.1740 127.0811
L69.3645 126.9858
" />
<path d="M69.3645 126.9858
L69.6502 126.9858
" />
<path d="M69.6502 126.9858
L69.8407 127.0811
" />
<path d="M70.6026 129.0811
L70.6978 128.9858
" />
<path d="M70.6978 128.9858
L70.8883 128.7001
" />
<path d="M70.8883 128.7001
L70.9835 128.5096
" />
<path d="M70.9835 128.5096
L71.0787 128.2239
" />
<path d="M71.0787 128.2239
L71.1740 127.7477
" />
<path d="M71.1740 127.7477
L71.1740 127.3668
" />
<path d="M71.1740 127.3668
L71.0787 126.8906
" />
<path d="M71.0787 126.8906
L70.9835 126.6049
" />
<path d="M70.9835 126.6049
L70.8883 126.4144
" />
<path d="M70.8883 126.4144
L70.6978 126.1287
" />
<path d="M70.6978 126.1287
L70.6026 126.0334
" />
<path d="M74.2216 129.0811
L74.1264 128.9858
" />
<path d="M74.1264 128.9858
L73.9359 128.7001
" />
<path d="M73.9359 128.7001
L73.8407 128.5096
" />
<path d="M73.8407 128.5096
L73.7454 128.2239
" />
<path d="M73.7454 128.2239
L73.6502 127.7477
" />
<path d="M73.6502 127.7477
L73.6502 127.3668
" />
<path d="M73.6502 127.3668
L73.7454 126.8906
" />
<path d="M73.7454 126.8906
L73.8407 126.6049
" />
<path d="M73.8407 126.6049
L73.9359 126.4144
" />
<path d="M73.9359 126.4144
L74.1264 126.1287
" />
<path d="M74.1264 126.1287
L74.2216 126.0334
" />
<path d="M74.9835 126.9858
L74.9835 128.3192
" />
<path d="M74.9835 127.1763
L75.0787 127.0811
" />
<path d="M75.0787 127.0811
L75.2692 126.9858
" />
<path d="M75.2692 126.9858
L75.5549 126.9858
" />
<path d="M75.5549 126.9858
L75.7454 127.0811
" />
<path d="M75.7454 127.0811
L75.8407 127.2715
" />
<path d="M75.8407 127.2715
L75.8407 128.3192
" />
<path d="M77.0787 128.3192
L76.8883 128.2239
" />
<path d="M76.8883 128.2239
L76.7930 128.1287
" />
<path d="M76.7930 128.1287
L76.6978 127.9382
" />
<path d="M76.6978 127.9382
L76.6978 127.3668
" />
<path d="M76.6978 127.3668
L76.7930 127.1763
" />
<path d="M76.7930 127.1763
L76.8883 127.0811
" />
<path d="M76.8883 127.0811
L77.0787 126.9858
" />
<path d="M77.0787 126.9858
L77.3645 126.9858
" />
<path d="M77.3645 126.9858
L77.5549 127.0811
" />
<path d="M77.5549 127.0811
L77.6502 127.1763
" />
<path d="M77.6502 127.1763
L77.7454 127.3668
" />
<path d="M77.7454 127.3668
L77.7454 127.9382
" />
<path d="M77.7454 127.9382
L77.6502 128.1287
" />
<path d="M77.6502 128.1287
L77.5549 128.2239
" />
<path d="M77.5549 128.2239
L77.3645 128.3192
" />
<path d="M77.3645 128.3192
L77.0787 128.3192
" />
<path d="M78.3168 126.9858
L79.0787 126.9858
" />
<path d="M78.6026 126.3192
L78.6026 128.0334
" />
<path d="M78.6026 128.0334
L78.6978 128.2239
" />
<path d="M78.6978 128.2239
L78.8883 128.3192
" />
<path d="M78.8883 128.3192
L79.0787 128.3192
" />
<path d="M81.2692 126.9858
L81.2692 128.9858
" />
<path d="M81.2692 127.0811
L81.4597 126.9858
" />
<path d="M81.4597 126.9858
L81.8407 126.9858
" />
<path d="M81.8407 126.9858
L82.0311 127.0811
" />
<path d="M82.0311 127.0811
L82.1264 127.1763
" />
<path d="M82.1264 127.1763
L82.2216 127.3668
" />
<path d="M82.2216 127.3668
L82.2216 127.9382
" />
<path d="M82.2216 127.9382
L82.1264 128.1287
" />
<path d="M82.1264 128.1287
L82.0311 128.2239
" />
<path d="M82.0311 128.2239
L81.8407 128.3192
" />
<path d="M81.8407 128.3192
L81.4597 128.3192
" />
<path d="M81.4597 128.3192
L81.2692 128.2239
" />
<path d="M83.3645 128.3192
L83.1740 128.2239
" />
<path d="M83.1740 128.2239
L83.0788 128.0334
" />
<path d="M83.0788 128.0334
L83.0788 126.3192
" />
<path d="M84.9835 128.3192
L84.9835 127.2715
" />
<path d="M84.9835 127.2715
L84.8883 127.0811
" />
<path d="M84.8883 127.0811
L84.6978 126.9858
" />
<path d="M84.6978 126.9858
L84.3168 126.9858
" />
<path d="M84.3168 126.9858
L84.1264 127.0811
" />
<path d="M84.9835 128.2239
L84.7930 128.3192
" />
<path d="M84.7930 128.3192
L84.3168 128.3192
" />
<path d="M84.3168 128.3192
L84.1264 128.2239
" />
<path d="M84.1264 128.2239
L84.0311 128.0334
" />
<path d="M84.0311 128.0334
L84.0311 127.8430
" />
<path d="M84.0311 127.8430
L84.1264 127.6525
" />
<path d="M84.1264 127.6525
L84.3168 127.5573
" />
<path d="M84.3168 127.5573
L84.7930 127.5573
" />
<path d="M84.7930 127.5573
L84.9835 127.4620
" />
<path d="M85.6502 126.9858
L86.4121 126.9858
" />
<path d="M85.9359 126.3192
L85.9359 128.0334
" />
<path d="M85.9359 128.0334
L86.0311 128.2239
" />
<path d="M86.0311 128.2239
L86.2216 128.3192
" />
<path d="M86.2216 128.3192
L86.4121 128.3192
" />
<path d="M87.8407 128.2239
L87.6502 128.3192
" />
<path d="M87.6502 128.3192
L87.2692 128.3192
" />
<path d="M87.2692 128.3192
L87.0788 128.2239
" />
<path d="M87.0788 128.2239
L86.9835 128.0334
" />
<path d="M86.9835 128.0334
L86.9835 127.2715
" />
<path d="M86.9835 127.2715
L87.0788 127.0811
" />
<path d="M87.0788 127.0811
L87.2692 126.9858
" />
<path d="M87.2692 126.9858
L87.6502 126.9858
" />
<path d="M87.6502 126.9858
L87.8407 127.0811
" />
<path d="M87.8407 127.0811
L87.9359 127.2715
" />
<path d="M87.9359 127.2715
L87.9359 127.4620
" />
<path d="M87.9359 127.4620
L86.9835 127.6525
" />
<path d="M89.6502 128.3192
L89.6502 126.3192
" />
<path d="M89.6502 128.2239
L89.4597 128.3192
" />
<path d="M89.4597 128.3192
L89.0788 128.3192
" />
<path d="M89.0788 128.3192
L88.8883 128.2239
" />
<path d="M88.8883 128.2239
L88.7930 128.1287
" />
<path d="M88.7930 128.1287
L88.6978 127.9382
" />
<path d="M88.6978 127.9382
L88.6978 127.3668
" />
<path d="M88.6978 127.3668
L88.7930 127.1763
" />
<path d="M88.7930 127.1763
L88.8883 127.0811
" />
<path d="M88.8883 127.0811
L89.0788 126.9858
" />
<path d="M89.0788 126.9858
L89.4597 126.9858
" />
<path d="M89.4597 126.9858
L89.6502 127.0811
" />
<path d="M90.4121 129.0811
L90.5073 128.9858
" />
<path d="M90.5073 128.9858
L90.6978 128.7001
" />
<path d="M90.6978 128.7001
L90.7930 128.5096
" />
<path d="M90.7930 128.5096
L90.8883 128.2239
" />
<path d="M90.8883 128.2239
L90.9835 127.7477
" />
<path d="M90.9835 127.7477
L90.9835 127.3668
" />
<path d="M90.9835 127.3668
L90.8883 126.8906
" />
<path d="M90.8883 126.8906
L90.7930 126.6049
" />
<path d="M90.7930 126.6049
L90.6978 126.4144
" />
<path d="M90.6978 126.4144
L90.5073 126.1287
" />
<path d="M90.5073 126.1287
L90.4121 126.0334
" />
</g></g> 
</svg>
