%TF.GenerationSoftware,KiCad,Pcbnew,7.0.8*%
%TF.CreationDate,2024-01-22T23:57:32-06:00*%
%TF.ProjectId,idawgz32,69646177-677a-4333-922e-6b696361645f,rev?*%
%TF.SameCoordinates,Original*%
%TF.FileFunction,Plated,1,2,PTH,Mixed*%
%TF.FilePolarity,Positive*%
%FSLAX46Y46*%
G04 Gerber Fmt 4.6, Leading zero omitted, Abs format (unit mm)*
G04 Created by KiCad (PCBNEW 7.0.8) date 2024-01-22 23:57:32*
%MOMM*%
%LPD*%
G01*
G04 APERTURE LIST*
%TA.AperFunction,ViaDrill*%
%ADD10C,0.400000*%
%TD*%
G04 aperture for slot hole*
%TA.AperFunction,ComponentDrill*%
%ADD11O,0.600000X1.200000*%
%TD*%
G04 aperture for slot hole*
%TA.AperFunction,ComponentDrill*%
%ADD12O,0.600000X1.700000*%
%TD*%
%TA.AperFunction,ComponentDrill*%
%ADD13C,2.000000*%
%TD*%
G04 APERTURE END LIST*
D10*
X28412247Y-49283573D03*
X29689006Y-45484577D03*
X30983101Y-40654949D03*
X32018377Y-36791244D03*
X32275954Y-50318854D03*
X33557355Y-42638812D03*
X34195111Y-47986080D03*
X34605323Y-41625519D03*
X35640598Y-37761817D03*
X36494641Y-39270511D03*
X37347061Y-51677652D03*
X38382340Y-47813947D03*
X39676434Y-42984318D03*
X40953192Y-39185321D03*
X40969283Y-52648222D03*
X42250688Y-44968186D03*
X42416927Y-67529984D03*
X42888446Y-50315450D03*
X43298656Y-43954890D03*
X43711022Y-62700355D03*
X44092450Y-40026484D03*
X44746298Y-58836652D03*
X45989626Y-42605379D03*
X46040395Y-54007021D03*
X46220573Y-64925703D03*
X46923032Y-70031485D03*
X47075673Y-50143318D03*
X47333247Y-63670927D03*
X48369766Y-45313693D03*
X48485238Y-56473849D03*
X49187701Y-61579634D03*
X49405041Y-41449987D03*
X49662615Y-54977594D03*
X50637830Y-47474331D03*
X51110261Y-69859354D03*
X51581776Y-52644820D03*
X51991986Y-46284259D03*
X52645836Y-65094430D03*
X53027265Y-42420558D03*
X53439631Y-61166025D03*
X54523399Y-45508678D03*
X54733726Y-56336394D03*
X54913904Y-67255075D03*
X55616366Y-72360858D03*
X55769002Y-52472691D03*
X55785096Y-65935594D03*
X57063097Y-47643061D03*
X57178570Y-58803222D03*
X57945736Y-63667528D03*
X58339857Y-43844064D03*
X58355950Y-57306966D03*
X59572646Y-49868408D03*
X59803594Y-72188727D03*
X60275108Y-54974192D03*
X60685320Y-48613632D03*
X61097688Y-67359100D03*
X61720596Y-44749930D03*
X62374449Y-63560103D03*
X63365753Y-69519739D03*
X63427057Y-58665769D03*
X64309699Y-74690229D03*
X64462336Y-54802064D03*
X64719909Y-68329668D03*
X64765121Y-44012794D03*
X65756432Y-49972432D03*
X65764960Y-61103936D03*
X65805897Y-55680172D03*
X66505015Y-70360898D03*
X66590383Y-58451186D03*
X66639071Y-65996900D03*
X66791707Y-46108729D03*
X66849074Y-57485739D03*
X67049281Y-59636339D03*
X68265980Y-52197778D03*
X68582742Y-54777321D03*
X68654251Y-68784005D03*
X68968441Y-57303564D03*
X69378651Y-50943005D03*
X69513420Y-45046458D03*
X69951581Y-59053853D03*
X70062260Y-58060496D03*
X70216929Y-41416109D03*
X70413928Y-47079300D03*
X70427182Y-57129996D03*
X70492430Y-52648160D03*
X70512508Y-56134141D03*
X71492430Y-49305462D03*
X72298195Y-48623248D03*
X72941427Y-50416106D03*
X72966928Y-47166108D03*
X73466927Y-41416109D03*
X73576973Y-52239643D03*
X73874742Y-62166107D03*
X76466929Y-41416109D03*
X76984895Y-49183006D03*
X77052390Y-47847799D03*
X77716929Y-52166109D03*
X78716929Y-50166111D03*
X79950047Y-56182916D03*
X79973056Y-57182154D03*
X80051971Y-58178540D03*
X80216927Y-41416111D03*
X80326839Y-47045520D03*
X80383563Y-59121436D03*
X80688166Y-60073392D03*
X80716930Y-62166111D03*
X80887198Y-44307181D03*
X81120633Y-50973928D03*
X82233306Y-52228701D03*
X82656211Y-55738851D03*
X83466099Y-46204357D03*
X83664257Y-54671305D03*
X83691487Y-59602556D03*
X84562677Y-60922035D03*
X84742857Y-50003356D03*
X84985584Y-64432187D03*
X86020858Y-68295888D03*
X86036952Y-54832987D03*
X86892050Y-69615367D03*
X87072226Y-58696688D03*
X87314953Y-73125517D03*
X88350231Y-76989219D03*
X88366323Y-63526317D03*
X88778690Y-44780853D03*
X89401600Y-67390019D03*
X89813966Y-48644556D03*
X90695694Y-72219651D03*
X90926639Y-49899331D03*
X91349542Y-53409481D03*
X91730971Y-76083355D03*
X92384820Y-57273183D03*
X92400913Y-43810282D03*
X92720318Y-53792242D03*
X93256012Y-58592662D03*
X93436190Y-47673985D03*
X93678915Y-62102813D03*
X94714191Y-65966516D03*
X94730283Y-52503614D03*
X95585383Y-67285996D03*
X95765561Y-56367319D03*
X96008286Y-70796147D03*
X97043562Y-74659848D03*
X97059655Y-61196948D03*
X97472026Y-42451482D03*
X98094933Y-65060650D03*
X98507299Y-46315184D03*
X99389027Y-69890279D03*
X99861454Y-47505256D03*
X100042874Y-51080109D03*
X100424302Y-73753981D03*
X101078152Y-54943813D03*
X101335725Y-41416205D03*
X101815287Y-51899287D03*
X101949343Y-56263291D03*
X102129520Y-45344615D03*
X102372248Y-59773441D03*
X103407524Y-63637145D03*
X103423616Y-50174244D03*
X104278715Y-64956624D03*
X104458893Y-54037946D03*
X104701618Y-68466774D03*
X105511506Y-58932279D03*
X105736896Y-72330479D03*
X106165356Y-40122110D03*
X106546781Y-62795984D03*
X107442113Y-43921110D03*
X107840876Y-67625613D03*
X108554786Y-45175880D03*
X108736208Y-48750738D03*
X108876154Y-71489316D03*
X109771483Y-52614442D03*
X109787577Y-39151539D03*
X110814468Y-50807944D03*
X110822853Y-43015241D03*
X111875468Y-47909575D03*
X112910744Y-51773279D03*
X114858686Y-37792738D03*
X116135446Y-41591738D03*
X117006635Y-42911217D03*
X117429541Y-46421368D03*
X118464816Y-50285069D03*
X118480909Y-36822169D03*
X119083534Y-49213419D03*
X119516185Y-40685871D03*
X120810279Y-45515500D03*
X121845558Y-49379203D03*
D11*
%TO.C,J1*%
X70896927Y-39231110D03*
D12*
X70896927Y-43411110D03*
D11*
X79536927Y-39231110D03*
D12*
X79536927Y-43411110D03*
D13*
%TO.C,H1*%
X36462770Y-44732178D03*
%TO.C,H5*%
X49190693Y-66777586D03*
%TO.C,H6*%
X57884029Y-69106956D03*
%TO.C,H2*%
X62542768Y-51720294D03*
%TO.C,H3*%
X87906733Y-51720292D03*
%TO.C,H7*%
X92565475Y-69106957D03*
%TO.C,H8*%
X101258808Y-66777589D03*
%TO.C,H4*%
X113986730Y-44732180D03*
M02*
