<?xml version="1.0" standalone="no"?>
 <!DOCTYPE svg PUBLIC "-//W3C//DTD SVG 1.1//EN" 
 "http://www.w3.org/Graphics/SVG/1.1/DTD/svg11.dtd"> 
<svg
  xmlns:svg="http://www.w3.org/2000/svg"
  xmlns="http://www.w3.org/2000/svg"
  xmlns:xlink="http://www.w3.org/1999/xlink"
  version="1.1"
  width="297.0022mm" height="210.0072mm" viewBox="0.0000 0.0000 297.0022 210.0072">
<title>SVG Image created as idawgz32-NPTH-drl-drl_map.svg date 2024/01/22 23:57:32 </title>
  <desc>Image generated by PCBNEW </desc>
<g style="fill:#000000; fill-opacity:1.0000;stroke:#000000; stroke-opacity:1.0000;
stroke-linecap:round; stroke-linejoin:round;"
 transform="translate(0 0) scale(1 1)">
</g>
<g style="fill:#000000; fill-opacity:0.0; 
stroke:#000000; stroke-width:0.0000; stroke-opacity:1; 
stroke-linecap:round; stroke-linejoin:round;">
</g>
<g style="fill:#000000; fill-opacity:0.0; 
stroke:#000000; stroke-width:0.1273; stroke-opacity:1; 
stroke-linecap:round; stroke-linejoin:round;">
<path d="M125.4775 103.7288
L121.8767 117.1671
" />
<path d="M38.5479 5.2371 A5.0911 5.0911 0.0 0 0 32.3126 8.8371" />
<path d="M237.9136 105.6138
L181.3607 120.7671
" />
<path d="M38.5480 5.2371
L77.2417 15.6050
" />
<path d="M115.6414 120.7672 A5.0909 5.0909 0.0 0 0 121.8767 117.1671" />
<path d="M130.3952 99.9555 A5.0912 5.0912 0.0 0 0 125.4775 103.7288" />
<path d="M55.4886 99.3784
L64.7123 64.9549
" />
<path d="M64.7123 64.9549 A5.0912 5.0912 0.0 0 0 61.1124 58.7196" />
<path d="M237.9136 105.6137 A5.0911 5.0911 0.0 0 0 241.5136 99.3785" />
<path d="M175.1253 117.1671 A5.0908 5.0908 0.0 0 0 181.3607 120.7671" />
<path d="M77.2417 15.6050 A5.0911 5.0911 0.0 0 0 78.5594 15.7785" />
<path d="M218.4428 15.7785 A5.0898 5.0898 0.0 0 0 219.7604 15.6050" />
<path d="M264.6894 8.8371 A5.0912 5.0912 0.0 0 0 258.4542 5.2371" />
<path d="M270.3133 49.4959
L235.8898 58.7196
" />
<path d="M115.6414 120.7671
L59.0885 105.6138
" />
<path d="M166.6070 99.9554
L130.3952 99.9554
" />
<path d="M171.5244 103.7288 A5.0911 5.0911 0.0 0 0 166.6070 99.9554" />
<path d="M78.5594 15.7785
L218.4428 15.7785
" />
<path d="M264.6895 8.8371
L273.9132 43.2606
" />
<path d="M235.8898 58.7195 A5.0913 5.0913 0.0 0 0 232.2898 64.9550" />
<path d="M232.2898 64.9550
L241.5136 99.3785
" />
<path d="M270.3133 49.4958 A5.0911 5.0911 0.0 0 0 273.9132 43.2606" />
<path d="M219.7604 15.6050
L258.4542 5.2371
" />
<path d="M61.1124 58.7196
L26.6888 49.4959
" />
<path d="M23.0890 43.2606 A5.0912 5.0912 0.0 0 0 26.6889 49.4959" />
<path d="M55.4886 99.3784 A5.0912 5.0912 0.0 0 0 59.0885 105.6138" />
<path d="M23.0889 43.2606
L32.3126 8.8371
" />
<path d="M175.1254 117.1671
L171.5246 103.7288
" />
</g>
<g style="fill:#000000; fill-opacity:0.0; 
stroke:#000000; stroke-width:0.5091; stroke-opacity:1; 
stroke-linecap:round; stroke-linejoin:round;">
</g>
<g style="fill:#000000; fill-opacity:0.0; 
stroke:#000000; stroke-width:0.1655; stroke-opacity:1; 
stroke-linecap:round; stroke-linejoin:round;">
<path d="M140.2972 26.4390
L141.9518 28.0937
" />
<path d="M141.9518 26.4390
L140.2972 28.0937
" />
<path d="M155.0105 26.4390
L156.6651 28.0937
" />
<path d="M156.6651 26.4390
L155.0105 28.0937
" />
</g>
<g style="fill:#000000; fill-opacity:0.0; 
stroke:#000000; stroke-width:0.5091; stroke-opacity:1; 
stroke-linecap:round; stroke-linejoin:round;">
</g>
<g style="fill:#000000; fill-opacity:0.0; 
stroke:#000000; stroke-width:0.2000; stroke-opacity:1; 
stroke-linecap:round; stroke-linejoin:round;">
<text x="24.8519" y="124.2043"
textLength="14.8667" font-size="2.6667" lengthAdjust="spacingAndGlyphs"
text-anchor="start" opacity="0">Drill Map:</text>
<g class="stroked-text"><desc>Drill Map:</desc>
<path d="M25.4596 124.1192
L25.4596 122.1192
" />
<path d="M25.4596 122.1192
L25.9358 122.1192
" />
<path d="M25.9358 122.1192
L26.2215 122.2144
" />
<path d="M26.2215 122.2144
L26.4120 122.4049
" />
<path d="M26.4120 122.4049
L26.5072 122.5953
" />
<path d="M26.5072 122.5953
L26.6025 122.9763
" />
<path d="M26.6025 122.9763
L26.6025 123.2620
" />
<path d="M26.6025 123.2620
L26.5072 123.6430
" />
<path d="M26.5072 123.6430
L26.4120 123.8334
" />
<path d="M26.4120 123.8334
L26.2215 124.0239
" />
<path d="M26.2215 124.0239
L25.9358 124.1192
" />
<path d="M25.9358 124.1192
L25.4596 124.1192
" />
<path d="M27.4596 124.1192
L27.4596 122.7858
" />
<path d="M27.4596 123.1668
L27.5549 122.9763
" />
<path d="M27.5549 122.9763
L27.6501 122.8811
" />
<path d="M27.6501 122.8811
L27.8406 122.7858
" />
<path d="M27.8406 122.7858
L28.0311 122.7858
" />
<path d="M28.6977 124.1192
L28.6977 122.7858
" />
<path d="M28.6977 122.1192
L28.6025 122.2144
" />
<path d="M28.6025 122.2144
L28.6977 122.3096
" />
<path d="M28.6977 122.3096
L28.7930 122.2144
" />
<path d="M28.7930 122.2144
L28.6977 122.1192
" />
<path d="M28.6977 122.1192
L28.6977 122.3096
" />
<path d="M29.9358 124.1192
L29.7453 124.0239
" />
<path d="M29.7453 124.0239
L29.6501 123.8334
" />
<path d="M29.6501 123.8334
L29.6501 122.1192
" />
<path d="M30.9834 124.1192
L30.7930 124.0239
" />
<path d="M30.7930 124.0239
L30.6977 123.8334
" />
<path d="M30.6977 123.8334
L30.6977 122.1192
" />
<path d="M33.2692 124.1192
L33.2692 122.1192
" />
<path d="M33.2692 122.1192
L33.9358 123.5477
" />
<path d="M33.9358 123.5477
L34.6025 122.1192
" />
<path d="M34.6025 122.1192
L34.6025 124.1192
" />
<path d="M36.4120 124.1192
L36.4120 123.0715
" />
<path d="M36.4120 123.0715
L36.3168 122.8811
" />
<path d="M36.3168 122.8811
L36.1263 122.7858
" />
<path d="M36.1263 122.7858
L35.7453 122.7858
" />
<path d="M35.7453 122.7858
L35.5549 122.8811
" />
<path d="M36.4120 124.0239
L36.2215 124.1192
" />
<path d="M36.2215 124.1192
L35.7453 124.1192
" />
<path d="M35.7453 124.1192
L35.5549 124.0239
" />
<path d="M35.5549 124.0239
L35.4596 123.8334
" />
<path d="M35.4596 123.8334
L35.4596 123.6430
" />
<path d="M35.4596 123.6430
L35.5549 123.4525
" />
<path d="M35.5549 123.4525
L35.7453 123.3573
" />
<path d="M35.7453 123.3573
L36.2215 123.3573
" />
<path d="M36.2215 123.3573
L36.4120 123.2620
" />
<path d="M37.3644 122.7858
L37.3644 124.7858
" />
<path d="M37.3644 122.8811
L37.5549 122.7858
" />
<path d="M37.5549 122.7858
L37.9358 122.7858
" />
<path d="M37.9358 122.7858
L38.1263 122.8811
" />
<path d="M38.1263 122.8811
L38.2215 122.9763
" />
<path d="M38.2215 122.9763
L38.3168 123.1668
" />
<path d="M38.3168 123.1668
L38.3168 123.7382
" />
<path d="M38.3168 123.7382
L38.2215 123.9287
" />
<path d="M38.2215 123.9287
L38.1263 124.0239
" />
<path d="M38.1263 124.0239
L37.9358 124.1192
" />
<path d="M37.9358 124.1192
L37.5549 124.1192
" />
<path d="M37.5549 124.1192
L37.3644 124.0239
" />
<path d="M39.1739 123.9287
L39.2692 124.0239
" />
<path d="M39.2692 124.0239
L39.1739 124.1192
" />
<path d="M39.1739 124.1192
L39.0787 124.0239
" />
<path d="M39.0787 124.0239
L39.1739 123.9287
" />
<path d="M39.1739 123.9287
L39.1739 124.1192
" />
<path d="M39.1739 122.8811
L39.2692 122.9763
" />
<path d="M39.2692 122.9763
L39.1739 123.0715
" />
<path d="M39.1739 123.0715
L39.0787 122.9763
" />
<path d="M39.0787 122.9763
L39.1739 122.8811
" />
<path d="M39.1739 122.8811
L39.1739 123.0715
" />
</g></g>
<g style="fill:#000000; fill-opacity:0.0; 
stroke:#000000; stroke-width:0.1655; stroke-opacity:1; 
stroke-linecap:round; stroke-linejoin:round;">
<path d="M21.1972 126.5770
L22.8519 128.2316
" />
<path d="M22.8519 126.5770
L21.1972 128.2316
" />
</g>
<g style="fill:#000000; fill-opacity:0.0; 
stroke:#000000; stroke-width:0.5091; stroke-opacity:1; 
stroke-linecap:round; stroke-linejoin:round;">
</g>
<g style="fill:#000000; fill-opacity:0.0; 
stroke:#000000; stroke-width:0.2000; stroke-opacity:1; 
stroke-linecap:round; stroke-linejoin:round;">
<text x="24.8519" y="128.4043"
textLength="66.6762" font-size="2.6667" lengthAdjust="spacingAndGlyphs"
text-anchor="start" opacity="0">0.650mm / 0.0256" (2 holes) (not plated)</text>
<g class="stroked-text"><desc>0.650mm / 0.0256" (2 holes) (not plated)</desc>
<path d="M25.8406 126.3192
L26.0311 126.3192
" />
<path d="M26.0311 126.3192
L26.2215 126.4144
" />
<path d="M26.2215 126.4144
L26.3168 126.5096
" />
<path d="M26.3168 126.5096
L26.4120 126.7001
" />
<path d="M26.4120 126.7001
L26.5072 127.0811
" />
<path d="M26.5072 127.0811
L26.5072 127.5573
" />
<path d="M26.5072 127.5573
L26.4120 127.9382
" />
<path d="M26.4120 127.9382
L26.3168 128.1287
" />
<path d="M26.3168 128.1287
L26.2215 128.2239
" />
<path d="M26.2215 128.2239
L26.0311 128.3192
" />
<path d="M26.0311 128.3192
L25.8406 128.3192
" />
<path d="M25.8406 128.3192
L25.6501 128.2239
" />
<path d="M25.6501 128.2239
L25.5549 128.1287
" />
<path d="M25.5549 128.1287
L25.4596 127.9382
" />
<path d="M25.4596 127.9382
L25.3644 127.5573
" />
<path d="M25.3644 127.5573
L25.3644 127.0811
" />
<path d="M25.3644 127.0811
L25.4596 126.7001
" />
<path d="M25.4596 126.7001
L25.5549 126.5096
" />
<path d="M25.5549 126.5096
L25.6501 126.4144
" />
<path d="M25.6501 126.4144
L25.8406 126.3192
" />
<path d="M27.3644 128.1287
L27.4596 128.2239
" />
<path d="M27.4596 128.2239
L27.3644 128.3192
" />
<path d="M27.3644 128.3192
L27.2692 128.2239
" />
<path d="M27.2692 128.2239
L27.3644 128.1287
" />
<path d="M27.3644 128.1287
L27.3644 128.3192
" />
<path d="M29.1739 126.3192
L28.7930 126.3192
" />
<path d="M28.7930 126.3192
L28.6025 126.4144
" />
<path d="M28.6025 126.4144
L28.5072 126.5096
" />
<path d="M28.5072 126.5096
L28.3168 126.7953
" />
<path d="M28.3168 126.7953
L28.2215 127.1763
" />
<path d="M28.2215 127.1763
L28.2215 127.9382
" />
<path d="M28.2215 127.9382
L28.3168 128.1287
" />
<path d="M28.3168 128.1287
L28.4120 128.2239
" />
<path d="M28.4120 128.2239
L28.6025 128.3192
" />
<path d="M28.6025 128.3192
L28.9834 128.3192
" />
<path d="M28.9834 128.3192
L29.1739 128.2239
" />
<path d="M29.1739 128.2239
L29.2692 128.1287
" />
<path d="M29.2692 128.1287
L29.3644 127.9382
" />
<path d="M29.3644 127.9382
L29.3644 127.4620
" />
<path d="M29.3644 127.4620
L29.2692 127.2715
" />
<path d="M29.2692 127.2715
L29.1739 127.1763
" />
<path d="M29.1739 127.1763
L28.9834 127.0811
" />
<path d="M28.9834 127.0811
L28.6025 127.0811
" />
<path d="M28.6025 127.0811
L28.4120 127.1763
" />
<path d="M28.4120 127.1763
L28.3168 127.2715
" />
<path d="M28.3168 127.2715
L28.2215 127.4620
" />
<path d="M31.1739 126.3192
L30.2215 126.3192
" />
<path d="M30.2215 126.3192
L30.1263 127.2715
" />
<path d="M30.1263 127.2715
L30.2215 127.1763
" />
<path d="M30.2215 127.1763
L30.4120 127.0811
" />
<path d="M30.4120 127.0811
L30.8882 127.0811
" />
<path d="M30.8882 127.0811
L31.0787 127.1763
" />
<path d="M31.0787 127.1763
L31.1739 127.2715
" />
<path d="M31.1739 127.2715
L31.2692 127.4620
" />
<path d="M31.2692 127.4620
L31.2692 127.9382
" />
<path d="M31.2692 127.9382
L31.1739 128.1287
" />
<path d="M31.1739 128.1287
L31.0787 128.2239
" />
<path d="M31.0787 128.2239
L30.8882 128.3192
" />
<path d="M30.8882 128.3192
L30.4120 128.3192
" />
<path d="M30.4120 128.3192
L30.2215 128.2239
" />
<path d="M30.2215 128.2239
L30.1263 128.1287
" />
<path d="M32.5072 126.3192
L32.6977 126.3192
" />
<path d="M32.6977 126.3192
L32.8882 126.4144
" />
<path d="M32.8882 126.4144
L32.9834 126.5096
" />
<path d="M32.9834 126.5096
L33.0787 126.7001
" />
<path d="M33.0787 126.7001
L33.1739 127.0811
" />
<path d="M33.1739 127.0811
L33.1739 127.5573
" />
<path d="M33.1739 127.5573
L33.0787 127.9382
" />
<path d="M33.0787 127.9382
L32.9834 128.1287
" />
<path d="M32.9834 128.1287
L32.8882 128.2239
" />
<path d="M32.8882 128.2239
L32.6977 128.3192
" />
<path d="M32.6977 128.3192
L32.5072 128.3192
" />
<path d="M32.5072 128.3192
L32.3168 128.2239
" />
<path d="M32.3168 128.2239
L32.2215 128.1287
" />
<path d="M32.2215 128.1287
L32.1263 127.9382
" />
<path d="M32.1263 127.9382
L32.0311 127.5573
" />
<path d="M32.0311 127.5573
L32.0311 127.0811
" />
<path d="M32.0311 127.0811
L32.1263 126.7001
" />
<path d="M32.1263 126.7001
L32.2215 126.5096
" />
<path d="M32.2215 126.5096
L32.3168 126.4144
" />
<path d="M32.3168 126.4144
L32.5072 126.3192
" />
<path d="M34.0311 128.3192
L34.0311 126.9858
" />
<path d="M34.0311 127.1763
L34.1263 127.0811
" />
<path d="M34.1263 127.0811
L34.3168 126.9858
" />
<path d="M34.3168 126.9858
L34.6025 126.9858
" />
<path d="M34.6025 126.9858
L34.7930 127.0811
" />
<path d="M34.7930 127.0811
L34.8882 127.2715
" />
<path d="M34.8882 127.2715
L34.8882 128.3192
" />
<path d="M34.8882 127.2715
L34.9834 127.0811
" />
<path d="M34.9834 127.0811
L35.1739 126.9858
" />
<path d="M35.1739 126.9858
L35.4596 126.9858
" />
<path d="M35.4596 126.9858
L35.6501 127.0811
" />
<path d="M35.6501 127.0811
L35.7453 127.2715
" />
<path d="M35.7453 127.2715
L35.7453 128.3192
" />
<path d="M36.6977 128.3192
L36.6977 126.9858
" />
<path d="M36.6977 127.1763
L36.7930 127.0811
" />
<path d="M36.7930 127.0811
L36.9834 126.9858
" />
<path d="M36.9834 126.9858
L37.2692 126.9858
" />
<path d="M37.2692 126.9858
L37.4596 127.0811
" />
<path d="M37.4596 127.0811
L37.5549 127.2715
" />
<path d="M37.5549 127.2715
L37.5549 128.3192
" />
<path d="M37.5549 127.2715
L37.6501 127.0811
" />
<path d="M37.6501 127.0811
L37.8406 126.9858
" />
<path d="M37.8406 126.9858
L38.1263 126.9858
" />
<path d="M38.1263 126.9858
L38.3168 127.0811
" />
<path d="M38.3168 127.0811
L38.4120 127.2715
" />
<path d="M38.4120 127.2715
L38.4120 128.3192
" />
<path d="M42.3168 126.2239
L40.6025 128.7953
" />
<path d="M44.8882 126.3192
L45.0787 126.3192
" />
<path d="M45.0787 126.3192
L45.2692 126.4144
" />
<path d="M45.2692 126.4144
L45.3644 126.5096
" />
<path d="M45.3644 126.5096
L45.4596 126.7001
" />
<path d="M45.4596 126.7001
L45.5549 127.0811
" />
<path d="M45.5549 127.0811
L45.5549 127.5573
" />
<path d="M45.5549 127.5573
L45.4596 127.9382
" />
<path d="M45.4596 127.9382
L45.3644 128.1287
" />
<path d="M45.3644 128.1287
L45.2692 128.2239
" />
<path d="M45.2692 128.2239
L45.0787 128.3192
" />
<path d="M45.0787 128.3192
L44.8882 128.3192
" />
<path d="M44.8882 128.3192
L44.6977 128.2239
" />
<path d="M44.6977 128.2239
L44.6025 128.1287
" />
<path d="M44.6025 128.1287
L44.5073 127.9382
" />
<path d="M44.5073 127.9382
L44.4120 127.5573
" />
<path d="M44.4120 127.5573
L44.4120 127.0811
" />
<path d="M44.4120 127.0811
L44.5073 126.7001
" />
<path d="M44.5073 126.7001
L44.6025 126.5096
" />
<path d="M44.6025 126.5096
L44.6977 126.4144
" />
<path d="M44.6977 126.4144
L44.8882 126.3192
" />
<path d="M46.4120 128.1287
L46.5073 128.2239
" />
<path d="M46.5073 128.2239
L46.4120 128.3192
" />
<path d="M46.4120 128.3192
L46.3168 128.2239
" />
<path d="M46.3168 128.2239
L46.4120 128.1287
" />
<path d="M46.4120 128.1287
L46.4120 128.3192
" />
<path d="M47.7453 126.3192
L47.9358 126.3192
" />
<path d="M47.9358 126.3192
L48.1263 126.4144
" />
<path d="M48.1263 126.4144
L48.2215 126.5096
" />
<path d="M48.2215 126.5096
L48.3168 126.7001
" />
<path d="M48.3168 126.7001
L48.4120 127.0811
" />
<path d="M48.4120 127.0811
L48.4120 127.5573
" />
<path d="M48.4120 127.5573
L48.3168 127.9382
" />
<path d="M48.3168 127.9382
L48.2215 128.1287
" />
<path d="M48.2215 128.1287
L48.1263 128.2239
" />
<path d="M48.1263 128.2239
L47.9358 128.3192
" />
<path d="M47.9358 128.3192
L47.7453 128.3192
" />
<path d="M47.7453 128.3192
L47.5549 128.2239
" />
<path d="M47.5549 128.2239
L47.4596 128.1287
" />
<path d="M47.4596 128.1287
L47.3644 127.9382
" />
<path d="M47.3644 127.9382
L47.2692 127.5573
" />
<path d="M47.2692 127.5573
L47.2692 127.0811
" />
<path d="M47.2692 127.0811
L47.3644 126.7001
" />
<path d="M47.3644 126.7001
L47.4596 126.5096
" />
<path d="M47.4596 126.5096
L47.5549 126.4144
" />
<path d="M47.5549 126.4144
L47.7453 126.3192
" />
<path d="M49.1739 126.5096
L49.2692 126.4144
" />
<path d="M49.2692 126.4144
L49.4596 126.3192
" />
<path d="M49.4596 126.3192
L49.9358 126.3192
" />
<path d="M49.9358 126.3192
L50.1263 126.4144
" />
<path d="M50.1263 126.4144
L50.2215 126.5096
" />
<path d="M50.2215 126.5096
L50.3168 126.7001
" />
<path d="M50.3168 126.7001
L50.3168 126.8906
" />
<path d="M50.3168 126.8906
L50.2215 127.1763
" />
<path d="M50.2215 127.1763
L49.0787 128.3192
" />
<path d="M49.0787 128.3192
L50.3168 128.3192
" />
<path d="M52.1263 126.3192
L51.1739 126.3192
" />
<path d="M51.1739 126.3192
L51.0787 127.2715
" />
<path d="M51.0787 127.2715
L51.1739 127.1763
" />
<path d="M51.1739 127.1763
L51.3644 127.0811
" />
<path d="M51.3644 127.0811
L51.8406 127.0811
" />
<path d="M51.8406 127.0811
L52.0311 127.1763
" />
<path d="M52.0311 127.1763
L52.1263 127.2715
" />
<path d="M52.1263 127.2715
L52.2215 127.4620
" />
<path d="M52.2215 127.4620
L52.2215 127.9382
" />
<path d="M52.2215 127.9382
L52.1263 128.1287
" />
<path d="M52.1263 128.1287
L52.0311 128.2239
" />
<path d="M52.0311 128.2239
L51.8406 128.3192
" />
<path d="M51.8406 128.3192
L51.3644 128.3192
" />
<path d="M51.3644 128.3192
L51.1739 128.2239
" />
<path d="M51.1739 128.2239
L51.0787 128.1287
" />
<path d="M53.9358 126.3192
L53.5549 126.3192
" />
<path d="M53.5549 126.3192
L53.3644 126.4144
" />
<path d="M53.3644 126.4144
L53.2692 126.5096
" />
<path d="M53.2692 126.5096
L53.0787 126.7953
" />
<path d="M53.0787 126.7953
L52.9834 127.1763
" />
<path d="M52.9834 127.1763
L52.9834 127.9382
" />
<path d="M52.9834 127.9382
L53.0787 128.1287
" />
<path d="M53.0787 128.1287
L53.1739 128.2239
" />
<path d="M53.1739 128.2239
L53.3644 128.3192
" />
<path d="M53.3644 128.3192
L53.7453 128.3192
" />
<path d="M53.7453 128.3192
L53.9358 128.2239
" />
<path d="M53.9358 128.2239
L54.0311 128.1287
" />
<path d="M54.0311 128.1287
L54.1263 127.9382
" />
<path d="M54.1263 127.9382
L54.1263 127.4620
" />
<path d="M54.1263 127.4620
L54.0311 127.2715
" />
<path d="M54.0311 127.2715
L53.9358 127.1763
" />
<path d="M53.9358 127.1763
L53.7453 127.0811
" />
<path d="M53.7453 127.0811
L53.3644 127.0811
" />
<path d="M53.3644 127.0811
L53.1739 127.1763
" />
<path d="M53.1739 127.1763
L53.0787 127.2715
" />
<path d="M53.0787 127.2715
L52.9834 127.4620
" />
<path d="M54.8882 126.3192
L54.8882 126.7001
" />
<path d="M55.6501 126.3192
L55.6501 126.7001
" />
<path d="M58.6025 129.0811
L58.5073 128.9858
" />
<path d="M58.5073 128.9858
L58.3168 128.7001
" />
<path d="M58.3168 128.7001
L58.2215 128.5096
" />
<path d="M58.2215 128.5096
L58.1263 128.2239
" />
<path d="M58.1263 128.2239
L58.0311 127.7477
" />
<path d="M58.0311 127.7477
L58.0311 127.3668
" />
<path d="M58.0311 127.3668
L58.1263 126.8906
" />
<path d="M58.1263 126.8906
L58.2215 126.6049
" />
<path d="M58.2215 126.6049
L58.3168 126.4144
" />
<path d="M58.3168 126.4144
L58.5073 126.1287
" />
<path d="M58.5073 126.1287
L58.6025 126.0334
" />
<path d="M59.2692 126.5096
L59.3644 126.4144
" />
<path d="M59.3644 126.4144
L59.5549 126.3192
" />
<path d="M59.5549 126.3192
L60.0311 126.3192
" />
<path d="M60.0311 126.3192
L60.2215 126.4144
" />
<path d="M60.2215 126.4144
L60.3168 126.5096
" />
<path d="M60.3168 126.5096
L60.4120 126.7001
" />
<path d="M60.4120 126.7001
L60.4120 126.8906
" />
<path d="M60.4120 126.8906
L60.3168 127.1763
" />
<path d="M60.3168 127.1763
L59.1739 128.3192
" />
<path d="M59.1739 128.3192
L60.4120 128.3192
" />
<path d="M62.7930 128.3192
L62.7930 126.3192
" />
<path d="M63.6501 128.3192
L63.6501 127.2715
" />
<path d="M63.6501 127.2715
L63.5549 127.0811
" />
<path d="M63.5549 127.0811
L63.3644 126.9858
" />
<path d="M63.3644 126.9858
L63.0787 126.9858
" />
<path d="M63.0787 126.9858
L62.8882 127.0811
" />
<path d="M62.8882 127.0811
L62.7930 127.1763
" />
<path d="M64.8882 128.3192
L64.6977 128.2239
" />
<path d="M64.6977 128.2239
L64.6025 128.1287
" />
<path d="M64.6025 128.1287
L64.5073 127.9382
" />
<path d="M64.5073 127.9382
L64.5073 127.3668
" />
<path d="M64.5073 127.3668
L64.6025 127.1763
" />
<path d="M64.6025 127.1763
L64.6977 127.0811
" />
<path d="M64.6977 127.0811
L64.8882 126.9858
" />
<path d="M64.8882 126.9858
L65.1739 126.9858
" />
<path d="M65.1739 126.9858
L65.3644 127.0811
" />
<path d="M65.3644 127.0811
L65.4596 127.1763
" />
<path d="M65.4596 127.1763
L65.5549 127.3668
" />
<path d="M65.5549 127.3668
L65.5549 127.9382
" />
<path d="M65.5549 127.9382
L65.4596 128.1287
" />
<path d="M65.4596 128.1287
L65.3644 128.2239
" />
<path d="M65.3644 128.2239
L65.1739 128.3192
" />
<path d="M65.1739 128.3192
L64.8882 128.3192
" />
<path d="M66.6977 128.3192
L66.5073 128.2239
" />
<path d="M66.5073 128.2239
L66.4120 128.0334
" />
<path d="M66.4120 128.0334
L66.4120 126.3192
" />
<path d="M68.2215 128.2239
L68.0311 128.3192
" />
<path d="M68.0311 128.3192
L67.6501 128.3192
" />
<path d="M67.6501 128.3192
L67.4596 128.2239
" />
<path d="M67.4596 128.2239
L67.3644 128.0334
" />
<path d="M67.3644 128.0334
L67.3644 127.2715
" />
<path d="M67.3644 127.2715
L67.4596 127.0811
" />
<path d="M67.4596 127.0811
L67.6501 126.9858
" />
<path d="M67.6501 126.9858
L68.0311 126.9858
" />
<path d="M68.0311 126.9858
L68.2215 127.0811
" />
<path d="M68.2215 127.0811
L68.3168 127.2715
" />
<path d="M68.3168 127.2715
L68.3168 127.4620
" />
<path d="M68.3168 127.4620
L67.3644 127.6525
" />
<path d="M69.0787 128.2239
L69.2692 128.3192
" />
<path d="M69.2692 128.3192
L69.6501 128.3192
" />
<path d="M69.6501 128.3192
L69.8406 128.2239
" />
<path d="M69.8406 128.2239
L69.9358 128.0334
" />
<path d="M69.9358 128.0334
L69.9358 127.9382
" />
<path d="M69.9358 127.9382
L69.8406 127.7477
" />
<path d="M69.8406 127.7477
L69.6501 127.6525
" />
<path d="M69.6501 127.6525
L69.3644 127.6525
" />
<path d="M69.3644 127.6525
L69.1739 127.5573
" />
<path d="M69.1739 127.5573
L69.0787 127.3668
" />
<path d="M69.0787 127.3668
L69.0787 127.2715
" />
<path d="M69.0787 127.2715
L69.1739 127.0811
" />
<path d="M69.1739 127.0811
L69.3644 126.9858
" />
<path d="M69.3644 126.9858
L69.6501 126.9858
" />
<path d="M69.6501 126.9858
L69.8406 127.0811
" />
<path d="M70.6025 129.0811
L70.6977 128.9858
" />
<path d="M70.6977 128.9858
L70.8882 128.7001
" />
<path d="M70.8882 128.7001
L70.9834 128.5096
" />
<path d="M70.9834 128.5096
L71.0787 128.2239
" />
<path d="M71.0787 128.2239
L71.1739 127.7477
" />
<path d="M71.1739 127.7477
L71.1739 127.3668
" />
<path d="M71.1739 127.3668
L71.0787 126.8906
" />
<path d="M71.0787 126.8906
L70.9834 126.6049
" />
<path d="M70.9834 126.6049
L70.8882 126.4144
" />
<path d="M70.8882 126.4144
L70.6977 126.1287
" />
<path d="M70.6977 126.1287
L70.6025 126.0334
" />
<path d="M74.2215 129.0811
L74.1263 128.9858
" />
<path d="M74.1263 128.9858
L73.9358 128.7001
" />
<path d="M73.9358 128.7001
L73.8406 128.5096
" />
<path d="M73.8406 128.5096
L73.7454 128.2239
" />
<path d="M73.7454 128.2239
L73.6501 127.7477
" />
<path d="M73.6501 127.7477
L73.6501 127.3668
" />
<path d="M73.6501 127.3668
L73.7454 126.8906
" />
<path d="M73.7454 126.8906
L73.8406 126.6049
" />
<path d="M73.8406 126.6049
L73.9358 126.4144
" />
<path d="M73.9358 126.4144
L74.1263 126.1287
" />
<path d="M74.1263 126.1287
L74.2215 126.0334
" />
<path d="M74.9834 126.9858
L74.9834 128.3192
" />
<path d="M74.9834 127.1763
L75.0787 127.0811
" />
<path d="M75.0787 127.0811
L75.2692 126.9858
" />
<path d="M75.2692 126.9858
L75.5549 126.9858
" />
<path d="M75.5549 126.9858
L75.7454 127.0811
" />
<path d="M75.7454 127.0811
L75.8406 127.2715
" />
<path d="M75.8406 127.2715
L75.8406 128.3192
" />
<path d="M77.0787 128.3192
L76.8882 128.2239
" />
<path d="M76.8882 128.2239
L76.7930 128.1287
" />
<path d="M76.7930 128.1287
L76.6977 127.9382
" />
<path d="M76.6977 127.9382
L76.6977 127.3668
" />
<path d="M76.6977 127.3668
L76.7930 127.1763
" />
<path d="M76.7930 127.1763
L76.8882 127.0811
" />
<path d="M76.8882 127.0811
L77.0787 126.9858
" />
<path d="M77.0787 126.9858
L77.3644 126.9858
" />
<path d="M77.3644 126.9858
L77.5549 127.0811
" />
<path d="M77.5549 127.0811
L77.6501 127.1763
" />
<path d="M77.6501 127.1763
L77.7454 127.3668
" />
<path d="M77.7454 127.3668
L77.7454 127.9382
" />
<path d="M77.7454 127.9382
L77.6501 128.1287
" />
<path d="M77.6501 128.1287
L77.5549 128.2239
" />
<path d="M77.5549 128.2239
L77.3644 128.3192
" />
<path d="M77.3644 128.3192
L77.0787 128.3192
" />
<path d="M78.3168 126.9858
L79.0787 126.9858
" />
<path d="M78.6025 126.3192
L78.6025 128.0334
" />
<path d="M78.6025 128.0334
L78.6977 128.2239
" />
<path d="M78.6977 128.2239
L78.8882 128.3192
" />
<path d="M78.8882 128.3192
L79.0787 128.3192
" />
<path d="M81.2692 126.9858
L81.2692 128.9858
" />
<path d="M81.2692 127.0811
L81.4596 126.9858
" />
<path d="M81.4596 126.9858
L81.8406 126.9858
" />
<path d="M81.8406 126.9858
L82.0311 127.0811
" />
<path d="M82.0311 127.0811
L82.1263 127.1763
" />
<path d="M82.1263 127.1763
L82.2215 127.3668
" />
<path d="M82.2215 127.3668
L82.2215 127.9382
" />
<path d="M82.2215 127.9382
L82.1263 128.1287
" />
<path d="M82.1263 128.1287
L82.0311 128.2239
" />
<path d="M82.0311 128.2239
L81.8406 128.3192
" />
<path d="M81.8406 128.3192
L81.4596 128.3192
" />
<path d="M81.4596 128.3192
L81.2692 128.2239
" />
<path d="M83.3644 128.3192
L83.1739 128.2239
" />
<path d="M83.1739 128.2239
L83.0787 128.0334
" />
<path d="M83.0787 128.0334
L83.0787 126.3192
" />
<path d="M84.9835 128.3192
L84.9835 127.2715
" />
<path d="M84.9835 127.2715
L84.8882 127.0811
" />
<path d="M84.8882 127.0811
L84.6977 126.9858
" />
<path d="M84.6977 126.9858
L84.3168 126.9858
" />
<path d="M84.3168 126.9858
L84.1263 127.0811
" />
<path d="M84.9835 128.2239
L84.7930 128.3192
" />
<path d="M84.7930 128.3192
L84.3168 128.3192
" />
<path d="M84.3168 128.3192
L84.1263 128.2239
" />
<path d="M84.1263 128.2239
L84.0311 128.0334
" />
<path d="M84.0311 128.0334
L84.0311 127.8430
" />
<path d="M84.0311 127.8430
L84.1263 127.6525
" />
<path d="M84.1263 127.6525
L84.3168 127.5573
" />
<path d="M84.3168 127.5573
L84.7930 127.5573
" />
<path d="M84.7930 127.5573
L84.9835 127.4620
" />
<path d="M85.6501 126.9858
L86.4120 126.9858
" />
<path d="M85.9358 126.3192
L85.9358 128.0334
" />
<path d="M85.9358 128.0334
L86.0311 128.2239
" />
<path d="M86.0311 128.2239
L86.2215 128.3192
" />
<path d="M86.2215 128.3192
L86.4120 128.3192
" />
<path d="M87.8406 128.2239
L87.6501 128.3192
" />
<path d="M87.6501 128.3192
L87.2692 128.3192
" />
<path d="M87.2692 128.3192
L87.0787 128.2239
" />
<path d="M87.0787 128.2239
L86.9834 128.0334
" />
<path d="M86.9834 128.0334
L86.9834 127.2715
" />
<path d="M86.9834 127.2715
L87.0787 127.0811
" />
<path d="M87.0787 127.0811
L87.2692 126.9858
" />
<path d="M87.2692 126.9858
L87.6501 126.9858
" />
<path d="M87.6501 126.9858
L87.8406 127.0811
" />
<path d="M87.8406 127.0811
L87.9358 127.2715
" />
<path d="M87.9358 127.2715
L87.9358 127.4620
" />
<path d="M87.9358 127.4620
L86.9834 127.6525
" />
<path d="M89.6501 128.3192
L89.6501 126.3192
" />
<path d="M89.6501 128.2239
L89.4596 128.3192
" />
<path d="M89.4596 128.3192
L89.0787 128.3192
" />
<path d="M89.0787 128.3192
L88.8882 128.2239
" />
<path d="M88.8882 128.2239
L88.7930 128.1287
" />
<path d="M88.7930 128.1287
L88.6977 127.9382
" />
<path d="M88.6977 127.9382
L88.6977 127.3668
" />
<path d="M88.6977 127.3668
L88.7930 127.1763
" />
<path d="M88.7930 127.1763
L88.8882 127.0811
" />
<path d="M88.8882 127.0811
L89.0787 126.9858
" />
<path d="M89.0787 126.9858
L89.4596 126.9858
" />
<path d="M89.4596 126.9858
L89.6501 127.0811
" />
<path d="M90.4120 129.0811
L90.5073 128.9858
" />
<path d="M90.5073 128.9858
L90.6977 128.7001
" />
<path d="M90.6977 128.7001
L90.7930 128.5096
" />
<path d="M90.7930 128.5096
L90.8882 128.2239
" />
<path d="M90.8882 128.2239
L90.9834 127.7477
" />
<path d="M90.9834 127.7477
L90.9834 127.3668
" />
<path d="M90.9834 127.3668
L90.8882 126.8906
" />
<path d="M90.8882 126.8906
L90.7930 126.6049
" />
<path d="M90.7930 126.6049
L90.6977 126.4144
" />
<path d="M90.6977 126.4144
L90.5073 126.1287
" />
<path d="M90.5073 126.1287
L90.4120 126.0334
" />
</g></g> 
</svg>
