<?xml version="1.0" standalone="no"?>
 <!DOCTYPE svg PUBLIC "-//W3C//DTD SVG 1.1//EN" 
 "http://www.w3.org/Graphics/SVG/1.1/DTD/svg11.dtd"> 
<svg
  xmlns:svg="http://www.w3.org/2000/svg"
  xmlns="http://www.w3.org/2000/svg"
  xmlns:xlink="http://www.w3.org/1999/xlink"
  version="1.1"
  width="297.0022mm" height="210.0072mm" viewBox="0.0000 0.0000 297.0022 210.0072">
<title>SVG Image created as idawgz32-PTH-drl-drl_map.svg date 2024/01/22 23:57:32 </title>
  <desc>Image generated by PCBNEW </desc>
<g style="fill:#000000; fill-opacity:1.0000;stroke:#000000; stroke-opacity:1.0000;
stroke-linecap:round; stroke-linejoin:round;"
 transform="translate(0 0) scale(1 1)">
</g>
<g style="fill:#000000; fill-opacity:0.0; 
stroke:#000000; stroke-width:0.0000; stroke-opacity:1; 
stroke-linecap:round; stroke-linejoin:round;">
</g>
<g style="fill:#000000; fill-opacity:0.0; 
stroke:#000000; stroke-width:0.1273; stroke-opacity:1; 
stroke-linecap:round; stroke-linejoin:round;">
<path d="M125.4775 103.7288
L121.8767 117.1671
" />
<path d="M38.5479 5.2371 A5.0911 5.0911 0.0 0 0 32.3126 8.8371" />
<path d="M237.9136 105.6138
L181.3607 120.7671
" />
<path d="M38.5480 5.2371
L77.2417 15.6050
" />
<path d="M115.6414 120.7672 A5.0909 5.0909 0.0 0 0 121.8767 117.1671" />
<path d="M130.3952 99.9555 A5.0912 5.0912 0.0 0 0 125.4775 103.7288" />
<path d="M55.4886 99.3784
L64.7123 64.9549
" />
<path d="M64.7123 64.9549 A5.0912 5.0912 0.0 0 0 61.1124 58.7196" />
<path d="M237.9136 105.6137 A5.0911 5.0911 0.0 0 0 241.5136 99.3785" />
<path d="M175.1253 117.1671 A5.0908 5.0908 0.0 0 0 181.3607 120.7671" />
<path d="M77.2417 15.6050 A5.0911 5.0911 0.0 0 0 78.5594 15.7785" />
<path d="M218.4428 15.7785 A5.0898 5.0898 0.0 0 0 219.7604 15.6050" />
<path d="M264.6894 8.8371 A5.0912 5.0912 0.0 0 0 258.4542 5.2371" />
<path d="M270.3133 49.4959
L235.8898 58.7196
" />
<path d="M115.6414 120.7671
L59.0885 105.6138
" />
<path d="M166.6070 99.9554
L130.3952 99.9554
" />
<path d="M171.5244 103.7288 A5.0911 5.0911 0.0 0 0 166.6070 99.9554" />
<path d="M78.5594 15.7785
L218.4428 15.7785
" />
<path d="M264.6895 8.8371
L273.9132 43.2606
" />
<path d="M235.8898 58.7195 A5.0913 5.0913 0.0 0 0 232.2898 64.9550" />
<path d="M232.2898 64.9550
L241.5136 99.3785
" />
<path d="M270.3133 49.4958 A5.0911 5.0911 0.0 0 0 273.9132 43.2606" />
<path d="M219.7604 15.6050
L258.4542 5.2371
" />
<path d="M61.1124 58.7196
L26.6888 49.4959
" />
<path d="M23.0890 43.2606 A5.0912 5.0912 0.0 0 0 26.6889 49.4959" />
<path d="M55.4886 99.3784 A5.0912 5.0912 0.0 0 0 59.0885 105.6138" />
<path d="M23.0889 43.2606
L32.3126 8.8371
" />
<path d="M175.1254 117.1671
L171.5246 103.7288
" />
</g>
<g style="fill:#000000; fill-opacity:0.0; 
stroke:#000000; stroke-width:0.5091; stroke-opacity:1; 
stroke-linecap:round; stroke-linejoin:round;">
</g>
<g style="fill:#000000; fill-opacity:0.0; 
stroke:#000000; stroke-width:0.1018; stroke-opacity:1; 
stroke-linecap:round; stroke-linejoin:round;">
<path d="M28.8279 43.0551
L29.8462 44.0733
" />
<path d="M29.8462 43.0551
L28.8279 44.0733
" />
<path d="M32.0780 33.3845
L33.0962 34.4027
" />
<path d="M33.0962 33.3845
L32.0780 34.4027
" />
<path d="M35.3722 21.0904
L36.3904 22.1086
" />
<path d="M36.3904 21.0904
L35.3722 22.1086
" />
<path d="M38.0076 11.2551
L39.0258 12.2734
" />
<path d="M39.0258 11.2551
L38.0076 12.2734
" />
<path d="M38.6632 45.6905
L39.6815 46.7087
" />
<path d="M39.6815 45.6905
L38.6632 46.7087
" />
<path d="M41.9251 26.1405
L42.9433 27.1587
" />
<path d="M42.9433 26.1405
L41.9251 27.1587
" />
<path d="M43.5486 39.7522
L44.5668 40.7705
" />
<path d="M44.5668 39.7522
L43.5486 40.7705
" />
<path d="M44.5928 23.5611
L45.6110 24.5793
" />
<path d="M45.6110 23.5611
L44.5928 24.5793
" />
<path d="M47.2281 13.7258
L48.2464 14.7440
" />
<path d="M48.2464 13.7258
L47.2281 14.7440
" />
<path d="M49.4022 17.5663
L50.4204 18.5845
" />
<path d="M50.4204 17.5663
L49.4022 18.5845
" />
<path d="M51.5720 49.1494
L52.5903 50.1676
" />
<path d="M52.5903 49.1494
L51.5720 50.1676
" />
<path d="M54.2074 39.3141
L55.2256 40.3323
" />
<path d="M55.2256 39.3141
L54.2074 40.3323
" />
<path d="M57.5016 27.0200
L58.5198 28.0382
" />
<path d="M58.5198 27.0200
L57.5016 28.0382
" />
<path d="M60.7517 17.3494
L61.7699 18.3676
" />
<path d="M61.7699 17.3494
L60.7517 18.3676
" />
<path d="M60.7926 51.6200
L61.8108 52.6382
" />
<path d="M61.8108 51.6200
L60.7926 52.6382
" />
<path d="M64.0545 32.0700
L65.0727 33.0882
" />
<path d="M65.0727 32.0700
L64.0545 33.0882
" />
<path d="M64.4777 89.5024
L65.4959 90.5206
" />
<path d="M65.4959 89.5024
L64.4777 90.5206
" />
<path d="M65.6780 45.6818
L66.6962 46.7000
" />
<path d="M66.6962 45.6818
L65.6780 46.7000
" />
<path d="M66.7222 29.4906
L67.7404 30.5088
" />
<path d="M67.7404 29.4906
L66.7222 30.5088
" />
<path d="M67.7719 77.2083
L68.7901 78.2265
" />
<path d="M68.7901 77.2083
L67.7719 78.2265
" />
<path d="M68.7428 19.4906
L69.7611 20.5088
" />
<path d="M69.7611 19.4906
L68.7428 20.5088
" />
<path d="M70.4072 67.3730
L71.4255 68.3912
" />
<path d="M71.4255 67.3730
L70.4072 68.3912
" />
<path d="M73.5722 26.0554
L74.5904 27.0736
" />
<path d="M74.5904 26.0554
L73.5722 27.0736
" />
<path d="M73.7014 55.0789
L74.7197 56.0971
" />
<path d="M74.7197 55.0789
L73.7014 56.0971
" />
<path d="M74.1601 82.8731
L75.1783 83.8913
" />
<path d="M75.1783 82.8731
L74.1601 83.8913
" />
<path d="M75.9482 95.8701
L76.9665 96.8884
" />
<path d="M76.9665 95.8701
L75.9482 96.8884
" />
<path d="M76.3368 45.2436
L77.3550 46.2618
" />
<path d="M77.3550 45.2436
L76.3368 46.2618
" />
<path d="M76.9925 79.6790
L78.0107 80.6972
" />
<path d="M78.0107 79.6790
L76.9925 80.6972
" />
<path d="M79.6310 32.9495
L80.6492 33.9678
" />
<path d="M80.6492 32.9495
L79.6310 33.9678
" />
<path d="M79.9249 61.3584
L80.9432 62.3766
" />
<path d="M80.9432 61.3584
L79.9249 62.3766
" />
<path d="M81.7131 74.3554
L82.7313 75.3737
" />
<path d="M82.7313 74.3554
L81.7131 75.3737
" />
<path d="M82.2663 23.1142
L83.2846 24.1325
" />
<path d="M83.2846 23.1142
L82.2663 24.1325
" />
<path d="M82.9220 57.5496
L83.9402 58.5678
" />
<path d="M83.9402 57.5496
L82.9220 58.5678
" />
<path d="M85.4045 38.4496
L86.4227 39.4678
" />
<path d="M86.4227 38.4496
L85.4045 39.4678
" />
<path d="M86.6071 95.4320
L87.6253 96.4502
" />
<path d="M87.6253 95.4320
L86.6071 96.4502
" />
<path d="M87.8074 51.6113
L88.8256 52.6296
" />
<path d="M88.8256 51.6113
L87.8074 52.6296
" />
<path d="M88.8516 35.4202
L89.8698 36.4384
" />
<path d="M89.8698 35.4202
L88.8516 36.4384
" />
<path d="M90.5160 83.3026
L91.5342 84.3208
" />
<path d="M91.5342 83.3026
L90.5160 84.3208
" />
<path d="M91.4869 25.5849
L92.5052 26.6031
" />
<path d="M92.5052 25.5849
L91.4869 26.6031
" />
<path d="M92.5366 73.3026
L93.5549 74.3208
" />
<path d="M93.5549 73.3026
L92.5366 74.3208
" />
<path d="M95.2954 33.4459
L96.3137 34.4641
" />
<path d="M96.3137 33.4459
L95.2954 34.4641
" />
<path d="M95.8308 61.0085
L96.8491 62.0267
" />
<path d="M96.8491 61.0085
L95.8308 62.0267
" />
<path d="M96.2895 88.8026
L97.3077 89.8208
" />
<path d="M97.3077 88.8026
L96.2895 89.8208
" />
<path d="M98.0776 101.7997
L99.0959 102.8179
" />
<path d="M99.0959 101.7997
L98.0776 102.8179
" />
<path d="M98.4662 51.1732
L99.4844 52.1914
" />
<path d="M99.4844 51.1732
L98.4662 52.1914
" />
<path d="M98.5072 85.4438
L99.5254 86.4620
" />
<path d="M99.5254 85.4438
L98.5072 86.4620
" />
<path d="M101.7604 38.8791
L102.7786 39.8973
" />
<path d="M102.7786 38.8791
L101.7604 39.8973
" />
<path d="M102.0543 67.2879
L103.0726 68.3061
" />
<path d="M103.0726 67.2879
L102.0543 68.3061
" />
<path d="M104.0072 79.6703
L105.0254 80.6885
" />
<path d="M105.0254 79.6703
L104.0072 80.6885
" />
<path d="M105.0105 29.2085
L106.0287 30.2267
" />
<path d="M106.0287 29.2085
L105.0105 30.2267
" />
<path d="M105.0514 63.4791
L106.0696 64.4973
" />
<path d="M106.0696 63.4791
L105.0514 64.4973
" />
<path d="M108.1486 44.5438
L109.1668 45.5620
" />
<path d="M109.1668 44.5438
L108.1486 45.5620
" />
<path d="M108.7365 101.3615
L109.7547 102.3797
" />
<path d="M109.7547 101.3615
L108.7365 102.3797
" />
<path d="M109.9367 57.5409
L110.9550 58.5591
" />
<path d="M110.9550 57.5409
L109.9367 58.5591
" />
<path d="M110.9810 41.3497
L111.9992 42.3679
" />
<path d="M111.9992 41.3497
L110.9810 42.3679
" />
<path d="M112.0307 89.0674
L113.0489 90.0856
" />
<path d="M113.0489 89.0674
L112.0307 90.0856
" />
<path d="M113.6163 31.5144
L114.6345 32.5327
" />
<path d="M114.6345 31.5144
L113.6163 32.5327
" />
<path d="M115.2807 79.3968
L116.2990 80.4151
" />
<path d="M116.2990 79.3968
L115.2807 80.4151
" />
<path d="M117.8042 94.5675
L118.8224 95.5857
" />
<path d="M118.8224 94.5675
L117.8042 95.5857
" />
<path d="M117.9602 66.9380
L118.9784 67.9563
" />
<path d="M118.9784 66.9380
L117.9602 67.9563
" />
<path d="M120.2070 107.7292
L121.2253 108.7475
" />
<path d="M121.2253 107.7292
L120.2070 108.7475
" />
<path d="M120.5956 57.1027
L121.6138 58.1210
" />
<path d="M121.6138 57.1027
L120.5956 58.1210
" />
<path d="M121.2513 91.5381
L122.2695 92.5563
" />
<path d="M122.2695 91.5381
L121.2513 92.5563
" />
<path d="M121.3663 29.6380
L122.3846 30.6562
" />
<path d="M122.3846 29.6380
L121.3663 30.6562
" />
<path d="M123.8898 44.8086
L124.9080 45.8268
" />
<path d="M124.9080 44.8086
L123.8898 45.8268
" />
<path d="M123.9115 73.1445
L124.9297 74.1628
" />
<path d="M124.9297 73.1445
L123.9115 74.1628
" />
<path d="M124.0157 59.3380
L125.0339 60.3562
" />
<path d="M125.0339 59.3380
L124.0157 60.3562
" />
<path d="M125.7953 96.7087
L126.8136 97.7269
" />
<path d="M126.8136 96.7087
L125.7953 97.7269
" />
<path d="M126.0127 66.3918
L127.0309 67.4100
" />
<path d="M127.0309 66.3918
L126.0127 67.4100
" />
<path d="M126.1366 85.5999
L127.1548 86.6181
" />
<path d="M127.1548 85.5999
L126.1366 86.6181
" />
<path d="M126.5251 34.9733
L127.5434 35.9916
" />
<path d="M127.5434 34.9733
L126.5251 35.9916
" />
<path d="M126.6712 63.9342
L127.6894 64.9524
" />
<path d="M127.6894 63.9342
L126.6712 64.9524
" />
<path d="M127.1808 69.4087
L128.1990 70.4269
" />
<path d="M128.1990 69.4087
L127.1808 70.4269
" />
<path d="M130.2780 50.4734
L131.2962 51.4916
" />
<path d="M131.2962 50.4734
L130.2780 51.4916
" />
<path d="M131.0843 57.0398
L132.1025 58.0580
" />
<path d="M132.1025 57.0398
L131.0843 58.0580
" />
<path d="M131.2664 92.6946
L132.2846 93.7128
" />
<path d="M132.2846 92.6946
L131.2664 93.7128
" />
<path d="M132.0661 63.4705
L133.0844 64.4887
" />
<path d="M133.0844 63.4705
L132.0661 64.4887
" />
<path d="M133.1104 47.2793
L134.1286 48.2975
" />
<path d="M134.1286 47.2793
L133.1104 48.2975
" />
<path d="M133.4534 32.2693
L134.4716 33.2875
" />
<path d="M134.4716 32.2693
L133.4534 33.2875
" />
<path d="M134.5688 67.9259
L135.5870 68.9441
" />
<path d="M135.5870 67.9259
L134.5688 68.9441
" />
<path d="M134.8505 65.3973
L135.8687 66.4155
" />
<path d="M135.8687 65.3973
L134.8505 66.4155
" />
<path d="M135.2442 23.0280
L136.2625 24.0462
" />
<path d="M136.2625 23.0280
L135.2442 24.0462
" />
<path d="M135.7457 37.4440
L136.7639 38.4622
" />
<path d="M136.7639 37.4440
L135.7457 38.4622
" />
<path d="M135.7795 63.0286
L136.7977 64.0469
" />
<path d="M136.7977 63.0286
L135.7795 64.0469
" />
<path d="M135.9455 51.6198
L136.9638 52.6381
" />
<path d="M136.9638 51.6198
L135.9455 52.6381
" />
<path d="M135.9967 60.4936
L137.0149 61.5118
" />
<path d="M137.0149 60.4936
L135.9967 61.5118
" />
<path d="M138.4911 43.1108
L139.5093 44.1290
" />
<path d="M139.5093 43.1108
L138.4911 44.1290
" />
<path d="M140.5422 41.3742
L141.5605 42.3924
" />
<path d="M141.5605 41.3742
L140.5422 42.3924
" />
<path d="M142.1796 45.9380
L143.1978 46.9562
" />
<path d="M143.1978 45.9380
L142.1796 46.9562
" />
<path d="M142.2445 37.6650
L143.2628 38.6832
" />
<path d="M143.2628 37.6650
L142.2445 38.6832
" />
<path d="M143.5173 23.0280
L144.5355 24.0462
" />
<path d="M144.5355 23.0280
L143.5173 24.0462
" />
<path d="M143.7974 50.5799
L144.8157 51.5982
" />
<path d="M144.8157 50.5799
L143.7974 51.5982
" />
<path d="M144.5554 75.8483
L145.5736 76.8666
" />
<path d="M145.5736 75.8483
L144.5554 76.8666
" />
<path d="M151.1540 23.0280
L152.1722 24.0462
" />
<path d="M152.1722 23.0280
L151.1540 24.0462
" />
<path d="M152.4725 42.7991
L153.4907 43.8173
" />
<path d="M153.4907 42.7991
L152.4725 43.8173
" />
<path d="M152.6443 39.4002
L153.6625 40.4185
" />
<path d="M153.6625 39.4002
L152.6443 40.4185
" />
<path d="M154.3359 50.3928
L155.3542 51.4110
" />
<path d="M155.3542 50.3928
L154.3359 51.4110
" />
<path d="M156.8815 45.3016
L157.8997 46.3199
" />
<path d="M157.8997 45.3016
L156.8815 46.3199
" />
<path d="M160.0205 60.6178
L161.0387 61.6360
" />
<path d="M161.0387 60.6178
L160.0205 61.6360
" />
<path d="M160.0790 63.1614
L161.0973 64.1796
" />
<path d="M161.0973 63.1614
L160.0790 64.1796
" />
<path d="M160.2799 65.6978
L161.2981 66.7160
" />
<path d="M161.2981 65.6978
L160.2799 66.7160
" />
<path d="M160.6998 23.0280
L161.7181 24.0462
" />
<path d="M161.7181 23.0280
L160.6998 24.0462
" />
<path d="M160.9796 37.3580
L161.9978 38.3762
" />
<path d="M161.9978 37.3580
L160.9796 38.3762
" />
<path d="M161.1240 68.0980
L162.1422 69.1162
" />
<path d="M162.1422 68.0980
L161.1240 69.1162
" />
<path d="M161.8994 70.5212
L162.9176 71.5394
" />
<path d="M162.9176 70.5212
L161.8994 71.5394
" />
<path d="M161.9726 75.8484
L162.9908 76.8666
" />
<path d="M162.9908 75.8484
L161.9726 76.8666
" />
<path d="M162.4060 30.3874
L163.4243 31.4056
" />
<path d="M163.4243 30.3874
L162.4060 31.4056
" />
<path d="M163.0003 47.3580
L164.0185 48.3762
" />
<path d="M164.0185 47.3580
L163.0003 48.3762
" />
<path d="M165.8326 50.5521
L166.8509 51.5703
" />
<path d="M166.8509 50.5521
L165.8326 51.5703
" />
<path d="M166.9092 59.4874
L167.9274 60.5056
" />
<path d="M167.9274 59.4874
L166.9092 60.5056
" />
<path d="M168.9708 35.2168
L169.9890 36.2350
" />
<path d="M169.9890 35.2168
L168.9708 36.2350
" />
<path d="M169.4752 56.7699
L170.4934 57.7881
" />
<path d="M170.4934 56.7699
L169.4752 57.7881
" />
<path d="M169.5445 69.3227
L170.5628 70.3409
" />
<path d="M170.5628 69.3227
L169.5445 70.3409
" />
<path d="M171.7622 72.6815
L172.7804 73.6997
" />
<path d="M172.7804 72.6815
L171.7622 73.6997
" />
<path d="M172.2209 44.8873
L173.2391 45.9056
" />
<path d="M173.2391 44.8873
L172.2209 45.9056
" />
<path d="M172.8387 81.6168
L173.8570 82.6350
" />
<path d="M173.8570 81.6168
L172.8387 82.6350
" />
<path d="M175.4741 91.4521
L176.4923 92.4703
" />
<path d="M176.4923 91.4521
L175.4741 92.4703
" />
<path d="M175.5150 57.1815
L176.5333 58.1997
" />
<path d="M176.5333 57.1815
L175.5150 58.1997
" />
<path d="M177.6918 94.8109
L178.7100 95.8291
" />
<path d="M178.7100 94.8109
L177.6918 95.8291
" />
<path d="M178.1504 67.0167
L179.1686 68.0350
" />
<path d="M179.1686 67.0167
L178.1504 68.0350
" />
<path d="M178.7683 103.7462
L179.7865 104.7644
" />
<path d="M179.7865 103.7462
L178.7683 104.7644
" />
<path d="M181.4036 113.5815
L182.4219 114.5997
" />
<path d="M182.4219 113.5815
L181.4036 114.5997
" />
<path d="M181.4446 79.3108
L182.4628 80.3291
" />
<path d="M182.4628 79.3108
L181.4446 80.3291
" />
<path d="M182.4943 31.5932
L183.5125 32.6114
" />
<path d="M183.5125 31.5932
L182.4943 32.6114
" />
<path d="M184.0800 89.1461
L185.0982 90.1643
" />
<path d="M185.0982 89.1461
L184.0800 90.1643
" />
<path d="M185.1297 41.4284
L186.1479 42.4467
" />
<path d="M186.1479 41.4284
L185.1297 42.4467
" />
<path d="M187.3742 101.4402
L188.3924 102.4585
" />
<path d="M188.3924 101.4402
L187.3742 102.4585
" />
<path d="M187.9620 44.6225
L188.9803 45.6408
" />
<path d="M188.9803 44.6225
L187.9620 45.6408
" />
<path d="M189.0386 53.5578
L190.0568 54.5761
" />
<path d="M190.0568 53.5578
L189.0386 54.5761
" />
<path d="M190.0095 111.2755
L191.0277 112.2937
" />
<path d="M191.0277 111.2755
L190.0095 112.2937
" />
<path d="M191.6739 63.3931
L192.6921 64.4113
" />
<path d="M192.6921 63.3931
L191.6739 64.4113
" />
<path d="M191.7149 29.1225
L192.7331 30.1407
" />
<path d="M192.7331 29.1225
L191.7149 30.1407
" />
<path d="M192.5280 54.5322
L193.5462 55.5504
" />
<path d="M193.5462 54.5322
L192.5280 55.5504
" />
<path d="M193.8916 66.7519
L194.9098 67.7702
" />
<path d="M194.9098 66.7519
L193.8916 67.7702
" />
<path d="M194.3502 38.9578
L195.3685 39.9760
" />
<path d="M195.3685 38.9578
L194.3502 39.9760
" />
<path d="M194.9681 75.6872
L195.9863 76.7055
" />
<path d="M195.9863 75.6872
L194.9681 76.7055
" />
<path d="M197.6035 85.5225
L198.6217 86.5407
" />
<path d="M198.6217 85.5225
L197.6035 86.5407
" />
<path d="M197.6444 51.2519
L198.6627 52.2701
" />
<path d="M198.6627 51.2519
L197.6444 52.2701
" />
<path d="M199.8211 88.8813
L200.8394 89.8996
" />
<path d="M200.8394 88.8813
L199.8211 89.8996
" />
<path d="M200.2798 61.0872
L201.2980 62.1054
" />
<path d="M201.2980 61.0872
L200.2798 62.1054
" />
<path d="M200.8977 97.8166
L201.9159 98.8348
" />
<path d="M201.9159 97.8166
L200.8977 98.8348
" />
<path d="M203.5330 107.6519
L204.5513 108.6701
" />
<path d="M204.5513 107.6519
L203.5330 108.6701
" />
<path d="M203.5740 73.3813
L204.5922 74.3995
" />
<path d="M204.5922 73.3813
L203.5740 74.3995
" />
<path d="M204.6237 25.6636
L205.6419 26.6818
" />
<path d="M205.6419 25.6636
L204.6237 26.6818
" />
<path d="M206.2094 83.2166
L207.2276 84.2348
" />
<path d="M207.2276 83.2166
L206.2094 84.2348
" />
<path d="M207.2591 35.4989
L208.2773 36.5171
" />
<path d="M208.2773 35.4989
L207.2591 36.5171
" />
<path d="M209.5035 95.5107
L210.5218 96.5289
" />
<path d="M210.5218 95.5107
L209.5035 96.5289
" />
<path d="M210.7061 38.5283
L211.7244 39.5465
" />
<path d="M211.7244 38.5283
L210.7061 39.5465
" />
<path d="M211.1680 47.6283
L212.1862 48.6465
" />
<path d="M212.1862 47.6283
L211.1680 48.6465
" />
<path d="M212.1389 105.3460
L213.1571 106.3642
" />
<path d="M213.1571 105.3460
L212.1389 106.3642
" />
<path d="M213.8033 57.4636
L214.8215 58.4818
" />
<path d="M214.8215 57.4636
L213.8033 58.4818
" />
<path d="M214.4590 23.0282
L215.4772 24.0465
" />
<path d="M215.4772 23.0282
L214.4590 24.0465
" />
<path d="M215.6797 49.7135
L216.6980 50.7318
" />
<path d="M216.6980 49.7135
L215.6797 50.7318
" />
<path d="M216.0210 60.8224
L217.0392 61.8406
" />
<path d="M217.0392 60.8224
L216.0210 61.8406
" />
<path d="M216.4796 33.0282
L217.4979 34.0465
" />
<path d="M217.4979 33.0282
L216.4796 34.0465
" />
<path d="M217.0975 69.7577
L218.1157 70.7759
" />
<path d="M218.1157 69.7577
L217.0975 70.7759
" />
<path d="M219.7329 79.5930
L220.7511 80.6112
" />
<path d="M220.7511 79.5930
L219.7329 80.6112
" />
<path d="M219.7738 45.3223
L220.7921 46.3406
" />
<path d="M220.7921 45.3223
L219.7738 46.3406
" />
<path d="M221.9505 82.9518
L222.9688 83.9700
" />
<path d="M222.9688 82.9518
L221.9505 83.9700
" />
<path d="M222.4092 55.1576
L223.4274 56.1759
" />
<path d="M223.4274 55.1576
L222.4092 56.1759
" />
<path d="M223.0271 91.8871
L224.0453 92.9053
" />
<path d="M224.0453 91.8871
L223.0271 92.9053
" />
<path d="M225.0887 67.6164
L226.1069 68.6347
" />
<path d="M226.1069 67.6164
L225.0887 68.6347
" />
<path d="M225.6624 101.7224
L226.6806 102.7406
" />
<path d="M226.6806 101.7224
L225.6624 102.7406
" />
<path d="M226.7531 19.7340
L227.7713 20.7523
" />
<path d="M227.7713 19.7340
L226.7531 20.7523
" />
<path d="M227.7240 77.4517
L228.7423 78.4700
" />
<path d="M228.7423 77.4517
L227.7240 78.4700
" />
<path d="M230.0032 29.4046
L231.0214 30.4228
" />
<path d="M231.0214 29.4046
L230.0032 30.4228
" />
<path d="M231.0182 89.7458
L232.0365 90.7641
" />
<path d="M232.0365 89.7458
L231.0182 90.7641
" />
<path d="M232.8355 32.5987
L233.8538 33.6169
" />
<path d="M233.8538 32.5987
L232.8355 33.6169
" />
<path d="M233.2973 41.6987
L234.3156 42.7170
" />
<path d="M234.3156 41.6987
L233.2973 42.7170
" />
<path d="M233.6536 99.5811
L234.6718 100.5994
" />
<path d="M234.6718 99.5811
L233.6536 100.5994
" />
<path d="M235.9327 51.5340
L236.9509 52.5522
" />
<path d="M236.9509 51.5340
L235.9327 52.5522
" />
<path d="M235.9737 17.2634
L236.9919 18.2816
" />
<path d="M236.9919 17.2634
L235.9737 18.2816
" />
<path d="M238.5877 46.9355
L239.6059 47.9537
" />
<path d="M239.6059 46.9355
L238.5877 47.9537
" />
<path d="M238.6090 27.0987
L239.6273 28.1169
" />
<path d="M239.6273 27.0987
L238.6090 28.1169
" />
<path d="M241.2885 39.5575
L242.3067 40.5757
" />
<path d="M242.3067 39.5575
L241.2885 40.5757
" />
<path d="M243.9239 49.3928
L244.9421 50.4110
" />
<path d="M244.9421 49.3928
L243.9239 50.4110
" />
<path d="M248.8825 13.8045
L249.9007 14.8227
" />
<path d="M249.9007 13.8045
L248.8825 14.8227
" />
<path d="M252.1325 23.4751
L253.1508 24.4933
" />
<path d="M253.1508 23.4751
L252.1325 24.4933
" />
<path d="M254.3502 26.8339
L255.3684 27.8521
" />
<path d="M255.3684 26.8339
L254.3502 27.8521
" />
<path d="M255.4267 35.7692
L256.4450 36.7874
" />
<path d="M256.4450 35.7692
L255.4267 36.7874
" />
<path d="M258.0621 45.6045
L259.0803 46.6227
" />
<path d="M259.0803 45.6045
L258.0621 46.6227
" />
<path d="M258.1031 11.3339
L259.1213 12.3521
" />
<path d="M259.1213 11.3339
L258.1031 12.3521
" />
<path d="M259.6371 42.8765
L260.6553 43.8947
" />
<path d="M260.6553 42.8765
L259.6371 43.8947
" />
<path d="M260.7384 21.1691
L261.7566 22.1874
" />
<path d="M261.7566 21.1691
L260.7384 22.1874
" />
<path d="M264.0326 33.4632
L265.0508 34.4815
" />
<path d="M265.0508 33.4632
L264.0326 34.4815
" />
<path d="M266.6680 43.2985
L267.6862 44.3167
" />
<path d="M267.6862 43.2985
L266.6680 44.3167
" />
</g>
<g style="fill:#000000; fill-opacity:0.0; 
stroke:#000000; stroke-width:0.1527; stroke-opacity:1; 
stroke-linecap:round; stroke-linejoin:round;">
<circle cx="137.4843" cy="17.9751" r="0.7637" /> 
</g>
<g style="fill:#000000; fill-opacity:0.0; 
stroke:#000000; stroke-width:0.5091; stroke-opacity:1; 
stroke-linecap:round; stroke-linejoin:round;">
<path d="M138.2480 18.7387
L138.2480 17.2114
" />
<path d="M138.2480 17.2114 A0.7637 0.7637 0.0 0 0 136.7207 17.2114" />
<path d="M136.7207 17.2114
L136.7207 18.7387
" />
<path d="M136.7207 18.7387 A0.7637 0.7637 0.0 0 0 138.2480 18.7387" />
</g>
<g style="fill:#000000; fill-opacity:0.0; 
stroke:#000000; stroke-width:0.1527; stroke-opacity:1; 
stroke-linecap:round; stroke-linejoin:round;">
<circle cx="137.4843" cy="28.6155" r="0.7637" /> 
</g>
<g style="fill:#000000; fill-opacity:0.0; 
stroke:#000000; stroke-width:0.5091; stroke-opacity:1; 
stroke-linecap:round; stroke-linejoin:round;">
<path d="M138.2480 30.0156
L138.2480 27.2154
" />
<path d="M138.2480 27.2154 A0.7637 0.7637 0.0 0 0 136.7207 27.2154" />
<path d="M136.7207 27.2154
L136.7207 30.0156
" />
<path d="M136.7207 30.0156 A0.7637 0.7637 0.0 0 0 138.2480 30.0156" />
</g>
<g style="fill:#000000; fill-opacity:0.0; 
stroke:#000000; stroke-width:0.1527; stroke-opacity:1; 
stroke-linecap:round; stroke-linejoin:round;">
<circle cx="159.4780" cy="17.9751" r="0.7637" /> 
</g>
<g style="fill:#000000; fill-opacity:0.0; 
stroke:#000000; stroke-width:0.5091; stroke-opacity:1; 
stroke-linecap:round; stroke-linejoin:round;">
<path d="M160.2416 18.7387
L160.2416 17.2114
" />
<path d="M160.2416 17.2114 A0.7637 0.7637 0.0 0 0 158.7143 17.2114" />
<path d="M158.7143 17.2114
L158.7143 18.7387
" />
<path d="M158.7143 18.7387 A0.7637 0.7637 0.0 0 0 160.2416 18.7387" />
</g>
<g style="fill:#000000; fill-opacity:0.0; 
stroke:#000000; stroke-width:0.1527; stroke-opacity:1; 
stroke-linecap:round; stroke-linejoin:round;">
<circle cx="159.4780" cy="28.6155" r="0.7637" /> 
</g>
<g style="fill:#000000; fill-opacity:0.0; 
stroke:#000000; stroke-width:0.5091; stroke-opacity:1; 
stroke-linecap:round; stroke-linejoin:round;">
<path d="M160.2416 30.0156
L160.2416 27.2154
" />
<path d="M160.2416 27.2154 A0.7637 0.7637 0.0 0 0 158.7143 27.2154" />
<path d="M158.7143 27.2154
L158.7143 30.0156
" />
<path d="M158.7143 30.0156 A0.7637 0.7637 0.0 0 0 160.2416 30.0156" />
<path d="M49.8301 29.4328
L49.8301 34.5239
" />
<path d="M47.2846 31.9784
L52.3757 31.9784
" />
<path d="M82.2298 85.5507
L82.2298 90.6418
" />
<path d="M79.6843 88.0963
L84.7754 88.0963
" />
<path d="M104.3592 91.4802
L104.3592 96.5714
" />
<path d="M101.8137 94.0258
L106.9048 94.0258
" />
<path d="M116.2183 47.2215
L116.2183 52.3126
" />
<path d="M113.6728 49.7670
L118.7639 49.7670
" />
<path d="M180.7838 47.2215
L180.7838 52.3126
" />
<path d="M178.2382 49.7670
L183.3294 49.7670
" />
<path d="M192.6429 91.4802
L192.6429 96.5714
" />
<path d="M190.0973 94.0258
L195.1885 94.0258
" />
<path d="M214.7723 85.5507
L214.7723 90.6418
" />
<path d="M212.2267 88.0963
L217.3179 88.0963
" />
<path d="M247.1720 29.4328
L247.1720 34.5239
" />
<path d="M244.6264 31.9784
L249.7175 31.9784
" />
</g>
<g style="fill:#000000; fill-opacity:0.0; 
stroke:#000000; stroke-width:0.2000; stroke-opacity:1; 
stroke-linecap:round; stroke-linejoin:round;">
<text x="24.8519" y="124.2043"
textLength="14.8667" font-size="2.6667" lengthAdjust="spacingAndGlyphs"
text-anchor="start" opacity="0">Drill Map:</text>
<g class="stroked-text"><desc>Drill Map:</desc>
<path d="M25.4596 124.1192
L25.4596 122.1192
" />
<path d="M25.4596 122.1192
L25.9358 122.1192
" />
<path d="M25.9358 122.1192
L26.2215 122.2144
" />
<path d="M26.2215 122.2144
L26.4120 122.4049
" />
<path d="M26.4120 122.4049
L26.5072 122.5953
" />
<path d="M26.5072 122.5953
L26.6025 122.9763
" />
<path d="M26.6025 122.9763
L26.6025 123.2620
" />
<path d="M26.6025 123.2620
L26.5072 123.6430
" />
<path d="M26.5072 123.6430
L26.4120 123.8334
" />
<path d="M26.4120 123.8334
L26.2215 124.0239
" />
<path d="M26.2215 124.0239
L25.9358 124.1192
" />
<path d="M25.9358 124.1192
L25.4596 124.1192
" />
<path d="M27.4596 124.1192
L27.4596 122.7858
" />
<path d="M27.4596 123.1668
L27.5549 122.9763
" />
<path d="M27.5549 122.9763
L27.6501 122.8811
" />
<path d="M27.6501 122.8811
L27.8406 122.7858
" />
<path d="M27.8406 122.7858
L28.0311 122.7858
" />
<path d="M28.6977 124.1192
L28.6977 122.7858
" />
<path d="M28.6977 122.1192
L28.6025 122.2144
" />
<path d="M28.6025 122.2144
L28.6977 122.3096
" />
<path d="M28.6977 122.3096
L28.7930 122.2144
" />
<path d="M28.7930 122.2144
L28.6977 122.1192
" />
<path d="M28.6977 122.1192
L28.6977 122.3096
" />
<path d="M29.9358 124.1192
L29.7453 124.0239
" />
<path d="M29.7453 124.0239
L29.6501 123.8334
" />
<path d="M29.6501 123.8334
L29.6501 122.1192
" />
<path d="M30.9834 124.1192
L30.7930 124.0239
" />
<path d="M30.7930 124.0239
L30.6977 123.8334
" />
<path d="M30.6977 123.8334
L30.6977 122.1192
" />
<path d="M33.2692 124.1192
L33.2692 122.1192
" />
<path d="M33.2692 122.1192
L33.9358 123.5477
" />
<path d="M33.9358 123.5477
L34.6025 122.1192
" />
<path d="M34.6025 122.1192
L34.6025 124.1192
" />
<path d="M36.4120 124.1192
L36.4120 123.0715
" />
<path d="M36.4120 123.0715
L36.3168 122.8811
" />
<path d="M36.3168 122.8811
L36.1263 122.7858
" />
<path d="M36.1263 122.7858
L35.7453 122.7858
" />
<path d="M35.7453 122.7858
L35.5549 122.8811
" />
<path d="M36.4120 124.0239
L36.2215 124.1192
" />
<path d="M36.2215 124.1192
L35.7453 124.1192
" />
<path d="M35.7453 124.1192
L35.5549 124.0239
" />
<path d="M35.5549 124.0239
L35.4596 123.8334
" />
<path d="M35.4596 123.8334
L35.4596 123.6430
" />
<path d="M35.4596 123.6430
L35.5549 123.4525
" />
<path d="M35.5549 123.4525
L35.7453 123.3573
" />
<path d="M35.7453 123.3573
L36.2215 123.3573
" />
<path d="M36.2215 123.3573
L36.4120 123.2620
" />
<path d="M37.3644 122.7858
L37.3644 124.7858
" />
<path d="M37.3644 122.8811
L37.5549 122.7858
" />
<path d="M37.5549 122.7858
L37.9358 122.7858
" />
<path d="M37.9358 122.7858
L38.1263 122.8811
" />
<path d="M38.1263 122.8811
L38.2215 122.9763
" />
<path d="M38.2215 122.9763
L38.3168 123.1668
" />
<path d="M38.3168 123.1668
L38.3168 123.7382
" />
<path d="M38.3168 123.7382
L38.2215 123.9287
" />
<path d="M38.2215 123.9287
L38.1263 124.0239
" />
<path d="M38.1263 124.0239
L37.9358 124.1192
" />
<path d="M37.9358 124.1192
L37.5549 124.1192
" />
<path d="M37.5549 124.1192
L37.3644 124.0239
" />
<path d="M39.1739 123.9287
L39.2692 124.0239
" />
<path d="M39.2692 124.0239
L39.1739 124.1192
" />
<path d="M39.1739 124.1192
L39.0787 124.0239
" />
<path d="M39.0787 124.0239
L39.1739 123.9287
" />
<path d="M39.1739 123.9287
L39.1739 124.1192
" />
<path d="M39.1739 122.8811
L39.2692 122.9763
" />
<path d="M39.2692 122.9763
L39.1739 123.0715
" />
<path d="M39.1739 123.0715
L39.0787 122.9763
" />
<path d="M39.0787 122.9763
L39.1739 122.8811
" />
<path d="M39.1739 122.8811
L39.1739 123.0715
" />
</g></g>
<g style="fill:#000000; fill-opacity:0.0; 
stroke:#000000; stroke-width:0.1018; stroke-opacity:1; 
stroke-linecap:round; stroke-linejoin:round;">
<path d="M21.8336 126.8952
L22.8519 127.9134
" />
<path d="M22.8519 126.8952
L21.8336 127.9134
" />
</g>
<g style="fill:#000000; fill-opacity:0.0; 
stroke:#000000; stroke-width:0.5091; stroke-opacity:1; 
stroke-linecap:round; stroke-linejoin:round;">
</g>
<g style="fill:#000000; fill-opacity:0.0; 
stroke:#000000; stroke-width:0.2000; stroke-opacity:1; 
stroke-linecap:round; stroke-linejoin:round;">
<text x="24.8519" y="128.4043"
textLength="50.6762" font-size="2.6667" lengthAdjust="spacingAndGlyphs"
text-anchor="start" opacity="0">0.400mm / 0.0157" (186 holes)</text>
<g class="stroked-text"><desc>0.400mm / 0.0157" (186 holes)</desc>
<path d="M25.8406 126.3192
L26.0311 126.3192
" />
<path d="M26.0311 126.3192
L26.2215 126.4144
" />
<path d="M26.2215 126.4144
L26.3168 126.5096
" />
<path d="M26.3168 126.5096
L26.4120 126.7001
" />
<path d="M26.4120 126.7001
L26.5072 127.0811
" />
<path d="M26.5072 127.0811
L26.5072 127.5573
" />
<path d="M26.5072 127.5573
L26.4120 127.9382
" />
<path d="M26.4120 127.9382
L26.3168 128.1287
" />
<path d="M26.3168 128.1287
L26.2215 128.2239
" />
<path d="M26.2215 128.2239
L26.0311 128.3192
" />
<path d="M26.0311 128.3192
L25.8406 128.3192
" />
<path d="M25.8406 128.3192
L25.6501 128.2239
" />
<path d="M25.6501 128.2239
L25.5549 128.1287
" />
<path d="M25.5549 128.1287
L25.4596 127.9382
" />
<path d="M25.4596 127.9382
L25.3644 127.5573
" />
<path d="M25.3644 127.5573
L25.3644 127.0811
" />
<path d="M25.3644 127.0811
L25.4596 126.7001
" />
<path d="M25.4596 126.7001
L25.5549 126.5096
" />
<path d="M25.5549 126.5096
L25.6501 126.4144
" />
<path d="M25.6501 126.4144
L25.8406 126.3192
" />
<path d="M27.3644 128.1287
L27.4596 128.2239
" />
<path d="M27.4596 128.2239
L27.3644 128.3192
" />
<path d="M27.3644 128.3192
L27.2692 128.2239
" />
<path d="M27.2692 128.2239
L27.3644 128.1287
" />
<path d="M27.3644 128.1287
L27.3644 128.3192
" />
<path d="M29.1739 126.9858
L29.1739 128.3192
" />
<path d="M28.6977 126.2239
L28.2215 127.6525
" />
<path d="M28.2215 127.6525
L29.4596 127.6525
" />
<path d="M30.6025 126.3192
L30.7930 126.3192
" />
<path d="M30.7930 126.3192
L30.9834 126.4144
" />
<path d="M30.9834 126.4144
L31.0787 126.5096
" />
<path d="M31.0787 126.5096
L31.1739 126.7001
" />
<path d="M31.1739 126.7001
L31.2692 127.0811
" />
<path d="M31.2692 127.0811
L31.2692 127.5573
" />
<path d="M31.2692 127.5573
L31.1739 127.9382
" />
<path d="M31.1739 127.9382
L31.0787 128.1287
" />
<path d="M31.0787 128.1287
L30.9834 128.2239
" />
<path d="M30.9834 128.2239
L30.7930 128.3192
" />
<path d="M30.7930 128.3192
L30.6025 128.3192
" />
<path d="M30.6025 128.3192
L30.4120 128.2239
" />
<path d="M30.4120 128.2239
L30.3168 128.1287
" />
<path d="M30.3168 128.1287
L30.2215 127.9382
" />
<path d="M30.2215 127.9382
L30.1263 127.5573
" />
<path d="M30.1263 127.5573
L30.1263 127.0811
" />
<path d="M30.1263 127.0811
L30.2215 126.7001
" />
<path d="M30.2215 126.7001
L30.3168 126.5096
" />
<path d="M30.3168 126.5096
L30.4120 126.4144
" />
<path d="M30.4120 126.4144
L30.6025 126.3192
" />
<path d="M32.5072 126.3192
L32.6977 126.3192
" />
<path d="M32.6977 126.3192
L32.8882 126.4144
" />
<path d="M32.8882 126.4144
L32.9834 126.5096
" />
<path d="M32.9834 126.5096
L33.0787 126.7001
" />
<path d="M33.0787 126.7001
L33.1739 127.0811
" />
<path d="M33.1739 127.0811
L33.1739 127.5573
" />
<path d="M33.1739 127.5573
L33.0787 127.9382
" />
<path d="M33.0787 127.9382
L32.9834 128.1287
" />
<path d="M32.9834 128.1287
L32.8882 128.2239
" />
<path d="M32.8882 128.2239
L32.6977 128.3192
" />
<path d="M32.6977 128.3192
L32.5072 128.3192
" />
<path d="M32.5072 128.3192
L32.3168 128.2239
" />
<path d="M32.3168 128.2239
L32.2215 128.1287
" />
<path d="M32.2215 128.1287
L32.1263 127.9382
" />
<path d="M32.1263 127.9382
L32.0311 127.5573
" />
<path d="M32.0311 127.5573
L32.0311 127.0811
" />
<path d="M32.0311 127.0811
L32.1263 126.7001
" />
<path d="M32.1263 126.7001
L32.2215 126.5096
" />
<path d="M32.2215 126.5096
L32.3168 126.4144
" />
<path d="M32.3168 126.4144
L32.5072 126.3192
" />
<path d="M34.0311 128.3192
L34.0311 126.9858
" />
<path d="M34.0311 127.1763
L34.1263 127.0811
" />
<path d="M34.1263 127.0811
L34.3168 126.9858
" />
<path d="M34.3168 126.9858
L34.6025 126.9858
" />
<path d="M34.6025 126.9858
L34.7930 127.0811
" />
<path d="M34.7930 127.0811
L34.8882 127.2715
" />
<path d="M34.8882 127.2715
L34.8882 128.3192
" />
<path d="M34.8882 127.2715
L34.9834 127.0811
" />
<path d="M34.9834 127.0811
L35.1739 126.9858
" />
<path d="M35.1739 126.9858
L35.4596 126.9858
" />
<path d="M35.4596 126.9858
L35.6501 127.0811
" />
<path d="M35.6501 127.0811
L35.7453 127.2715
" />
<path d="M35.7453 127.2715
L35.7453 128.3192
" />
<path d="M36.6977 128.3192
L36.6977 126.9858
" />
<path d="M36.6977 127.1763
L36.7930 127.0811
" />
<path d="M36.7930 127.0811
L36.9834 126.9858
" />
<path d="M36.9834 126.9858
L37.2692 126.9858
" />
<path d="M37.2692 126.9858
L37.4596 127.0811
" />
<path d="M37.4596 127.0811
L37.5549 127.2715
" />
<path d="M37.5549 127.2715
L37.5549 128.3192
" />
<path d="M37.5549 127.2715
L37.6501 127.0811
" />
<path d="M37.6501 127.0811
L37.8406 126.9858
" />
<path d="M37.8406 126.9858
L38.1263 126.9858
" />
<path d="M38.1263 126.9858
L38.3168 127.0811
" />
<path d="M38.3168 127.0811
L38.4120 127.2715
" />
<path d="M38.4120 127.2715
L38.4120 128.3192
" />
<path d="M42.3168 126.2239
L40.6025 128.7953
" />
<path d="M44.8882 126.3192
L45.0787 126.3192
" />
<path d="M45.0787 126.3192
L45.2692 126.4144
" />
<path d="M45.2692 126.4144
L45.3644 126.5096
" />
<path d="M45.3644 126.5096
L45.4596 126.7001
" />
<path d="M45.4596 126.7001
L45.5549 127.0811
" />
<path d="M45.5549 127.0811
L45.5549 127.5573
" />
<path d="M45.5549 127.5573
L45.4596 127.9382
" />
<path d="M45.4596 127.9382
L45.3644 128.1287
" />
<path d="M45.3644 128.1287
L45.2692 128.2239
" />
<path d="M45.2692 128.2239
L45.0787 128.3192
" />
<path d="M45.0787 128.3192
L44.8882 128.3192
" />
<path d="M44.8882 128.3192
L44.6977 128.2239
" />
<path d="M44.6977 128.2239
L44.6025 128.1287
" />
<path d="M44.6025 128.1287
L44.5073 127.9382
" />
<path d="M44.5073 127.9382
L44.4120 127.5573
" />
<path d="M44.4120 127.5573
L44.4120 127.0811
" />
<path d="M44.4120 127.0811
L44.5073 126.7001
" />
<path d="M44.5073 126.7001
L44.6025 126.5096
" />
<path d="M44.6025 126.5096
L44.6977 126.4144
" />
<path d="M44.6977 126.4144
L44.8882 126.3192
" />
<path d="M46.4120 128.1287
L46.5073 128.2239
" />
<path d="M46.5073 128.2239
L46.4120 128.3192
" />
<path d="M46.4120 128.3192
L46.3168 128.2239
" />
<path d="M46.3168 128.2239
L46.4120 128.1287
" />
<path d="M46.4120 128.1287
L46.4120 128.3192
" />
<path d="M47.7453 126.3192
L47.9358 126.3192
" />
<path d="M47.9358 126.3192
L48.1263 126.4144
" />
<path d="M48.1263 126.4144
L48.2215 126.5096
" />
<path d="M48.2215 126.5096
L48.3168 126.7001
" />
<path d="M48.3168 126.7001
L48.4120 127.0811
" />
<path d="M48.4120 127.0811
L48.4120 127.5573
" />
<path d="M48.4120 127.5573
L48.3168 127.9382
" />
<path d="M48.3168 127.9382
L48.2215 128.1287
" />
<path d="M48.2215 128.1287
L48.1263 128.2239
" />
<path d="M48.1263 128.2239
L47.9358 128.3192
" />
<path d="M47.9358 128.3192
L47.7453 128.3192
" />
<path d="M47.7453 128.3192
L47.5549 128.2239
" />
<path d="M47.5549 128.2239
L47.4596 128.1287
" />
<path d="M47.4596 128.1287
L47.3644 127.9382
" />
<path d="M47.3644 127.9382
L47.2692 127.5573
" />
<path d="M47.2692 127.5573
L47.2692 127.0811
" />
<path d="M47.2692 127.0811
L47.3644 126.7001
" />
<path d="M47.3644 126.7001
L47.4596 126.5096
" />
<path d="M47.4596 126.5096
L47.5549 126.4144
" />
<path d="M47.5549 126.4144
L47.7453 126.3192
" />
<path d="M50.3168 128.3192
L49.1739 128.3192
" />
<path d="M49.7453 128.3192
L49.7453 126.3192
" />
<path d="M49.7453 126.3192
L49.5549 126.6049
" />
<path d="M49.5549 126.6049
L49.3644 126.7953
" />
<path d="M49.3644 126.7953
L49.1739 126.8906
" />
<path d="M52.1263 126.3192
L51.1739 126.3192
" />
<path d="M51.1739 126.3192
L51.0787 127.2715
" />
<path d="M51.0787 127.2715
L51.1739 127.1763
" />
<path d="M51.1739 127.1763
L51.3644 127.0811
" />
<path d="M51.3644 127.0811
L51.8406 127.0811
" />
<path d="M51.8406 127.0811
L52.0311 127.1763
" />
<path d="M52.0311 127.1763
L52.1263 127.2715
" />
<path d="M52.1263 127.2715
L52.2215 127.4620
" />
<path d="M52.2215 127.4620
L52.2215 127.9382
" />
<path d="M52.2215 127.9382
L52.1263 128.1287
" />
<path d="M52.1263 128.1287
L52.0311 128.2239
" />
<path d="M52.0311 128.2239
L51.8406 128.3192
" />
<path d="M51.8406 128.3192
L51.3644 128.3192
" />
<path d="M51.3644 128.3192
L51.1739 128.2239
" />
<path d="M51.1739 128.2239
L51.0787 128.1287
" />
<path d="M52.8882 126.3192
L54.2215 126.3192
" />
<path d="M54.2215 126.3192
L53.3644 128.3192
" />
<path d="M54.8882 126.3192
L54.8882 126.7001
" />
<path d="M55.6501 126.3192
L55.6501 126.7001
" />
<path d="M58.6025 129.0811
L58.5073 128.9858
" />
<path d="M58.5073 128.9858
L58.3168 128.7001
" />
<path d="M58.3168 128.7001
L58.2215 128.5096
" />
<path d="M58.2215 128.5096
L58.1263 128.2239
" />
<path d="M58.1263 128.2239
L58.0311 127.7477
" />
<path d="M58.0311 127.7477
L58.0311 127.3668
" />
<path d="M58.0311 127.3668
L58.1263 126.8906
" />
<path d="M58.1263 126.8906
L58.2215 126.6049
" />
<path d="M58.2215 126.6049
L58.3168 126.4144
" />
<path d="M58.3168 126.4144
L58.5073 126.1287
" />
<path d="M58.5073 126.1287
L58.6025 126.0334
" />
<path d="M60.4120 128.3192
L59.2692 128.3192
" />
<path d="M59.8406 128.3192
L59.8406 126.3192
" />
<path d="M59.8406 126.3192
L59.6501 126.6049
" />
<path d="M59.6501 126.6049
L59.4596 126.7953
" />
<path d="M59.4596 126.7953
L59.2692 126.8906
" />
<path d="M61.5549 127.1763
L61.3644 127.0811
" />
<path d="M61.3644 127.0811
L61.2692 126.9858
" />
<path d="M61.2692 126.9858
L61.1739 126.7953
" />
<path d="M61.1739 126.7953
L61.1739 126.7001
" />
<path d="M61.1739 126.7001
L61.2692 126.5096
" />
<path d="M61.2692 126.5096
L61.3644 126.4144
" />
<path d="M61.3644 126.4144
L61.5549 126.3192
" />
<path d="M61.5549 126.3192
L61.9358 126.3192
" />
<path d="M61.9358 126.3192
L62.1263 126.4144
" />
<path d="M62.1263 126.4144
L62.2215 126.5096
" />
<path d="M62.2215 126.5096
L62.3168 126.7001
" />
<path d="M62.3168 126.7001
L62.3168 126.7953
" />
<path d="M62.3168 126.7953
L62.2215 126.9858
" />
<path d="M62.2215 126.9858
L62.1263 127.0811
" />
<path d="M62.1263 127.0811
L61.9358 127.1763
" />
<path d="M61.9358 127.1763
L61.5549 127.1763
" />
<path d="M61.5549 127.1763
L61.3644 127.2715
" />
<path d="M61.3644 127.2715
L61.2692 127.3668
" />
<path d="M61.2692 127.3668
L61.1739 127.5573
" />
<path d="M61.1739 127.5573
L61.1739 127.9382
" />
<path d="M61.1739 127.9382
L61.2692 128.1287
" />
<path d="M61.2692 128.1287
L61.3644 128.2239
" />
<path d="M61.3644 128.2239
L61.5549 128.3192
" />
<path d="M61.5549 128.3192
L61.9358 128.3192
" />
<path d="M61.9358 128.3192
L62.1263 128.2239
" />
<path d="M62.1263 128.2239
L62.2215 128.1287
" />
<path d="M62.2215 128.1287
L62.3168 127.9382
" />
<path d="M62.3168 127.9382
L62.3168 127.5573
" />
<path d="M62.3168 127.5573
L62.2215 127.3668
" />
<path d="M62.2215 127.3668
L62.1263 127.2715
" />
<path d="M62.1263 127.2715
L61.9358 127.1763
" />
<path d="M64.0311 126.3192
L63.6501 126.3192
" />
<path d="M63.6501 126.3192
L63.4596 126.4144
" />
<path d="M63.4596 126.4144
L63.3644 126.5096
" />
<path d="M63.3644 126.5096
L63.1739 126.7953
" />
<path d="M63.1739 126.7953
L63.0787 127.1763
" />
<path d="M63.0787 127.1763
L63.0787 127.9382
" />
<path d="M63.0787 127.9382
L63.1739 128.1287
" />
<path d="M63.1739 128.1287
L63.2692 128.2239
" />
<path d="M63.2692 128.2239
L63.4596 128.3192
" />
<path d="M63.4596 128.3192
L63.8406 128.3192
" />
<path d="M63.8406 128.3192
L64.0311 128.2239
" />
<path d="M64.0311 128.2239
L64.1263 128.1287
" />
<path d="M64.1263 128.1287
L64.2215 127.9382
" />
<path d="M64.2215 127.9382
L64.2215 127.4620
" />
<path d="M64.2215 127.4620
L64.1263 127.2715
" />
<path d="M64.1263 127.2715
L64.0311 127.1763
" />
<path d="M64.0311 127.1763
L63.8406 127.0811
" />
<path d="M63.8406 127.0811
L63.4596 127.0811
" />
<path d="M63.4596 127.0811
L63.2692 127.1763
" />
<path d="M63.2692 127.1763
L63.1739 127.2715
" />
<path d="M63.1739 127.2715
L63.0787 127.4620
" />
<path d="M66.6025 128.3192
L66.6025 126.3192
" />
<path d="M67.4596 128.3192
L67.4596 127.2715
" />
<path d="M67.4596 127.2715
L67.3644 127.0811
" />
<path d="M67.3644 127.0811
L67.1739 126.9858
" />
<path d="M67.1739 126.9858
L66.8882 126.9858
" />
<path d="M66.8882 126.9858
L66.6977 127.0811
" />
<path d="M66.6977 127.0811
L66.6025 127.1763
" />
<path d="M68.6977 128.3192
L68.5073 128.2239
" />
<path d="M68.5073 128.2239
L68.4120 128.1287
" />
<path d="M68.4120 128.1287
L68.3168 127.9382
" />
<path d="M68.3168 127.9382
L68.3168 127.3668
" />
<path d="M68.3168 127.3668
L68.4120 127.1763
" />
<path d="M68.4120 127.1763
L68.5073 127.0811
" />
<path d="M68.5073 127.0811
L68.6977 126.9858
" />
<path d="M68.6977 126.9858
L68.9834 126.9858
" />
<path d="M68.9834 126.9858
L69.1739 127.0811
" />
<path d="M69.1739 127.0811
L69.2692 127.1763
" />
<path d="M69.2692 127.1763
L69.3644 127.3668
" />
<path d="M69.3644 127.3668
L69.3644 127.9382
" />
<path d="M69.3644 127.9382
L69.2692 128.1287
" />
<path d="M69.2692 128.1287
L69.1739 128.2239
" />
<path d="M69.1739 128.2239
L68.9834 128.3192
" />
<path d="M68.9834 128.3192
L68.6977 128.3192
" />
<path d="M70.5073 128.3192
L70.3168 128.2239
" />
<path d="M70.3168 128.2239
L70.2215 128.0334
" />
<path d="M70.2215 128.0334
L70.2215 126.3192
" />
<path d="M72.0311 128.2239
L71.8406 128.3192
" />
<path d="M71.8406 128.3192
L71.4596 128.3192
" />
<path d="M71.4596 128.3192
L71.2692 128.2239
" />
<path d="M71.2692 128.2239
L71.1739 128.0334
" />
<path d="M71.1739 128.0334
L71.1739 127.2715
" />
<path d="M71.1739 127.2715
L71.2692 127.0811
" />
<path d="M71.2692 127.0811
L71.4596 126.9858
" />
<path d="M71.4596 126.9858
L71.8406 126.9858
" />
<path d="M71.8406 126.9858
L72.0311 127.0811
" />
<path d="M72.0311 127.0811
L72.1263 127.2715
" />
<path d="M72.1263 127.2715
L72.1263 127.4620
" />
<path d="M72.1263 127.4620
L71.1739 127.6525
" />
<path d="M72.8882 128.2239
L73.0787 128.3192
" />
<path d="M73.0787 128.3192
L73.4596 128.3192
" />
<path d="M73.4596 128.3192
L73.6501 128.2239
" />
<path d="M73.6501 128.2239
L73.7454 128.0334
" />
<path d="M73.7454 128.0334
L73.7454 127.9382
" />
<path d="M73.7454 127.9382
L73.6501 127.7477
" />
<path d="M73.6501 127.7477
L73.4596 127.6525
" />
<path d="M73.4596 127.6525
L73.1739 127.6525
" />
<path d="M73.1739 127.6525
L72.9835 127.5573
" />
<path d="M72.9835 127.5573
L72.8882 127.3668
" />
<path d="M72.8882 127.3668
L72.8882 127.2715
" />
<path d="M72.8882 127.2715
L72.9835 127.0811
" />
<path d="M72.9835 127.0811
L73.1739 126.9858
" />
<path d="M73.1739 126.9858
L73.4596 126.9858
" />
<path d="M73.4596 126.9858
L73.6501 127.0811
" />
<path d="M74.4120 129.0811
L74.5073 128.9858
" />
<path d="M74.5073 128.9858
L74.6977 128.7001
" />
<path d="M74.6977 128.7001
L74.7930 128.5096
" />
<path d="M74.7930 128.5096
L74.8882 128.2239
" />
<path d="M74.8882 128.2239
L74.9834 127.7477
" />
<path d="M74.9834 127.7477
L74.9834 127.3668
" />
<path d="M74.9834 127.3668
L74.8882 126.8906
" />
<path d="M74.8882 126.8906
L74.7930 126.6049
" />
<path d="M74.7930 126.6049
L74.6977 126.4144
" />
<path d="M74.6977 126.4144
L74.5073 126.1287
" />
<path d="M74.5073 126.1287
L74.4120 126.0334
" />
</g></g>
<g style="fill:#000000; fill-opacity:0.0; 
stroke:#000000; stroke-width:0.1527; stroke-opacity:1; 
stroke-linecap:round; stroke-linejoin:round;">
<circle cx="22.0882" cy="130.0443" r="0.7637" /> 
</g>
<g style="fill:#000000; fill-opacity:0.0; 
stroke:#000000; stroke-width:0.5091; stroke-opacity:1; 
stroke-linecap:round; stroke-linejoin:round;">
</g>
<g style="fill:#000000; fill-opacity:0.0; 
stroke:#000000; stroke-width:0.2000; stroke-opacity:1; 
stroke-linecap:round; stroke-linejoin:round;">
<text x="24.8519" y="131.0443"
textLength="63.0572" font-size="2.6667" lengthAdjust="spacingAndGlyphs"
text-anchor="start" opacity="0">0.600mm / 0.0236" (0 holes + 4 slots)</text>
<g class="stroked-text"><desc>0.600mm / 0.0236" (0 holes + 4 slots)</desc>
<path d="M25.8406 128.9592
L26.0311 128.9592
" />
<path d="M26.0311 128.9592
L26.2215 129.0544
" />
<path d="M26.2215 129.0544
L26.3168 129.1496
" />
<path d="M26.3168 129.1496
L26.4120 129.3401
" />
<path d="M26.4120 129.3401
L26.5072 129.7211
" />
<path d="M26.5072 129.7211
L26.5072 130.1973
" />
<path d="M26.5072 130.1973
L26.4120 130.5782
" />
<path d="M26.4120 130.5782
L26.3168 130.7687
" />
<path d="M26.3168 130.7687
L26.2215 130.8639
" />
<path d="M26.2215 130.8639
L26.0311 130.9592
" />
<path d="M26.0311 130.9592
L25.8406 130.9592
" />
<path d="M25.8406 130.9592
L25.6501 130.8639
" />
<path d="M25.6501 130.8639
L25.5549 130.7687
" />
<path d="M25.5549 130.7687
L25.4596 130.5782
" />
<path d="M25.4596 130.5782
L25.3644 130.1973
" />
<path d="M25.3644 130.1973
L25.3644 129.7211
" />
<path d="M25.3644 129.7211
L25.4596 129.3401
" />
<path d="M25.4596 129.3401
L25.5549 129.1496
" />
<path d="M25.5549 129.1496
L25.6501 129.0544
" />
<path d="M25.6501 129.0544
L25.8406 128.9592
" />
<path d="M27.3644 130.7687
L27.4596 130.8639
" />
<path d="M27.4596 130.8639
L27.3644 130.9592
" />
<path d="M27.3644 130.9592
L27.2692 130.8639
" />
<path d="M27.2692 130.8639
L27.3644 130.7687
" />
<path d="M27.3644 130.7687
L27.3644 130.9592
" />
<path d="M29.1739 128.9592
L28.7930 128.9592
" />
<path d="M28.7930 128.9592
L28.6025 129.0544
" />
<path d="M28.6025 129.0544
L28.5072 129.1496
" />
<path d="M28.5072 129.1496
L28.3168 129.4353
" />
<path d="M28.3168 129.4353
L28.2215 129.8163
" />
<path d="M28.2215 129.8163
L28.2215 130.5782
" />
<path d="M28.2215 130.5782
L28.3168 130.7687
" />
<path d="M28.3168 130.7687
L28.4120 130.8639
" />
<path d="M28.4120 130.8639
L28.6025 130.9592
" />
<path d="M28.6025 130.9592
L28.9834 130.9592
" />
<path d="M28.9834 130.9592
L29.1739 130.8639
" />
<path d="M29.1739 130.8639
L29.2692 130.7687
" />
<path d="M29.2692 130.7687
L29.3644 130.5782
" />
<path d="M29.3644 130.5782
L29.3644 130.1020
" />
<path d="M29.3644 130.1020
L29.2692 129.9115
" />
<path d="M29.2692 129.9115
L29.1739 129.8163
" />
<path d="M29.1739 129.8163
L28.9834 129.7211
" />
<path d="M28.9834 129.7211
L28.6025 129.7211
" />
<path d="M28.6025 129.7211
L28.4120 129.8163
" />
<path d="M28.4120 129.8163
L28.3168 129.9115
" />
<path d="M28.3168 129.9115
L28.2215 130.1020
" />
<path d="M30.6025 128.9592
L30.7930 128.9592
" />
<path d="M30.7930 128.9592
L30.9834 129.0544
" />
<path d="M30.9834 129.0544
L31.0787 129.1496
" />
<path d="M31.0787 129.1496
L31.1739 129.3401
" />
<path d="M31.1739 129.3401
L31.2692 129.7211
" />
<path d="M31.2692 129.7211
L31.2692 130.1973
" />
<path d="M31.2692 130.1973
L31.1739 130.5782
" />
<path d="M31.1739 130.5782
L31.0787 130.7687
" />
<path d="M31.0787 130.7687
L30.9834 130.8639
" />
<path d="M30.9834 130.8639
L30.7930 130.9592
" />
<path d="M30.7930 130.9592
L30.6025 130.9592
" />
<path d="M30.6025 130.9592
L30.4120 130.8639
" />
<path d="M30.4120 130.8639
L30.3168 130.7687
" />
<path d="M30.3168 130.7687
L30.2215 130.5782
" />
<path d="M30.2215 130.5782
L30.1263 130.1973
" />
<path d="M30.1263 130.1973
L30.1263 129.7211
" />
<path d="M30.1263 129.7211
L30.2215 129.3401
" />
<path d="M30.2215 129.3401
L30.3168 129.1496
" />
<path d="M30.3168 129.1496
L30.4120 129.0544
" />
<path d="M30.4120 129.0544
L30.6025 128.9592
" />
<path d="M32.5072 128.9592
L32.6977 128.9592
" />
<path d="M32.6977 128.9592
L32.8882 129.0544
" />
<path d="M32.8882 129.0544
L32.9834 129.1496
" />
<path d="M32.9834 129.1496
L33.0787 129.3401
" />
<path d="M33.0787 129.3401
L33.1739 129.7211
" />
<path d="M33.1739 129.7211
L33.1739 130.1973
" />
<path d="M33.1739 130.1973
L33.0787 130.5782
" />
<path d="M33.0787 130.5782
L32.9834 130.7687
" />
<path d="M32.9834 130.7687
L32.8882 130.8639
" />
<path d="M32.8882 130.8639
L32.6977 130.9592
" />
<path d="M32.6977 130.9592
L32.5072 130.9592
" />
<path d="M32.5072 130.9592
L32.3168 130.8639
" />
<path d="M32.3168 130.8639
L32.2215 130.7687
" />
<path d="M32.2215 130.7687
L32.1263 130.5782
" />
<path d="M32.1263 130.5782
L32.0311 130.1973
" />
<path d="M32.0311 130.1973
L32.0311 129.7211
" />
<path d="M32.0311 129.7211
L32.1263 129.3401
" />
<path d="M32.1263 129.3401
L32.2215 129.1496
" />
<path d="M32.2215 129.1496
L32.3168 129.0544
" />
<path d="M32.3168 129.0544
L32.5072 128.9592
" />
<path d="M34.0311 130.9592
L34.0311 129.6258
" />
<path d="M34.0311 129.8163
L34.1263 129.7211
" />
<path d="M34.1263 129.7211
L34.3168 129.6258
" />
<path d="M34.3168 129.6258
L34.6025 129.6258
" />
<path d="M34.6025 129.6258
L34.7930 129.7211
" />
<path d="M34.7930 129.7211
L34.8882 129.9115
" />
<path d="M34.8882 129.9115
L34.8882 130.9592
" />
<path d="M34.8882 129.9115
L34.9834 129.7211
" />
<path d="M34.9834 129.7211
L35.1739 129.6258
" />
<path d="M35.1739 129.6258
L35.4596 129.6258
" />
<path d="M35.4596 129.6258
L35.6501 129.7211
" />
<path d="M35.6501 129.7211
L35.7453 129.9115
" />
<path d="M35.7453 129.9115
L35.7453 130.9592
" />
<path d="M36.6977 130.9592
L36.6977 129.6258
" />
<path d="M36.6977 129.8163
L36.7930 129.7211
" />
<path d="M36.7930 129.7211
L36.9834 129.6258
" />
<path d="M36.9834 129.6258
L37.2692 129.6258
" />
<path d="M37.2692 129.6258
L37.4596 129.7211
" />
<path d="M37.4596 129.7211
L37.5549 129.9115
" />
<path d="M37.5549 129.9115
L37.5549 130.9592
" />
<path d="M37.5549 129.9115
L37.6501 129.7211
" />
<path d="M37.6501 129.7211
L37.8406 129.6258
" />
<path d="M37.8406 129.6258
L38.1263 129.6258
" />
<path d="M38.1263 129.6258
L38.3168 129.7211
" />
<path d="M38.3168 129.7211
L38.4120 129.9115
" />
<path d="M38.4120 129.9115
L38.4120 130.9592
" />
<path d="M42.3168 128.8639
L40.6025 131.4353
" />
<path d="M44.8882 128.9592
L45.0787 128.9592
" />
<path d="M45.0787 128.9592
L45.2692 129.0544
" />
<path d="M45.2692 129.0544
L45.3644 129.1496
" />
<path d="M45.3644 129.1496
L45.4596 129.3401
" />
<path d="M45.4596 129.3401
L45.5549 129.7211
" />
<path d="M45.5549 129.7211
L45.5549 130.1973
" />
<path d="M45.5549 130.1973
L45.4596 130.5782
" />
<path d="M45.4596 130.5782
L45.3644 130.7687
" />
<path d="M45.3644 130.7687
L45.2692 130.8639
" />
<path d="M45.2692 130.8639
L45.0787 130.9592
" />
<path d="M45.0787 130.9592
L44.8882 130.9592
" />
<path d="M44.8882 130.9592
L44.6977 130.8639
" />
<path d="M44.6977 130.8639
L44.6025 130.7687
" />
<path d="M44.6025 130.7687
L44.5073 130.5782
" />
<path d="M44.5073 130.5782
L44.4120 130.1973
" />
<path d="M44.4120 130.1973
L44.4120 129.7211
" />
<path d="M44.4120 129.7211
L44.5073 129.3401
" />
<path d="M44.5073 129.3401
L44.6025 129.1496
" />
<path d="M44.6025 129.1496
L44.6977 129.0544
" />
<path d="M44.6977 129.0544
L44.8882 128.9592
" />
<path d="M46.4120 130.7687
L46.5073 130.8639
" />
<path d="M46.5073 130.8639
L46.4120 130.9592
" />
<path d="M46.4120 130.9592
L46.3168 130.8639
" />
<path d="M46.3168 130.8639
L46.4120 130.7687
" />
<path d="M46.4120 130.7687
L46.4120 130.9592
" />
<path d="M47.7453 128.9592
L47.9358 128.9592
" />
<path d="M47.9358 128.9592
L48.1263 129.0544
" />
<path d="M48.1263 129.0544
L48.2215 129.1496
" />
<path d="M48.2215 129.1496
L48.3168 129.3401
" />
<path d="M48.3168 129.3401
L48.4120 129.7211
" />
<path d="M48.4120 129.7211
L48.4120 130.1973
" />
<path d="M48.4120 130.1973
L48.3168 130.5782
" />
<path d="M48.3168 130.5782
L48.2215 130.7687
" />
<path d="M48.2215 130.7687
L48.1263 130.8639
" />
<path d="M48.1263 130.8639
L47.9358 130.9592
" />
<path d="M47.9358 130.9592
L47.7453 130.9592
" />
<path d="M47.7453 130.9592
L47.5549 130.8639
" />
<path d="M47.5549 130.8639
L47.4596 130.7687
" />
<path d="M47.4596 130.7687
L47.3644 130.5782
" />
<path d="M47.3644 130.5782
L47.2692 130.1973
" />
<path d="M47.2692 130.1973
L47.2692 129.7211
" />
<path d="M47.2692 129.7211
L47.3644 129.3401
" />
<path d="M47.3644 129.3401
L47.4596 129.1496
" />
<path d="M47.4596 129.1496
L47.5549 129.0544
" />
<path d="M47.5549 129.0544
L47.7453 128.9592
" />
<path d="M49.1739 129.1496
L49.2692 129.0544
" />
<path d="M49.2692 129.0544
L49.4596 128.9592
" />
<path d="M49.4596 128.9592
L49.9358 128.9592
" />
<path d="M49.9358 128.9592
L50.1263 129.0544
" />
<path d="M50.1263 129.0544
L50.2215 129.1496
" />
<path d="M50.2215 129.1496
L50.3168 129.3401
" />
<path d="M50.3168 129.3401
L50.3168 129.5306
" />
<path d="M50.3168 129.5306
L50.2215 129.8163
" />
<path d="M50.2215 129.8163
L49.0787 130.9592
" />
<path d="M49.0787 130.9592
L50.3168 130.9592
" />
<path d="M50.9834 128.9592
L52.2215 128.9592
" />
<path d="M52.2215 128.9592
L51.5549 129.7211
" />
<path d="M51.5549 129.7211
L51.8406 129.7211
" />
<path d="M51.8406 129.7211
L52.0311 129.8163
" />
<path d="M52.0311 129.8163
L52.1263 129.9115
" />
<path d="M52.1263 129.9115
L52.2215 130.1020
" />
<path d="M52.2215 130.1020
L52.2215 130.5782
" />
<path d="M52.2215 130.5782
L52.1263 130.7687
" />
<path d="M52.1263 130.7687
L52.0311 130.8639
" />
<path d="M52.0311 130.8639
L51.8406 130.9592
" />
<path d="M51.8406 130.9592
L51.2692 130.9592
" />
<path d="M51.2692 130.9592
L51.0787 130.8639
" />
<path d="M51.0787 130.8639
L50.9834 130.7687
" />
<path d="M53.9358 128.9592
L53.5549 128.9592
" />
<path d="M53.5549 128.9592
L53.3644 129.0544
" />
<path d="M53.3644 129.0544
L53.2692 129.1496
" />
<path d="M53.2692 129.1496
L53.0787 129.4353
" />
<path d="M53.0787 129.4353
L52.9834 129.8163
" />
<path d="M52.9834 129.8163
L52.9834 130.5782
" />
<path d="M52.9834 130.5782
L53.0787 130.7687
" />
<path d="M53.0787 130.7687
L53.1739 130.8639
" />
<path d="M53.1739 130.8639
L53.3644 130.9592
" />
<path d="M53.3644 130.9592
L53.7453 130.9592
" />
<path d="M53.7453 130.9592
L53.9358 130.8639
" />
<path d="M53.9358 130.8639
L54.0311 130.7687
" />
<path d="M54.0311 130.7687
L54.1263 130.5782
" />
<path d="M54.1263 130.5782
L54.1263 130.1020
" />
<path d="M54.1263 130.1020
L54.0311 129.9115
" />
<path d="M54.0311 129.9115
L53.9358 129.8163
" />
<path d="M53.9358 129.8163
L53.7453 129.7211
" />
<path d="M53.7453 129.7211
L53.3644 129.7211
" />
<path d="M53.3644 129.7211
L53.1739 129.8163
" />
<path d="M53.1739 129.8163
L53.0787 129.9115
" />
<path d="M53.0787 129.9115
L52.9834 130.1020
" />
<path d="M54.8882 128.9592
L54.8882 129.3401
" />
<path d="M55.6501 128.9592
L55.6501 129.3401
" />
<path d="M58.6025 131.7211
L58.5073 131.6258
" />
<path d="M58.5073 131.6258
L58.3168 131.3401
" />
<path d="M58.3168 131.3401
L58.2215 131.1496
" />
<path d="M58.2215 131.1496
L58.1263 130.8639
" />
<path d="M58.1263 130.8639
L58.0311 130.3877
" />
<path d="M58.0311 130.3877
L58.0311 130.0068
" />
<path d="M58.0311 130.0068
L58.1263 129.5306
" />
<path d="M58.1263 129.5306
L58.2215 129.2449
" />
<path d="M58.2215 129.2449
L58.3168 129.0544
" />
<path d="M58.3168 129.0544
L58.5073 128.7687
" />
<path d="M58.5073 128.7687
L58.6025 128.6734
" />
<path d="M59.7454 128.9592
L59.9358 128.9592
" />
<path d="M59.9358 128.9592
L60.1263 129.0544
" />
<path d="M60.1263 129.0544
L60.2215 129.1496
" />
<path d="M60.2215 129.1496
L60.3168 129.3401
" />
<path d="M60.3168 129.3401
L60.4120 129.7211
" />
<path d="M60.4120 129.7211
L60.4120 130.1973
" />
<path d="M60.4120 130.1973
L60.3168 130.5782
" />
<path d="M60.3168 130.5782
L60.2215 130.7687
" />
<path d="M60.2215 130.7687
L60.1263 130.8639
" />
<path d="M60.1263 130.8639
L59.9358 130.9592
" />
<path d="M59.9358 130.9592
L59.7454 130.9592
" />
<path d="M59.7454 130.9592
L59.5549 130.8639
" />
<path d="M59.5549 130.8639
L59.4596 130.7687
" />
<path d="M59.4596 130.7687
L59.3644 130.5782
" />
<path d="M59.3644 130.5782
L59.2692 130.1973
" />
<path d="M59.2692 130.1973
L59.2692 129.7211
" />
<path d="M59.2692 129.7211
L59.3644 129.3401
" />
<path d="M59.3644 129.3401
L59.4596 129.1496
" />
<path d="M59.4596 129.1496
L59.5549 129.0544
" />
<path d="M59.5549 129.0544
L59.7454 128.9592
" />
<path d="M62.7930 130.9592
L62.7930 128.9592
" />
<path d="M63.6501 130.9592
L63.6501 129.9115
" />
<path d="M63.6501 129.9115
L63.5549 129.7211
" />
<path d="M63.5549 129.7211
L63.3644 129.6258
" />
<path d="M63.3644 129.6258
L63.0787 129.6258
" />
<path d="M63.0787 129.6258
L62.8882 129.7211
" />
<path d="M62.8882 129.7211
L62.7930 129.8163
" />
<path d="M64.8882 130.9592
L64.6977 130.8639
" />
<path d="M64.6977 130.8639
L64.6025 130.7687
" />
<path d="M64.6025 130.7687
L64.5073 130.5782
" />
<path d="M64.5073 130.5782
L64.5073 130.0068
" />
<path d="M64.5073 130.0068
L64.6025 129.8163
" />
<path d="M64.6025 129.8163
L64.6977 129.7211
" />
<path d="M64.6977 129.7211
L64.8882 129.6258
" />
<path d="M64.8882 129.6258
L65.1739 129.6258
" />
<path d="M65.1739 129.6258
L65.3644 129.7211
" />
<path d="M65.3644 129.7211
L65.4596 129.8163
" />
<path d="M65.4596 129.8163
L65.5549 130.0068
" />
<path d="M65.5549 130.0068
L65.5549 130.5782
" />
<path d="M65.5549 130.5782
L65.4596 130.7687
" />
<path d="M65.4596 130.7687
L65.3644 130.8639
" />
<path d="M65.3644 130.8639
L65.1739 130.9592
" />
<path d="M65.1739 130.9592
L64.8882 130.9592
" />
<path d="M66.6977 130.9592
L66.5073 130.8639
" />
<path d="M66.5073 130.8639
L66.4120 130.6734
" />
<path d="M66.4120 130.6734
L66.4120 128.9592
" />
<path d="M68.2215 130.8639
L68.0311 130.9592
" />
<path d="M68.0311 130.9592
L67.6501 130.9592
" />
<path d="M67.6501 130.9592
L67.4596 130.8639
" />
<path d="M67.4596 130.8639
L67.3644 130.6734
" />
<path d="M67.3644 130.6734
L67.3644 129.9115
" />
<path d="M67.3644 129.9115
L67.4596 129.7211
" />
<path d="M67.4596 129.7211
L67.6501 129.6258
" />
<path d="M67.6501 129.6258
L68.0311 129.6258
" />
<path d="M68.0311 129.6258
L68.2215 129.7211
" />
<path d="M68.2215 129.7211
L68.3168 129.9115
" />
<path d="M68.3168 129.9115
L68.3168 130.1020
" />
<path d="M68.3168 130.1020
L67.3644 130.2925
" />
<path d="M69.0787 130.8639
L69.2692 130.9592
" />
<path d="M69.2692 130.9592
L69.6501 130.9592
" />
<path d="M69.6501 130.9592
L69.8406 130.8639
" />
<path d="M69.8406 130.8639
L69.9358 130.6734
" />
<path d="M69.9358 130.6734
L69.9358 130.5782
" />
<path d="M69.9358 130.5782
L69.8406 130.3877
" />
<path d="M69.8406 130.3877
L69.6501 130.2925
" />
<path d="M69.6501 130.2925
L69.3644 130.2925
" />
<path d="M69.3644 130.2925
L69.1739 130.1973
" />
<path d="M69.1739 130.1973
L69.0787 130.0068
" />
<path d="M69.0787 130.0068
L69.0787 129.9115
" />
<path d="M69.0787 129.9115
L69.1739 129.7211
" />
<path d="M69.1739 129.7211
L69.3644 129.6258
" />
<path d="M69.3644 129.6258
L69.6501 129.6258
" />
<path d="M69.6501 129.6258
L69.8406 129.7211
" />
<path d="M72.3168 130.1973
L73.8406 130.1973
" />
<path d="M73.0787 130.9592
L73.0787 129.4353
" />
<path d="M77.1739 129.6258
L77.1739 130.9592
" />
<path d="M76.6977 128.8639
L76.2215 130.2925
" />
<path d="M76.2215 130.2925
L77.4596 130.2925
" />
<path d="M79.6501 130.8639
L79.8406 130.9592
" />
<path d="M79.8406 130.9592
L80.2215 130.9592
" />
<path d="M80.2215 130.9592
L80.4120 130.8639
" />
<path d="M80.4120 130.8639
L80.5073 130.6734
" />
<path d="M80.5073 130.6734
L80.5073 130.5782
" />
<path d="M80.5073 130.5782
L80.4120 130.3877
" />
<path d="M80.4120 130.3877
L80.2215 130.2925
" />
<path d="M80.2215 130.2925
L79.9358 130.2925
" />
<path d="M79.9358 130.2925
L79.7454 130.1973
" />
<path d="M79.7454 130.1973
L79.6501 130.0068
" />
<path d="M79.6501 130.0068
L79.6501 129.9115
" />
<path d="M79.6501 129.9115
L79.7454 129.7211
" />
<path d="M79.7454 129.7211
L79.9358 129.6258
" />
<path d="M79.9358 129.6258
L80.2215 129.6258
" />
<path d="M80.2215 129.6258
L80.4120 129.7211
" />
<path d="M81.6501 130.9592
L81.4596 130.8639
" />
<path d="M81.4596 130.8639
L81.3644 130.6734
" />
<path d="M81.3644 130.6734
L81.3644 128.9592
" />
<path d="M82.6977 130.9592
L82.5073 130.8639
" />
<path d="M82.5073 130.8639
L82.4120 130.7687
" />
<path d="M82.4120 130.7687
L82.3168 130.5782
" />
<path d="M82.3168 130.5782
L82.3168 130.0068
" />
<path d="M82.3168 130.0068
L82.4120 129.8163
" />
<path d="M82.4120 129.8163
L82.5073 129.7211
" />
<path d="M82.5073 129.7211
L82.6977 129.6258
" />
<path d="M82.6977 129.6258
L82.9835 129.6258
" />
<path d="M82.9835 129.6258
L83.1739 129.7211
" />
<path d="M83.1739 129.7211
L83.2692 129.8163
" />
<path d="M83.2692 129.8163
L83.3644 130.0068
" />
<path d="M83.3644 130.0068
L83.3644 130.5782
" />
<path d="M83.3644 130.5782
L83.2692 130.7687
" />
<path d="M83.2692 130.7687
L83.1739 130.8639
" />
<path d="M83.1739 130.8639
L82.9835 130.9592
" />
<path d="M82.9835 130.9592
L82.6977 130.9592
" />
<path d="M83.9358 129.6258
L84.6977 129.6258
" />
<path d="M84.2215 128.9592
L84.2215 130.6734
" />
<path d="M84.2215 130.6734
L84.3168 130.8639
" />
<path d="M84.3168 130.8639
L84.5073 130.9592
" />
<path d="M84.5073 130.9592
L84.6977 130.9592
" />
<path d="M85.2692 130.8639
L85.4596 130.9592
" />
<path d="M85.4596 130.9592
L85.8406 130.9592
" />
<path d="M85.8406 130.9592
L86.0311 130.8639
" />
<path d="M86.0311 130.8639
L86.1263 130.6734
" />
<path d="M86.1263 130.6734
L86.1263 130.5782
" />
<path d="M86.1263 130.5782
L86.0311 130.3877
" />
<path d="M86.0311 130.3877
L85.8406 130.2925
" />
<path d="M85.8406 130.2925
L85.5549 130.2925
" />
<path d="M85.5549 130.2925
L85.3644 130.1973
" />
<path d="M85.3644 130.1973
L85.2692 130.0068
" />
<path d="M85.2692 130.0068
L85.2692 129.9115
" />
<path d="M85.2692 129.9115
L85.3644 129.7211
" />
<path d="M85.3644 129.7211
L85.5549 129.6258
" />
<path d="M85.5549 129.6258
L85.8406 129.6258
" />
<path d="M85.8406 129.6258
L86.0311 129.7211
" />
<path d="M86.7930 131.7211
L86.8882 131.6258
" />
<path d="M86.8882 131.6258
L87.0787 131.3401
" />
<path d="M87.0787 131.3401
L87.1739 131.1496
" />
<path d="M87.1739 131.1496
L87.2692 130.8639
" />
<path d="M87.2692 130.8639
L87.3644 130.3877
" />
<path d="M87.3644 130.3877
L87.3644 130.0068
" />
<path d="M87.3644 130.0068
L87.2692 129.5306
" />
<path d="M87.2692 129.5306
L87.1739 129.2449
" />
<path d="M87.1739 129.2449
L87.0787 129.0544
" />
<path d="M87.0787 129.0544
L86.8882 128.7687
" />
<path d="M86.8882 128.7687
L86.7930 128.6734
" />
</g><path d="M21.8519 131.7717
L21.8519 133.7717
" />
<path d="M20.8519 132.7717
L22.8519 132.7717
" />
</g>
<g style="fill:#000000; fill-opacity:0.0; 
stroke:#000000; stroke-width:0.5091; stroke-opacity:1; 
stroke-linecap:round; stroke-linejoin:round;">
</g>
<g style="fill:#000000; fill-opacity:0.0; 
stroke:#000000; stroke-width:0.2000; stroke-opacity:1; 
stroke-linecap:round; stroke-linejoin:round;">
<text x="24.8519" y="133.7717"
textLength="46.8667" font-size="2.6667" lengthAdjust="spacingAndGlyphs"
text-anchor="start" opacity="0">2.000mm / 0.0787" (8 holes)</text>
<g class="stroked-text"><desc>2.000mm / 0.0787" (8 holes)</desc>
<path d="M25.3644 131.8770
L25.4596 131.7817
" />
<path d="M25.4596 131.7817
L25.6501 131.6865
" />
<path d="M25.6501 131.6865
L26.1263 131.6865
" />
<path d="M26.1263 131.6865
L26.3168 131.7817
" />
<path d="M26.3168 131.7817
L26.4120 131.8770
" />
<path d="M26.4120 131.8770
L26.5072 132.0674
" />
<path d="M26.5072 132.0674
L26.5072 132.2579
" />
<path d="M26.5072 132.2579
L26.4120 132.5436
" />
<path d="M26.4120 132.5436
L25.2692 133.6865
" />
<path d="M25.2692 133.6865
L26.5072 133.6865
" />
<path d="M27.3644 133.4960
L27.4596 133.5913
" />
<path d="M27.4596 133.5913
L27.3644 133.6865
" />
<path d="M27.3644 133.6865
L27.2692 133.5913
" />
<path d="M27.2692 133.5913
L27.3644 133.4960
" />
<path d="M27.3644 133.4960
L27.3644 133.6865
" />
<path d="M28.6977 131.6865
L28.8882 131.6865
" />
<path d="M28.8882 131.6865
L29.0787 131.7817
" />
<path d="M29.0787 131.7817
L29.1739 131.8770
" />
<path d="M29.1739 131.8770
L29.2692 132.0674
" />
<path d="M29.2692 132.0674
L29.3644 132.4484
" />
<path d="M29.3644 132.4484
L29.3644 132.9246
" />
<path d="M29.3644 132.9246
L29.2692 133.3055
" />
<path d="M29.2692 133.3055
L29.1739 133.4960
" />
<path d="M29.1739 133.4960
L29.0787 133.5913
" />
<path d="M29.0787 133.5913
L28.8882 133.6865
" />
<path d="M28.8882 133.6865
L28.6977 133.6865
" />
<path d="M28.6977 133.6865
L28.5072 133.5913
" />
<path d="M28.5072 133.5913
L28.4120 133.4960
" />
<path d="M28.4120 133.4960
L28.3168 133.3055
" />
<path d="M28.3168 133.3055
L28.2215 132.9246
" />
<path d="M28.2215 132.9246
L28.2215 132.4484
" />
<path d="M28.2215 132.4484
L28.3168 132.0674
" />
<path d="M28.3168 132.0674
L28.4120 131.8770
" />
<path d="M28.4120 131.8770
L28.5072 131.7817
" />
<path d="M28.5072 131.7817
L28.6977 131.6865
" />
<path d="M30.6025 131.6865
L30.7930 131.6865
" />
<path d="M30.7930 131.6865
L30.9834 131.7817
" />
<path d="M30.9834 131.7817
L31.0787 131.8770
" />
<path d="M31.0787 131.8770
L31.1739 132.0674
" />
<path d="M31.1739 132.0674
L31.2692 132.4484
" />
<path d="M31.2692 132.4484
L31.2692 132.9246
" />
<path d="M31.2692 132.9246
L31.1739 133.3055
" />
<path d="M31.1739 133.3055
L31.0787 133.4960
" />
<path d="M31.0787 133.4960
L30.9834 133.5913
" />
<path d="M30.9834 133.5913
L30.7930 133.6865
" />
<path d="M30.7930 133.6865
L30.6025 133.6865
" />
<path d="M30.6025 133.6865
L30.4120 133.5913
" />
<path d="M30.4120 133.5913
L30.3168 133.4960
" />
<path d="M30.3168 133.4960
L30.2215 133.3055
" />
<path d="M30.2215 133.3055
L30.1263 132.9246
" />
<path d="M30.1263 132.9246
L30.1263 132.4484
" />
<path d="M30.1263 132.4484
L30.2215 132.0674
" />
<path d="M30.2215 132.0674
L30.3168 131.8770
" />
<path d="M30.3168 131.8770
L30.4120 131.7817
" />
<path d="M30.4120 131.7817
L30.6025 131.6865
" />
<path d="M32.5072 131.6865
L32.6977 131.6865
" />
<path d="M32.6977 131.6865
L32.8882 131.7817
" />
<path d="M32.8882 131.7817
L32.9834 131.8770
" />
<path d="M32.9834 131.8770
L33.0787 132.0674
" />
<path d="M33.0787 132.0674
L33.1739 132.4484
" />
<path d="M33.1739 132.4484
L33.1739 132.9246
" />
<path d="M33.1739 132.9246
L33.0787 133.3055
" />
<path d="M33.0787 133.3055
L32.9834 133.4960
" />
<path d="M32.9834 133.4960
L32.8882 133.5913
" />
<path d="M32.8882 133.5913
L32.6977 133.6865
" />
<path d="M32.6977 133.6865
L32.5072 133.6865
" />
<path d="M32.5072 133.6865
L32.3168 133.5913
" />
<path d="M32.3168 133.5913
L32.2215 133.4960
" />
<path d="M32.2215 133.4960
L32.1263 133.3055
" />
<path d="M32.1263 133.3055
L32.0311 132.9246
" />
<path d="M32.0311 132.9246
L32.0311 132.4484
" />
<path d="M32.0311 132.4484
L32.1263 132.0674
" />
<path d="M32.1263 132.0674
L32.2215 131.8770
" />
<path d="M32.2215 131.8770
L32.3168 131.7817
" />
<path d="M32.3168 131.7817
L32.5072 131.6865
" />
<path d="M34.0311 133.6865
L34.0311 132.3532
" />
<path d="M34.0311 132.5436
L34.1263 132.4484
" />
<path d="M34.1263 132.4484
L34.3168 132.3532
" />
<path d="M34.3168 132.3532
L34.6025 132.3532
" />
<path d="M34.6025 132.3532
L34.7930 132.4484
" />
<path d="M34.7930 132.4484
L34.8882 132.6389
" />
<path d="M34.8882 132.6389
L34.8882 133.6865
" />
<path d="M34.8882 132.6389
L34.9834 132.4484
" />
<path d="M34.9834 132.4484
L35.1739 132.3532
" />
<path d="M35.1739 132.3532
L35.4596 132.3532
" />
<path d="M35.4596 132.3532
L35.6501 132.4484
" />
<path d="M35.6501 132.4484
L35.7453 132.6389
" />
<path d="M35.7453 132.6389
L35.7453 133.6865
" />
<path d="M36.6977 133.6865
L36.6977 132.3532
" />
<path d="M36.6977 132.5436
L36.7930 132.4484
" />
<path d="M36.7930 132.4484
L36.9834 132.3532
" />
<path d="M36.9834 132.3532
L37.2692 132.3532
" />
<path d="M37.2692 132.3532
L37.4596 132.4484
" />
<path d="M37.4596 132.4484
L37.5549 132.6389
" />
<path d="M37.5549 132.6389
L37.5549 133.6865
" />
<path d="M37.5549 132.6389
L37.6501 132.4484
" />
<path d="M37.6501 132.4484
L37.8406 132.3532
" />
<path d="M37.8406 132.3532
L38.1263 132.3532
" />
<path d="M38.1263 132.3532
L38.3168 132.4484
" />
<path d="M38.3168 132.4484
L38.4120 132.6389
" />
<path d="M38.4120 132.6389
L38.4120 133.6865
" />
<path d="M42.3168 131.5913
L40.6025 134.1627
" />
<path d="M44.8882 131.6865
L45.0787 131.6865
" />
<path d="M45.0787 131.6865
L45.2692 131.7817
" />
<path d="M45.2692 131.7817
L45.3644 131.8770
" />
<path d="M45.3644 131.8770
L45.4596 132.0674
" />
<path d="M45.4596 132.0674
L45.5549 132.4484
" />
<path d="M45.5549 132.4484
L45.5549 132.9246
" />
<path d="M45.5549 132.9246
L45.4596 133.3055
" />
<path d="M45.4596 133.3055
L45.3644 133.4960
" />
<path d="M45.3644 133.4960
L45.2692 133.5913
" />
<path d="M45.2692 133.5913
L45.0787 133.6865
" />
<path d="M45.0787 133.6865
L44.8882 133.6865
" />
<path d="M44.8882 133.6865
L44.6977 133.5913
" />
<path d="M44.6977 133.5913
L44.6025 133.4960
" />
<path d="M44.6025 133.4960
L44.5073 133.3055
" />
<path d="M44.5073 133.3055
L44.4120 132.9246
" />
<path d="M44.4120 132.9246
L44.4120 132.4484
" />
<path d="M44.4120 132.4484
L44.5073 132.0674
" />
<path d="M44.5073 132.0674
L44.6025 131.8770
" />
<path d="M44.6025 131.8770
L44.6977 131.7817
" />
<path d="M44.6977 131.7817
L44.8882 131.6865
" />
<path d="M46.4120 133.4960
L46.5073 133.5913
" />
<path d="M46.5073 133.5913
L46.4120 133.6865
" />
<path d="M46.4120 133.6865
L46.3168 133.5913
" />
<path d="M46.3168 133.5913
L46.4120 133.4960
" />
<path d="M46.4120 133.4960
L46.4120 133.6865
" />
<path d="M47.7453 131.6865
L47.9358 131.6865
" />
<path d="M47.9358 131.6865
L48.1263 131.7817
" />
<path d="M48.1263 131.7817
L48.2215 131.8770
" />
<path d="M48.2215 131.8770
L48.3168 132.0674
" />
<path d="M48.3168 132.0674
L48.4120 132.4484
" />
<path d="M48.4120 132.4484
L48.4120 132.9246
" />
<path d="M48.4120 132.9246
L48.3168 133.3055
" />
<path d="M48.3168 133.3055
L48.2215 133.4960
" />
<path d="M48.2215 133.4960
L48.1263 133.5913
" />
<path d="M48.1263 133.5913
L47.9358 133.6865
" />
<path d="M47.9358 133.6865
L47.7453 133.6865
" />
<path d="M47.7453 133.6865
L47.5549 133.5913
" />
<path d="M47.5549 133.5913
L47.4596 133.4960
" />
<path d="M47.4596 133.4960
L47.3644 133.3055
" />
<path d="M47.3644 133.3055
L47.2692 132.9246
" />
<path d="M47.2692 132.9246
L47.2692 132.4484
" />
<path d="M47.2692 132.4484
L47.3644 132.0674
" />
<path d="M47.3644 132.0674
L47.4596 131.8770
" />
<path d="M47.4596 131.8770
L47.5549 131.7817
" />
<path d="M47.5549 131.7817
L47.7453 131.6865
" />
<path d="M49.0787 131.6865
L50.4120 131.6865
" />
<path d="M50.4120 131.6865
L49.5549 133.6865
" />
<path d="M51.4596 132.5436
L51.2692 132.4484
" />
<path d="M51.2692 132.4484
L51.1739 132.3532
" />
<path d="M51.1739 132.3532
L51.0787 132.1627
" />
<path d="M51.0787 132.1627
L51.0787 132.0674
" />
<path d="M51.0787 132.0674
L51.1739 131.8770
" />
<path d="M51.1739 131.8770
L51.2692 131.7817
" />
<path d="M51.2692 131.7817
L51.4596 131.6865
" />
<path d="M51.4596 131.6865
L51.8406 131.6865
" />
<path d="M51.8406 131.6865
L52.0311 131.7817
" />
<path d="M52.0311 131.7817
L52.1263 131.8770
" />
<path d="M52.1263 131.8770
L52.2215 132.0674
" />
<path d="M52.2215 132.0674
L52.2215 132.1627
" />
<path d="M52.2215 132.1627
L52.1263 132.3532
" />
<path d="M52.1263 132.3532
L52.0311 132.4484
" />
<path d="M52.0311 132.4484
L51.8406 132.5436
" />
<path d="M51.8406 132.5436
L51.4596 132.5436
" />
<path d="M51.4596 132.5436
L51.2692 132.6389
" />
<path d="M51.2692 132.6389
L51.1739 132.7341
" />
<path d="M51.1739 132.7341
L51.0787 132.9246
" />
<path d="M51.0787 132.9246
L51.0787 133.3055
" />
<path d="M51.0787 133.3055
L51.1739 133.4960
" />
<path d="M51.1739 133.4960
L51.2692 133.5913
" />
<path d="M51.2692 133.5913
L51.4596 133.6865
" />
<path d="M51.4596 133.6865
L51.8406 133.6865
" />
<path d="M51.8406 133.6865
L52.0311 133.5913
" />
<path d="M52.0311 133.5913
L52.1263 133.4960
" />
<path d="M52.1263 133.4960
L52.2215 133.3055
" />
<path d="M52.2215 133.3055
L52.2215 132.9246
" />
<path d="M52.2215 132.9246
L52.1263 132.7341
" />
<path d="M52.1263 132.7341
L52.0311 132.6389
" />
<path d="M52.0311 132.6389
L51.8406 132.5436
" />
<path d="M52.8882 131.6865
L54.2215 131.6865
" />
<path d="M54.2215 131.6865
L53.3644 133.6865
" />
<path d="M54.8882 131.6865
L54.8882 132.0674
" />
<path d="M55.6501 131.6865
L55.6501 132.0674
" />
<path d="M58.6025 134.4484
L58.5073 134.3532
" />
<path d="M58.5073 134.3532
L58.3168 134.0674
" />
<path d="M58.3168 134.0674
L58.2215 133.8770
" />
<path d="M58.2215 133.8770
L58.1263 133.5913
" />
<path d="M58.1263 133.5913
L58.0311 133.1151
" />
<path d="M58.0311 133.1151
L58.0311 132.7341
" />
<path d="M58.0311 132.7341
L58.1263 132.2579
" />
<path d="M58.1263 132.2579
L58.2215 131.9722
" />
<path d="M58.2215 131.9722
L58.3168 131.7817
" />
<path d="M58.3168 131.7817
L58.5073 131.4960
" />
<path d="M58.5073 131.4960
L58.6025 131.4008
" />
<path d="M59.6501 132.5436
L59.4596 132.4484
" />
<path d="M59.4596 132.4484
L59.3644 132.3532
" />
<path d="M59.3644 132.3532
L59.2692 132.1627
" />
<path d="M59.2692 132.1627
L59.2692 132.0674
" />
<path d="M59.2692 132.0674
L59.3644 131.8770
" />
<path d="M59.3644 131.8770
L59.4596 131.7817
" />
<path d="M59.4596 131.7817
L59.6501 131.6865
" />
<path d="M59.6501 131.6865
L60.0311 131.6865
" />
<path d="M60.0311 131.6865
L60.2215 131.7817
" />
<path d="M60.2215 131.7817
L60.3168 131.8770
" />
<path d="M60.3168 131.8770
L60.4120 132.0674
" />
<path d="M60.4120 132.0674
L60.4120 132.1627
" />
<path d="M60.4120 132.1627
L60.3168 132.3532
" />
<path d="M60.3168 132.3532
L60.2215 132.4484
" />
<path d="M60.2215 132.4484
L60.0311 132.5436
" />
<path d="M60.0311 132.5436
L59.6501 132.5436
" />
<path d="M59.6501 132.5436
L59.4596 132.6389
" />
<path d="M59.4596 132.6389
L59.3644 132.7341
" />
<path d="M59.3644 132.7341
L59.2692 132.9246
" />
<path d="M59.2692 132.9246
L59.2692 133.3055
" />
<path d="M59.2692 133.3055
L59.3644 133.4960
" />
<path d="M59.3644 133.4960
L59.4596 133.5913
" />
<path d="M59.4596 133.5913
L59.6501 133.6865
" />
<path d="M59.6501 133.6865
L60.0311 133.6865
" />
<path d="M60.0311 133.6865
L60.2215 133.5913
" />
<path d="M60.2215 133.5913
L60.3168 133.4960
" />
<path d="M60.3168 133.4960
L60.4120 133.3055
" />
<path d="M60.4120 133.3055
L60.4120 132.9246
" />
<path d="M60.4120 132.9246
L60.3168 132.7341
" />
<path d="M60.3168 132.7341
L60.2215 132.6389
" />
<path d="M60.2215 132.6389
L60.0311 132.5436
" />
<path d="M62.7930 133.6865
L62.7930 131.6865
" />
<path d="M63.6501 133.6865
L63.6501 132.6389
" />
<path d="M63.6501 132.6389
L63.5549 132.4484
" />
<path d="M63.5549 132.4484
L63.3644 132.3532
" />
<path d="M63.3644 132.3532
L63.0787 132.3532
" />
<path d="M63.0787 132.3532
L62.8882 132.4484
" />
<path d="M62.8882 132.4484
L62.7930 132.5436
" />
<path d="M64.8882 133.6865
L64.6977 133.5913
" />
<path d="M64.6977 133.5913
L64.6025 133.4960
" />
<path d="M64.6025 133.4960
L64.5073 133.3055
" />
<path d="M64.5073 133.3055
L64.5073 132.7341
" />
<path d="M64.5073 132.7341
L64.6025 132.5436
" />
<path d="M64.6025 132.5436
L64.6977 132.4484
" />
<path d="M64.6977 132.4484
L64.8882 132.3532
" />
<path d="M64.8882 132.3532
L65.1739 132.3532
" />
<path d="M65.1739 132.3532
L65.3644 132.4484
" />
<path d="M65.3644 132.4484
L65.4596 132.5436
" />
<path d="M65.4596 132.5436
L65.5549 132.7341
" />
<path d="M65.5549 132.7341
L65.5549 133.3055
" />
<path d="M65.5549 133.3055
L65.4596 133.4960
" />
<path d="M65.4596 133.4960
L65.3644 133.5913
" />
<path d="M65.3644 133.5913
L65.1739 133.6865
" />
<path d="M65.1739 133.6865
L64.8882 133.6865
" />
<path d="M66.6977 133.6865
L66.5073 133.5913
" />
<path d="M66.5073 133.5913
L66.4120 133.4008
" />
<path d="M66.4120 133.4008
L66.4120 131.6865
" />
<path d="M68.2215 133.5913
L68.0311 133.6865
" />
<path d="M68.0311 133.6865
L67.6501 133.6865
" />
<path d="M67.6501 133.6865
L67.4596 133.5913
" />
<path d="M67.4596 133.5913
L67.3644 133.4008
" />
<path d="M67.3644 133.4008
L67.3644 132.6389
" />
<path d="M67.3644 132.6389
L67.4596 132.4484
" />
<path d="M67.4596 132.4484
L67.6501 132.3532
" />
<path d="M67.6501 132.3532
L68.0311 132.3532
" />
<path d="M68.0311 132.3532
L68.2215 132.4484
" />
<path d="M68.2215 132.4484
L68.3168 132.6389
" />
<path d="M68.3168 132.6389
L68.3168 132.8293
" />
<path d="M68.3168 132.8293
L67.3644 133.0198
" />
<path d="M69.0787 133.5913
L69.2692 133.6865
" />
<path d="M69.2692 133.6865
L69.6501 133.6865
" />
<path d="M69.6501 133.6865
L69.8406 133.5913
" />
<path d="M69.8406 133.5913
L69.9358 133.4008
" />
<path d="M69.9358 133.4008
L69.9358 133.3055
" />
<path d="M69.9358 133.3055
L69.8406 133.1151
" />
<path d="M69.8406 133.1151
L69.6501 133.0198
" />
<path d="M69.6501 133.0198
L69.3644 133.0198
" />
<path d="M69.3644 133.0198
L69.1739 132.9246
" />
<path d="M69.1739 132.9246
L69.0787 132.7341
" />
<path d="M69.0787 132.7341
L69.0787 132.6389
" />
<path d="M69.0787 132.6389
L69.1739 132.4484
" />
<path d="M69.1739 132.4484
L69.3644 132.3532
" />
<path d="M69.3644 132.3532
L69.6501 132.3532
" />
<path d="M69.6501 132.3532
L69.8406 132.4484
" />
<path d="M70.6025 134.4484
L70.6977 134.3532
" />
<path d="M70.6977 134.3532
L70.8882 134.0674
" />
<path d="M70.8882 134.0674
L70.9834 133.8770
" />
<path d="M70.9834 133.8770
L71.0787 133.5913
" />
<path d="M71.0787 133.5913
L71.1739 133.1151
" />
<path d="M71.1739 133.1151
L71.1739 132.7341
" />
<path d="M71.1739 132.7341
L71.0787 132.2579
" />
<path d="M71.0787 132.2579
L70.9834 131.9722
" />
<path d="M70.9834 131.9722
L70.8882 131.7817
" />
<path d="M70.8882 131.7817
L70.6977 131.4960
" />
<path d="M70.6977 131.4960
L70.6025 131.4008
" />
</g></g> 
</svg>
