%TF.GenerationSoftware,KiCad,Pcbnew,7.0.8*%
%TF.CreationDate,2024-01-22T23:57:30-06:00*%
%TF.ProjectId,idawgz32,69646177-677a-4333-922e-6b696361645f,rev?*%
%TF.SameCoordinates,Original*%
%TF.FileFunction,Legend,Bot*%
%TF.FilePolarity,Positive*%
%FSLAX46Y46*%
G04 Gerber Fmt 4.6, Leading zero omitted, Abs format (unit mm)*
G04 Created by KiCad (PCBNEW 7.0.8) date 2024-01-22 23:57:30*
%MOMM*%
%LPD*%
G01*
G04 APERTURE LIST*
%ADD10C,0.300000*%
%ADD11C,0.150000*%
%ADD12C,0.000000*%
G04 APERTURE END LIST*
D10*
X79576441Y-48299161D02*
X79481203Y-48394400D01*
X79481203Y-48394400D02*
X79576441Y-48489638D01*
X79576441Y-48489638D02*
X79671679Y-48394400D01*
X79671679Y-48394400D02*
X79576441Y-48299161D01*
X79576441Y-48299161D02*
X79576441Y-48489638D01*
X79576441Y-47727733D02*
X79671679Y-46584876D01*
X79671679Y-46584876D02*
X79576441Y-46489638D01*
X79576441Y-46489638D02*
X79481203Y-46584876D01*
X79481203Y-46584876D02*
X79576441Y-47727733D01*
X79576441Y-47727733D02*
X79576441Y-46489638D01*
X78624060Y-46584876D02*
X78624060Y-47251542D01*
X77481203Y-46584876D02*
X77576441Y-47156304D01*
X77576441Y-47156304D02*
X77671679Y-47537257D01*
X77671679Y-47537257D02*
X77766917Y-47918209D01*
X77766917Y-47918209D02*
X77957393Y-48203923D01*
X77957393Y-48203923D02*
X78243108Y-48394400D01*
X78624060Y-46584876D02*
X77481203Y-46584876D01*
X76528822Y-46680114D02*
X76147870Y-47061066D01*
X76528822Y-48203923D02*
X76052632Y-48108685D01*
X76052632Y-48108685D02*
X75766917Y-47822971D01*
X75766917Y-47822971D02*
X75576441Y-47537257D01*
X75576441Y-47537257D02*
X75385965Y-46870590D01*
X74433584Y-46584876D02*
X74433584Y-47251542D01*
X73290727Y-46584876D02*
X73385965Y-47156304D01*
X73385965Y-47156304D02*
X73481203Y-47537257D01*
X73481203Y-47537257D02*
X73576441Y-47918209D01*
X73576441Y-47918209D02*
X73766917Y-48203923D01*
X73766917Y-48203923D02*
X74052632Y-48394400D01*
X74433584Y-46584876D02*
X73290727Y-46584876D01*
X72338346Y-46680114D02*
X71957394Y-47061066D01*
X72338346Y-48203923D02*
X71862156Y-48108685D01*
X71862156Y-48108685D02*
X71576441Y-47822971D01*
X71576441Y-47822971D02*
X71385965Y-47537257D01*
X71385965Y-47537257D02*
X71195489Y-46870590D01*
X70243108Y-48299161D02*
X70147870Y-48394400D01*
X70147870Y-48394400D02*
X70243108Y-48489638D01*
X70243108Y-48489638D02*
X70338346Y-48394400D01*
X70338346Y-48394400D02*
X70243108Y-48299161D01*
X70243108Y-48299161D02*
X70243108Y-48489638D01*
X70243108Y-47727733D02*
X70338346Y-46584876D01*
X70338346Y-46584876D02*
X70243108Y-46489638D01*
X70243108Y-46489638D02*
X70147870Y-46584876D01*
X70147870Y-46584876D02*
X70243108Y-47727733D01*
X70243108Y-47727733D02*
X70243108Y-46489638D01*
D11*
X78738094Y-64789819D02*
X78738094Y-64123152D01*
X78738094Y-63789819D02*
X78785713Y-63837438D01*
X78785713Y-63837438D02*
X78738094Y-63885057D01*
X78738094Y-63885057D02*
X78690475Y-63837438D01*
X78690475Y-63837438D02*
X78738094Y-63789819D01*
X78738094Y-63789819D02*
X78738094Y-63885057D01*
X77833333Y-64789819D02*
X77833333Y-63789819D01*
X77833333Y-64742200D02*
X77928571Y-64789819D01*
X77928571Y-64789819D02*
X78119047Y-64789819D01*
X78119047Y-64789819D02*
X78214285Y-64742200D01*
X78214285Y-64742200D02*
X78261904Y-64694580D01*
X78261904Y-64694580D02*
X78309523Y-64599342D01*
X78309523Y-64599342D02*
X78309523Y-64313628D01*
X78309523Y-64313628D02*
X78261904Y-64218390D01*
X78261904Y-64218390D02*
X78214285Y-64170771D01*
X78214285Y-64170771D02*
X78119047Y-64123152D01*
X78119047Y-64123152D02*
X77928571Y-64123152D01*
X77928571Y-64123152D02*
X77833333Y-64170771D01*
X76928571Y-64789819D02*
X76928571Y-64266009D01*
X76928571Y-64266009D02*
X76976190Y-64170771D01*
X76976190Y-64170771D02*
X77071428Y-64123152D01*
X77071428Y-64123152D02*
X77261904Y-64123152D01*
X77261904Y-64123152D02*
X77357142Y-64170771D01*
X76928571Y-64742200D02*
X77023809Y-64789819D01*
X77023809Y-64789819D02*
X77261904Y-64789819D01*
X77261904Y-64789819D02*
X77357142Y-64742200D01*
X77357142Y-64742200D02*
X77404761Y-64646961D01*
X77404761Y-64646961D02*
X77404761Y-64551723D01*
X77404761Y-64551723D02*
X77357142Y-64456485D01*
X77357142Y-64456485D02*
X77261904Y-64408866D01*
X77261904Y-64408866D02*
X77023809Y-64408866D01*
X77023809Y-64408866D02*
X76928571Y-64361247D01*
X76547618Y-64123152D02*
X76357142Y-64789819D01*
X76357142Y-64789819D02*
X76166666Y-64313628D01*
X76166666Y-64313628D02*
X75976190Y-64789819D01*
X75976190Y-64789819D02*
X75785714Y-64123152D01*
X74976190Y-64123152D02*
X74976190Y-64932676D01*
X74976190Y-64932676D02*
X75023809Y-65027914D01*
X75023809Y-65027914D02*
X75071428Y-65075533D01*
X75071428Y-65075533D02*
X75166666Y-65123152D01*
X75166666Y-65123152D02*
X75309523Y-65123152D01*
X75309523Y-65123152D02*
X75404761Y-65075533D01*
X74976190Y-64742200D02*
X75071428Y-64789819D01*
X75071428Y-64789819D02*
X75261904Y-64789819D01*
X75261904Y-64789819D02*
X75357142Y-64742200D01*
X75357142Y-64742200D02*
X75404761Y-64694580D01*
X75404761Y-64694580D02*
X75452380Y-64599342D01*
X75452380Y-64599342D02*
X75452380Y-64313628D01*
X75452380Y-64313628D02*
X75404761Y-64218390D01*
X75404761Y-64218390D02*
X75357142Y-64170771D01*
X75357142Y-64170771D02*
X75261904Y-64123152D01*
X75261904Y-64123152D02*
X75071428Y-64123152D01*
X75071428Y-64123152D02*
X74976190Y-64170771D01*
X74595237Y-64123152D02*
X74071428Y-64123152D01*
X74071428Y-64123152D02*
X74595237Y-64789819D01*
X74595237Y-64789819D02*
X74071428Y-64789819D01*
X73785713Y-63789819D02*
X73166666Y-63789819D01*
X73166666Y-63789819D02*
X73499999Y-64170771D01*
X73499999Y-64170771D02*
X73357142Y-64170771D01*
X73357142Y-64170771D02*
X73261904Y-64218390D01*
X73261904Y-64218390D02*
X73214285Y-64266009D01*
X73214285Y-64266009D02*
X73166666Y-64361247D01*
X73166666Y-64361247D02*
X73166666Y-64599342D01*
X73166666Y-64599342D02*
X73214285Y-64694580D01*
X73214285Y-64694580D02*
X73261904Y-64742200D01*
X73261904Y-64742200D02*
X73357142Y-64789819D01*
X73357142Y-64789819D02*
X73642856Y-64789819D01*
X73642856Y-64789819D02*
X73738094Y-64742200D01*
X73738094Y-64742200D02*
X73785713Y-64694580D01*
X72785713Y-63885057D02*
X72738094Y-63837438D01*
X72738094Y-63837438D02*
X72642856Y-63789819D01*
X72642856Y-63789819D02*
X72404761Y-63789819D01*
X72404761Y-63789819D02*
X72309523Y-63837438D01*
X72309523Y-63837438D02*
X72261904Y-63885057D01*
X72261904Y-63885057D02*
X72214285Y-63980295D01*
X72214285Y-63980295D02*
X72214285Y-64075533D01*
X72214285Y-64075533D02*
X72261904Y-64218390D01*
X72261904Y-64218390D02*
X72833332Y-64789819D01*
X72833332Y-64789819D02*
X72214285Y-64789819D01*
X76928570Y-65733152D02*
X76690475Y-66399819D01*
X76690475Y-66399819D02*
X76452380Y-65733152D01*
X75880951Y-65399819D02*
X75785713Y-65399819D01*
X75785713Y-65399819D02*
X75690475Y-65447438D01*
X75690475Y-65447438D02*
X75642856Y-65495057D01*
X75642856Y-65495057D02*
X75595237Y-65590295D01*
X75595237Y-65590295D02*
X75547618Y-65780771D01*
X75547618Y-65780771D02*
X75547618Y-66018866D01*
X75547618Y-66018866D02*
X75595237Y-66209342D01*
X75595237Y-66209342D02*
X75642856Y-66304580D01*
X75642856Y-66304580D02*
X75690475Y-66352200D01*
X75690475Y-66352200D02*
X75785713Y-66399819D01*
X75785713Y-66399819D02*
X75880951Y-66399819D01*
X75880951Y-66399819D02*
X75976189Y-66352200D01*
X75976189Y-66352200D02*
X76023808Y-66304580D01*
X76023808Y-66304580D02*
X76071427Y-66209342D01*
X76071427Y-66209342D02*
X76119046Y-66018866D01*
X76119046Y-66018866D02*
X76119046Y-65780771D01*
X76119046Y-65780771D02*
X76071427Y-65590295D01*
X76071427Y-65590295D02*
X76023808Y-65495057D01*
X76023808Y-65495057D02*
X75976189Y-65447438D01*
X75976189Y-65447438D02*
X75880951Y-65399819D01*
X75119046Y-66304580D02*
X75071427Y-66352200D01*
X75071427Y-66352200D02*
X75119046Y-66399819D01*
X75119046Y-66399819D02*
X75166665Y-66352200D01*
X75166665Y-66352200D02*
X75119046Y-66304580D01*
X75119046Y-66304580D02*
X75119046Y-66399819D01*
X74452380Y-65399819D02*
X74357142Y-65399819D01*
X74357142Y-65399819D02*
X74261904Y-65447438D01*
X74261904Y-65447438D02*
X74214285Y-65495057D01*
X74214285Y-65495057D02*
X74166666Y-65590295D01*
X74166666Y-65590295D02*
X74119047Y-65780771D01*
X74119047Y-65780771D02*
X74119047Y-66018866D01*
X74119047Y-66018866D02*
X74166666Y-66209342D01*
X74166666Y-66209342D02*
X74214285Y-66304580D01*
X74214285Y-66304580D02*
X74261904Y-66352200D01*
X74261904Y-66352200D02*
X74357142Y-66399819D01*
X74357142Y-66399819D02*
X74452380Y-66399819D01*
X74452380Y-66399819D02*
X74547618Y-66352200D01*
X74547618Y-66352200D02*
X74595237Y-66304580D01*
X74595237Y-66304580D02*
X74642856Y-66209342D01*
X74642856Y-66209342D02*
X74690475Y-66018866D01*
X74690475Y-66018866D02*
X74690475Y-65780771D01*
X74690475Y-65780771D02*
X74642856Y-65590295D01*
X74642856Y-65590295D02*
X74595237Y-65495057D01*
X74595237Y-65495057D02*
X74547618Y-65447438D01*
X74547618Y-65447438D02*
X74452380Y-65399819D01*
X79952381Y-68009819D02*
X79952381Y-67009819D01*
X79952381Y-67390771D02*
X79857143Y-67343152D01*
X79857143Y-67343152D02*
X79666667Y-67343152D01*
X79666667Y-67343152D02*
X79571429Y-67390771D01*
X79571429Y-67390771D02*
X79523810Y-67438390D01*
X79523810Y-67438390D02*
X79476191Y-67533628D01*
X79476191Y-67533628D02*
X79476191Y-67819342D01*
X79476191Y-67819342D02*
X79523810Y-67914580D01*
X79523810Y-67914580D02*
X79571429Y-67962200D01*
X79571429Y-67962200D02*
X79666667Y-68009819D01*
X79666667Y-68009819D02*
X79857143Y-68009819D01*
X79857143Y-68009819D02*
X79952381Y-67962200D01*
X79142857Y-67343152D02*
X78904762Y-68009819D01*
X78666667Y-67343152D02*
X78904762Y-68009819D01*
X78904762Y-68009819D02*
X79000000Y-68247914D01*
X79000000Y-68247914D02*
X79047619Y-68295533D01*
X79047619Y-68295533D02*
X79142857Y-68343152D01*
X77571428Y-67962200D02*
X77476190Y-68009819D01*
X77476190Y-68009819D02*
X77285714Y-68009819D01*
X77285714Y-68009819D02*
X77190476Y-67962200D01*
X77190476Y-67962200D02*
X77142857Y-67866961D01*
X77142857Y-67866961D02*
X77142857Y-67819342D01*
X77142857Y-67819342D02*
X77190476Y-67724104D01*
X77190476Y-67724104D02*
X77285714Y-67676485D01*
X77285714Y-67676485D02*
X77428571Y-67676485D01*
X77428571Y-67676485D02*
X77523809Y-67628866D01*
X77523809Y-67628866D02*
X77571428Y-67533628D01*
X77571428Y-67533628D02*
X77571428Y-67486009D01*
X77571428Y-67486009D02*
X77523809Y-67390771D01*
X77523809Y-67390771D02*
X77428571Y-67343152D01*
X77428571Y-67343152D02*
X77285714Y-67343152D01*
X77285714Y-67343152D02*
X77190476Y-67390771D01*
X76714285Y-67343152D02*
X76714285Y-68343152D01*
X76714285Y-67390771D02*
X76619047Y-67343152D01*
X76619047Y-67343152D02*
X76428571Y-67343152D01*
X76428571Y-67343152D02*
X76333333Y-67390771D01*
X76333333Y-67390771D02*
X76285714Y-67438390D01*
X76285714Y-67438390D02*
X76238095Y-67533628D01*
X76238095Y-67533628D02*
X76238095Y-67819342D01*
X76238095Y-67819342D02*
X76285714Y-67914580D01*
X76285714Y-67914580D02*
X76333333Y-67962200D01*
X76333333Y-67962200D02*
X76428571Y-68009819D01*
X76428571Y-68009819D02*
X76619047Y-68009819D01*
X76619047Y-68009819D02*
X76714285Y-67962200D01*
X75666666Y-68009819D02*
X75761904Y-67962200D01*
X75761904Y-67962200D02*
X75809523Y-67914580D01*
X75809523Y-67914580D02*
X75857142Y-67819342D01*
X75857142Y-67819342D02*
X75857142Y-67533628D01*
X75857142Y-67533628D02*
X75809523Y-67438390D01*
X75809523Y-67438390D02*
X75761904Y-67390771D01*
X75761904Y-67390771D02*
X75666666Y-67343152D01*
X75666666Y-67343152D02*
X75523809Y-67343152D01*
X75523809Y-67343152D02*
X75428571Y-67390771D01*
X75428571Y-67390771D02*
X75380952Y-67438390D01*
X75380952Y-67438390D02*
X75333333Y-67533628D01*
X75333333Y-67533628D02*
X75333333Y-67819342D01*
X75333333Y-67819342D02*
X75380952Y-67914580D01*
X75380952Y-67914580D02*
X75428571Y-67962200D01*
X75428571Y-67962200D02*
X75523809Y-68009819D01*
X75523809Y-68009819D02*
X75666666Y-68009819D01*
X74904761Y-68009819D02*
X74904761Y-67343152D01*
X74904761Y-67533628D02*
X74857142Y-67438390D01*
X74857142Y-67438390D02*
X74809523Y-67390771D01*
X74809523Y-67390771D02*
X74714285Y-67343152D01*
X74714285Y-67343152D02*
X74619047Y-67343152D01*
X73904761Y-67962200D02*
X73999999Y-68009819D01*
X73999999Y-68009819D02*
X74190475Y-68009819D01*
X74190475Y-68009819D02*
X74285713Y-67962200D01*
X74285713Y-67962200D02*
X74333332Y-67866961D01*
X74333332Y-67866961D02*
X74333332Y-67486009D01*
X74333332Y-67486009D02*
X74285713Y-67390771D01*
X74285713Y-67390771D02*
X74190475Y-67343152D01*
X74190475Y-67343152D02*
X73999999Y-67343152D01*
X73999999Y-67343152D02*
X73904761Y-67390771D01*
X73904761Y-67390771D02*
X73857142Y-67486009D01*
X73857142Y-67486009D02*
X73857142Y-67581247D01*
X73857142Y-67581247D02*
X74333332Y-67676485D01*
X73523808Y-67343152D02*
X73333332Y-68009819D01*
X73333332Y-68009819D02*
X73142856Y-67533628D01*
X73142856Y-67533628D02*
X72952380Y-68009819D01*
X72952380Y-68009819D02*
X72761904Y-67343152D01*
X72238094Y-68009819D02*
X72333332Y-67962200D01*
X72333332Y-67962200D02*
X72380951Y-67914580D01*
X72380951Y-67914580D02*
X72428570Y-67819342D01*
X72428570Y-67819342D02*
X72428570Y-67533628D01*
X72428570Y-67533628D02*
X72380951Y-67438390D01*
X72380951Y-67438390D02*
X72333332Y-67390771D01*
X72333332Y-67390771D02*
X72238094Y-67343152D01*
X72238094Y-67343152D02*
X72095237Y-67343152D01*
X72095237Y-67343152D02*
X71999999Y-67390771D01*
X71999999Y-67390771D02*
X71952380Y-67438390D01*
X71952380Y-67438390D02*
X71904761Y-67533628D01*
X71904761Y-67533628D02*
X71904761Y-67819342D01*
X71904761Y-67819342D02*
X71952380Y-67914580D01*
X71952380Y-67914580D02*
X71999999Y-67962200D01*
X71999999Y-67962200D02*
X72095237Y-68009819D01*
X72095237Y-68009819D02*
X72238094Y-68009819D01*
X71476189Y-68009819D02*
X71476189Y-67009819D01*
X71047618Y-68009819D02*
X71047618Y-67486009D01*
X71047618Y-67486009D02*
X71095237Y-67390771D01*
X71095237Y-67390771D02*
X71190475Y-67343152D01*
X71190475Y-67343152D02*
X71333332Y-67343152D01*
X71333332Y-67343152D02*
X71428570Y-67390771D01*
X71428570Y-67390771D02*
X71476189Y-67438390D01*
D12*
G36*
X80626649Y-59457481D02*
G01*
X75224744Y-62576272D01*
X69822832Y-59457480D01*
X69822833Y-56435522D01*
X70730286Y-56435522D01*
X70734390Y-56629179D01*
X70746590Y-56820752D01*
X70766721Y-57010075D01*
X70794616Y-57196982D01*
X70830111Y-57381307D01*
X70873038Y-57562885D01*
X70923233Y-57741549D01*
X70980528Y-57917134D01*
X71044759Y-58089473D01*
X71115759Y-58258401D01*
X71193362Y-58423751D01*
X71277402Y-58585359D01*
X71367715Y-58743057D01*
X71464132Y-58896680D01*
X71566489Y-59046063D01*
X71674620Y-59191038D01*
X71690260Y-59082938D01*
X71709099Y-58975903D01*
X71731087Y-58869982D01*
X71756173Y-58765225D01*
X71784308Y-58661685D01*
X71815439Y-58559410D01*
X71848737Y-58460764D01*
X73367424Y-58460764D01*
X73367761Y-58468678D01*
X73368466Y-58476573D01*
X73369539Y-58484435D01*
X73370980Y-58492248D01*
X73372788Y-58500000D01*
X73374965Y-58507676D01*
X73377509Y-58515263D01*
X73380421Y-58522746D01*
X73383702Y-58530111D01*
X73387350Y-58537345D01*
X73391365Y-58544434D01*
X73395749Y-58551363D01*
X73400501Y-58558119D01*
X73405621Y-58564687D01*
X73411108Y-58571054D01*
X73416963Y-58577205D01*
X73423115Y-58583061D01*
X73429482Y-58588548D01*
X73436050Y-58593668D01*
X73442806Y-58598420D01*
X73449735Y-58602803D01*
X73456824Y-58606819D01*
X73464057Y-58610467D01*
X73471423Y-58613747D01*
X73478906Y-58616660D01*
X73486493Y-58619204D01*
X73494169Y-58621380D01*
X73501921Y-58623189D01*
X73509734Y-58624629D01*
X73517595Y-58625702D01*
X73525490Y-58626407D01*
X73533405Y-58626744D01*
X73541326Y-58626713D01*
X73549238Y-58626314D01*
X73557128Y-58625547D01*
X73564983Y-58624413D01*
X73572787Y-58622910D01*
X73580527Y-58621040D01*
X73588189Y-58618801D01*
X73595759Y-58616195D01*
X73603224Y-58613221D01*
X73610568Y-58609879D01*
X73617779Y-58606169D01*
X73624842Y-58602091D01*
X73631743Y-58597646D01*
X73638468Y-58592832D01*
X73645003Y-58587651D01*
X73651335Y-58582101D01*
X73651348Y-58582114D01*
X73651360Y-58582127D01*
X73651385Y-58582153D01*
X73651411Y-58582179D01*
X73651438Y-58582205D01*
X73656436Y-58577205D01*
X74031470Y-58202172D01*
X74411505Y-58582205D01*
X74411556Y-58582153D01*
X74411582Y-58582127D01*
X74411608Y-58582101D01*
X74417939Y-58587651D01*
X74424475Y-58592832D01*
X74431200Y-58597646D01*
X74438101Y-58602091D01*
X74445163Y-58606169D01*
X74452374Y-58609879D01*
X74459718Y-58613221D01*
X74467182Y-58616195D01*
X74474752Y-58618801D01*
X74482414Y-58621040D01*
X74490155Y-58622910D01*
X74497959Y-58624413D01*
X74505813Y-58625547D01*
X74513703Y-58626314D01*
X74521616Y-58626713D01*
X74529536Y-58626744D01*
X74537451Y-58626407D01*
X74545346Y-58625702D01*
X74553207Y-58624629D01*
X74561021Y-58623189D01*
X74568773Y-58621380D01*
X74576449Y-58619204D01*
X74584035Y-58616660D01*
X74591518Y-58613747D01*
X74598884Y-58610467D01*
X74606118Y-58606819D01*
X74613206Y-58602803D01*
X74620136Y-58598420D01*
X74626891Y-58593668D01*
X74633459Y-58588548D01*
X74639826Y-58583061D01*
X74645978Y-58577205D01*
X74651834Y-58571054D01*
X74657321Y-58564687D01*
X74662441Y-58558119D01*
X74667193Y-58551363D01*
X74671577Y-58544434D01*
X74675593Y-58537345D01*
X74679241Y-58530111D01*
X74682521Y-58522746D01*
X74685433Y-58515263D01*
X74687977Y-58507676D01*
X74690154Y-58500000D01*
X74691963Y-58492248D01*
X74693403Y-58484435D01*
X74694476Y-58476573D01*
X74695181Y-58468678D01*
X74695518Y-58460764D01*
X74695487Y-58452843D01*
X74695088Y-58444931D01*
X74694321Y-58437041D01*
X74693187Y-58429186D01*
X74691684Y-58421382D01*
X74689814Y-58413642D01*
X74687576Y-58405980D01*
X74684969Y-58398410D01*
X74681995Y-58390946D01*
X74678653Y-58383601D01*
X74674944Y-58376391D01*
X74670866Y-58369328D01*
X74666420Y-58362427D01*
X74661607Y-58355702D01*
X74656425Y-58349167D01*
X74650876Y-58342835D01*
X74650977Y-58342731D01*
X74270944Y-57962698D01*
X74270945Y-57962697D01*
X75548969Y-57962697D01*
X75549178Y-57971187D01*
X75549800Y-57979569D01*
X75550825Y-57987834D01*
X75552242Y-57995971D01*
X75554041Y-58003971D01*
X75556214Y-58011823D01*
X75558750Y-58019517D01*
X75561638Y-58027045D01*
X75564870Y-58034396D01*
X75568436Y-58041559D01*
X75572325Y-58048526D01*
X75576527Y-58055286D01*
X75581034Y-58061830D01*
X75585834Y-58068147D01*
X75590918Y-58074228D01*
X75596276Y-58080063D01*
X75601899Y-58085642D01*
X75607776Y-58090955D01*
X75613897Y-58095992D01*
X75620253Y-58100744D01*
X75626834Y-58105200D01*
X75633629Y-58109350D01*
X75640630Y-58113185D01*
X75647826Y-58116695D01*
X75655207Y-58119871D01*
X75662763Y-58122701D01*
X75670485Y-58125176D01*
X75678362Y-58127287D01*
X75686386Y-58129023D01*
X75694545Y-58130375D01*
X75702830Y-58131332D01*
X75711231Y-58131885D01*
X75711231Y-58132030D01*
X76248680Y-58132030D01*
X76248680Y-58460764D01*
X76248680Y-58669478D01*
X76248825Y-58669478D01*
X76249379Y-58677880D01*
X76250336Y-58686165D01*
X76251688Y-58694324D01*
X76253424Y-58702347D01*
X76255535Y-58710225D01*
X76258010Y-58717947D01*
X76260840Y-58725503D01*
X76264015Y-58732884D01*
X76267525Y-58740080D01*
X76271361Y-58747080D01*
X76275511Y-58753876D01*
X76279967Y-58760457D01*
X76284718Y-58766813D01*
X76289756Y-58772934D01*
X76295068Y-58778811D01*
X76300647Y-58784433D01*
X76306482Y-58789792D01*
X76312563Y-58794876D01*
X76318880Y-58799676D01*
X76325424Y-58804182D01*
X76332184Y-58808385D01*
X76339151Y-58812274D01*
X76346314Y-58815839D01*
X76353665Y-58819071D01*
X76361192Y-58821960D01*
X76368887Y-58824495D01*
X76376739Y-58826668D01*
X76384738Y-58828468D01*
X76392875Y-58829885D01*
X76401139Y-58830909D01*
X76409522Y-58831531D01*
X76418012Y-58831740D01*
X76426502Y-58831531D01*
X76434885Y-58830909D01*
X76443149Y-58829885D01*
X76451286Y-58828468D01*
X76459286Y-58826668D01*
X76467138Y-58824495D01*
X76474833Y-58821960D01*
X76482360Y-58819071D01*
X76489711Y-58815839D01*
X76496875Y-58812274D01*
X76503842Y-58808385D01*
X76510602Y-58804182D01*
X76517146Y-58799676D01*
X76523463Y-58794876D01*
X76529544Y-58789792D01*
X76535379Y-58784433D01*
X76540958Y-58778811D01*
X76546271Y-58772934D01*
X76551308Y-58766813D01*
X76556059Y-58760457D01*
X76560515Y-58753876D01*
X76564666Y-58747080D01*
X76568501Y-58740080D01*
X76572011Y-58732884D01*
X76575186Y-58725503D01*
X76578017Y-58717947D01*
X76580492Y-58710225D01*
X76582603Y-58702347D01*
X76584339Y-58694324D01*
X76585690Y-58686165D01*
X76586648Y-58677880D01*
X76587201Y-58669478D01*
X76587345Y-58669478D01*
X76587345Y-58132030D01*
X77124794Y-58132030D01*
X77124794Y-58131885D01*
X77133195Y-58131332D01*
X77141480Y-58130375D01*
X77149639Y-58129023D01*
X77157663Y-58127287D01*
X77165540Y-58125176D01*
X77173262Y-58122701D01*
X77180818Y-58119871D01*
X77188199Y-58116695D01*
X77195395Y-58113185D01*
X77202396Y-58109350D01*
X77209191Y-58105200D01*
X77215772Y-58100744D01*
X77222128Y-58095992D01*
X77228249Y-58090955D01*
X77234126Y-58085642D01*
X77239749Y-58080063D01*
X77245107Y-58074228D01*
X77250191Y-58068147D01*
X77254991Y-58061830D01*
X77259498Y-58055286D01*
X77263700Y-58048526D01*
X77267589Y-58041559D01*
X77271155Y-58034396D01*
X77274387Y-58027045D01*
X77277275Y-58019517D01*
X77279811Y-58011823D01*
X77281984Y-58003971D01*
X77283784Y-57995971D01*
X77285201Y-57987834D01*
X77286225Y-57979569D01*
X77286847Y-57971187D01*
X77287056Y-57962697D01*
X77286847Y-57954206D01*
X77286225Y-57945824D01*
X77285201Y-57937559D01*
X77283784Y-57929423D01*
X77281984Y-57921423D01*
X77279811Y-57913571D01*
X77277276Y-57905877D01*
X77274387Y-57898349D01*
X77271155Y-57890998D01*
X77267590Y-57883835D01*
X77263701Y-57876868D01*
X77259498Y-57870108D01*
X77254992Y-57863564D01*
X77250192Y-57857247D01*
X77245108Y-57851166D01*
X77239749Y-57845331D01*
X77234127Y-57839752D01*
X77228250Y-57834439D01*
X77222129Y-57829402D01*
X77215773Y-57824651D01*
X77209192Y-57820195D01*
X77202396Y-57816044D01*
X77195396Y-57812209D01*
X77188200Y-57808699D01*
X77180819Y-57805524D01*
X77173263Y-57802694D01*
X77165541Y-57800219D01*
X77157663Y-57798108D01*
X77149640Y-57796372D01*
X77141481Y-57795020D01*
X77133196Y-57794063D01*
X77124794Y-57793509D01*
X77124794Y-57793364D01*
X76587345Y-57793364D01*
X76587345Y-57255915D01*
X76587201Y-57255915D01*
X76586648Y-57247514D01*
X76585690Y-57239229D01*
X76584339Y-57231070D01*
X76582603Y-57223046D01*
X76580492Y-57215169D01*
X76578017Y-57207447D01*
X76575186Y-57199891D01*
X76572011Y-57192510D01*
X76568501Y-57185314D01*
X76564666Y-57178313D01*
X76560515Y-57171518D01*
X76556059Y-57164937D01*
X76551308Y-57158581D01*
X76546271Y-57152459D01*
X76540958Y-57146582D01*
X76535379Y-57140960D01*
X76529544Y-57135602D01*
X76523463Y-57130517D01*
X76517146Y-57125717D01*
X76510602Y-57121211D01*
X76503842Y-57117008D01*
X76496875Y-57113119D01*
X76489711Y-57109554D01*
X76482360Y-57106322D01*
X76474833Y-57103433D01*
X76467138Y-57100897D01*
X76459286Y-57098725D01*
X76451286Y-57096925D01*
X76443149Y-57095508D01*
X76434885Y-57094483D01*
X76426502Y-57093862D01*
X76418012Y-57093652D01*
X76409522Y-57093862D01*
X76401139Y-57094483D01*
X76392875Y-57095508D01*
X76384738Y-57096925D01*
X76376739Y-57098725D01*
X76368887Y-57100897D01*
X76361192Y-57103433D01*
X76353665Y-57106322D01*
X76346314Y-57109554D01*
X76339151Y-57113119D01*
X76332184Y-57117008D01*
X76325423Y-57121211D01*
X76318880Y-57125717D01*
X76312562Y-57130517D01*
X76306481Y-57135602D01*
X76300646Y-57140960D01*
X76295068Y-57146582D01*
X76289755Y-57152459D01*
X76284717Y-57158581D01*
X76279966Y-57164937D01*
X76275510Y-57171518D01*
X76271359Y-57178313D01*
X76267524Y-57185314D01*
X76264014Y-57192510D01*
X76260839Y-57199891D01*
X76258009Y-57207447D01*
X76255533Y-57215169D01*
X76253422Y-57223046D01*
X76251686Y-57231070D01*
X76250335Y-57239229D01*
X76249377Y-57247514D01*
X76248824Y-57255915D01*
X76248680Y-57255915D01*
X76248680Y-57793366D01*
X75718093Y-57793366D01*
X75711231Y-57793364D01*
X75711231Y-57793508D01*
X75702830Y-57794061D01*
X75694545Y-57795019D01*
X75686386Y-57796370D01*
X75678362Y-57798106D01*
X75670485Y-57800217D01*
X75662763Y-57802692D01*
X75655207Y-57805523D01*
X75647826Y-57808698D01*
X75640630Y-57812208D01*
X75633629Y-57816043D01*
X75626834Y-57820193D01*
X75620253Y-57824649D01*
X75613897Y-57829401D01*
X75607776Y-57834438D01*
X75601899Y-57839751D01*
X75596276Y-57845330D01*
X75590918Y-57851165D01*
X75585834Y-57857246D01*
X75581034Y-57863563D01*
X75576527Y-57870107D01*
X75572325Y-57876867D01*
X75568436Y-57883834D01*
X75564870Y-57890998D01*
X75561638Y-57898348D01*
X75558750Y-57905876D01*
X75556214Y-57913571D01*
X75554041Y-57921423D01*
X75552242Y-57929422D01*
X75550825Y-57937559D01*
X75549800Y-57945824D01*
X75549178Y-57954206D01*
X75548969Y-57962697D01*
X74270945Y-57962697D01*
X74645978Y-57587663D01*
X74650978Y-57582663D01*
X74650876Y-57582561D01*
X74656425Y-57576229D01*
X74661607Y-57569694D01*
X74666420Y-57562969D01*
X74670866Y-57556068D01*
X74674944Y-57549005D01*
X74678653Y-57541794D01*
X74681995Y-57534450D01*
X74684969Y-57526986D01*
X74687576Y-57519415D01*
X74689814Y-57511753D01*
X74691684Y-57504013D01*
X74693187Y-57496209D01*
X74694321Y-57488355D01*
X74695088Y-57480465D01*
X74695487Y-57472552D01*
X74695518Y-57464632D01*
X74695181Y-57456717D01*
X74694476Y-57448822D01*
X74693403Y-57440961D01*
X74691963Y-57433147D01*
X74690154Y-57425395D01*
X74687977Y-57417719D01*
X74685433Y-57410133D01*
X74682521Y-57402649D01*
X74679241Y-57395284D01*
X74675593Y-57388050D01*
X74671577Y-57380961D01*
X74667193Y-57374032D01*
X74662441Y-57367276D01*
X74657321Y-57360708D01*
X74651834Y-57354341D01*
X74645978Y-57348189D01*
X74639826Y-57342334D01*
X74633459Y-57336846D01*
X74626891Y-57331727D01*
X74620136Y-57326975D01*
X74613206Y-57322591D01*
X74606118Y-57318575D01*
X74598884Y-57314927D01*
X74591518Y-57311647D01*
X74584035Y-57308735D01*
X74576449Y-57306191D01*
X74568773Y-57304014D01*
X74561021Y-57302206D01*
X74553207Y-57300765D01*
X74545346Y-57299692D01*
X74537451Y-57298987D01*
X74529536Y-57298650D01*
X74521616Y-57298681D01*
X74513703Y-57299080D01*
X74505813Y-57299847D01*
X74497959Y-57300981D01*
X74490155Y-57302484D01*
X74482414Y-57304354D01*
X74474752Y-57306593D01*
X74467182Y-57309199D01*
X74459718Y-57312173D01*
X74452374Y-57315515D01*
X74445163Y-57319225D01*
X74438101Y-57323303D01*
X74431200Y-57327748D01*
X74424475Y-57332562D01*
X74417939Y-57337743D01*
X74411608Y-57343293D01*
X74411505Y-57343190D01*
X74406504Y-57348189D01*
X74031470Y-57723224D01*
X73656435Y-57348191D01*
X73656362Y-57348117D01*
X73656326Y-57348080D01*
X73656288Y-57348043D01*
X73651439Y-57343190D01*
X73651426Y-57343202D01*
X73651412Y-57343215D01*
X73651399Y-57343228D01*
X73651386Y-57343241D01*
X73651335Y-57343293D01*
X73645003Y-57337743D01*
X73638468Y-57332562D01*
X73631743Y-57327749D01*
X73624842Y-57323303D01*
X73617779Y-57319225D01*
X73610568Y-57315515D01*
X73603224Y-57312173D01*
X73595760Y-57309199D01*
X73588189Y-57306593D01*
X73580527Y-57304355D01*
X73572787Y-57302485D01*
X73564983Y-57300982D01*
X73557129Y-57299847D01*
X73549238Y-57299081D01*
X73541326Y-57298682D01*
X73533406Y-57298651D01*
X73525491Y-57298988D01*
X73517596Y-57299693D01*
X73509735Y-57300766D01*
X73501921Y-57302206D01*
X73494169Y-57304015D01*
X73486493Y-57306191D01*
X73478907Y-57308736D01*
X73471424Y-57311648D01*
X73464058Y-57314928D01*
X73456824Y-57318576D01*
X73449736Y-57322592D01*
X73442806Y-57326976D01*
X73436051Y-57331728D01*
X73429482Y-57336848D01*
X73423115Y-57342335D01*
X73416963Y-57348191D01*
X73411108Y-57354342D01*
X73405621Y-57360709D01*
X73400501Y-57367278D01*
X73395749Y-57374033D01*
X73391365Y-57380962D01*
X73387350Y-57388051D01*
X73383702Y-57395285D01*
X73380421Y-57402650D01*
X73377509Y-57410133D01*
X73374965Y-57417720D01*
X73372788Y-57425396D01*
X73370980Y-57433148D01*
X73369539Y-57440961D01*
X73368466Y-57448823D01*
X73367761Y-57456718D01*
X73367424Y-57464632D01*
X73367455Y-57472553D01*
X73367854Y-57480465D01*
X73368621Y-57488356D01*
X73369756Y-57496210D01*
X73371258Y-57504014D01*
X73373128Y-57511754D01*
X73375367Y-57519416D01*
X73377973Y-57526986D01*
X73380947Y-57534451D01*
X73384289Y-57541795D01*
X73387999Y-57549005D01*
X73392077Y-57556068D01*
X73396522Y-57562969D01*
X73401336Y-57569694D01*
X73406518Y-57576229D01*
X73412067Y-57582561D01*
X73412041Y-57582587D01*
X73412015Y-57582613D01*
X73411989Y-57582638D01*
X73411963Y-57582665D01*
X73416963Y-57587665D01*
X73791999Y-57962698D01*
X73416963Y-58337732D01*
X73411963Y-58342731D01*
X73412067Y-58342835D01*
X73406518Y-58349167D01*
X73401336Y-58355702D01*
X73396522Y-58362427D01*
X73392077Y-58369328D01*
X73387999Y-58376391D01*
X73384289Y-58383601D01*
X73380947Y-58390946D01*
X73377973Y-58398410D01*
X73375367Y-58405980D01*
X73373128Y-58413642D01*
X73371258Y-58421382D01*
X73369756Y-58429186D01*
X73368621Y-58437041D01*
X73367854Y-58444931D01*
X73367455Y-58452843D01*
X73367424Y-58460764D01*
X71848737Y-58460764D01*
X71849518Y-58458451D01*
X71886494Y-58358858D01*
X71926317Y-58260683D01*
X71968935Y-58163975D01*
X72014299Y-58068784D01*
X72062359Y-57975162D01*
X72113063Y-57883158D01*
X72166362Y-57792823D01*
X72222205Y-57704207D01*
X72280542Y-57617360D01*
X72209800Y-57560423D01*
X72142424Y-57499651D01*
X72078579Y-57435209D01*
X72018432Y-57367262D01*
X71962148Y-57295976D01*
X71909891Y-57221516D01*
X71861826Y-57144047D01*
X71818120Y-57063734D01*
X71778937Y-56980743D01*
X71744442Y-56895239D01*
X71714801Y-56807386D01*
X71690178Y-56717351D01*
X71670740Y-56625297D01*
X71656651Y-56531392D01*
X71648076Y-56435799D01*
X71645182Y-56338684D01*
X71647271Y-56256146D01*
X71653472Y-56174687D01*
X71663682Y-56094408D01*
X71677802Y-56015410D01*
X71695730Y-55937794D01*
X71717365Y-55861662D01*
X71742606Y-55787114D01*
X71771352Y-55714251D01*
X71803501Y-55643175D01*
X71838953Y-55573986D01*
X71877607Y-55506786D01*
X71919361Y-55441676D01*
X71964115Y-55378757D01*
X72011767Y-55318129D01*
X72062216Y-55259894D01*
X72115361Y-55204154D01*
X72171102Y-55151009D01*
X72229337Y-55100559D01*
X72289964Y-55052907D01*
X72352884Y-55008154D01*
X72417994Y-54966400D01*
X72485194Y-54927746D01*
X72554382Y-54892294D01*
X72625458Y-54860144D01*
X72698321Y-54831399D01*
X72772869Y-54806158D01*
X72849001Y-54784523D01*
X72926617Y-54766595D01*
X73005615Y-54752475D01*
X73085894Y-54742264D01*
X73167353Y-54736064D01*
X73249890Y-54733974D01*
X73324736Y-54735692D01*
X73398704Y-54740793D01*
X73471718Y-54749204D01*
X73543703Y-54760849D01*
X73614584Y-54775653D01*
X73684285Y-54793540D01*
X73752732Y-54814436D01*
X73819850Y-54838265D01*
X73885562Y-54864951D01*
X73949794Y-54894420D01*
X74012470Y-54926597D01*
X74073516Y-54961405D01*
X74132856Y-54998771D01*
X74190414Y-55038618D01*
X74246116Y-55080871D01*
X74299886Y-55125456D01*
X74351650Y-55172296D01*
X74401331Y-55221318D01*
X74448855Y-55272444D01*
X74494146Y-55325601D01*
X74537129Y-55380713D01*
X74577729Y-55437705D01*
X74615871Y-55496501D01*
X74651479Y-55557027D01*
X74684479Y-55619206D01*
X74714794Y-55682965D01*
X74742350Y-55748226D01*
X74767072Y-55814917D01*
X74788884Y-55882960D01*
X74807711Y-55952281D01*
X74823477Y-56022805D01*
X74836109Y-56094456D01*
X74884074Y-56089596D01*
X74932224Y-56085370D01*
X74980553Y-56081783D01*
X75029057Y-56078838D01*
X75077732Y-56076541D01*
X75126574Y-56074894D01*
X75175578Y-56073904D01*
X75224741Y-56073572D01*
X75224742Y-56073572D01*
X75277464Y-56073953D01*
X75330003Y-56075093D01*
X75382354Y-56076985D01*
X75434512Y-56079626D01*
X75486472Y-56083009D01*
X75538228Y-56087130D01*
X75589775Y-56091983D01*
X75641109Y-56097563D01*
X75654533Y-56026888D01*
X75671014Y-55957341D01*
X75690478Y-55888996D01*
X75712853Y-55821924D01*
X75738066Y-55756199D01*
X75766042Y-55691896D01*
X75796710Y-55629085D01*
X75829995Y-55567842D01*
X75865825Y-55508239D01*
X75904127Y-55450349D01*
X75944827Y-55394245D01*
X75987852Y-55340001D01*
X76033128Y-55287689D01*
X76080584Y-55237384D01*
X76130145Y-55189158D01*
X76181739Y-55143083D01*
X76235292Y-55099235D01*
X76290731Y-55057685D01*
X76347983Y-55018506D01*
X76406974Y-54981773D01*
X76467632Y-54947558D01*
X76529884Y-54915934D01*
X76593655Y-54886975D01*
X76658874Y-54860753D01*
X76725466Y-54837342D01*
X76793359Y-54816816D01*
X76862480Y-54799246D01*
X76932755Y-54784707D01*
X77004111Y-54773271D01*
X77076475Y-54765012D01*
X77149773Y-54760003D01*
X77223934Y-54758317D01*
X77306472Y-54760407D01*
X77387931Y-54766607D01*
X77468210Y-54776818D01*
X77547207Y-54790938D01*
X77624823Y-54808866D01*
X77700955Y-54830501D01*
X77775504Y-54855742D01*
X77848366Y-54884488D01*
X77919442Y-54916637D01*
X77988631Y-54952089D01*
X78055831Y-54990743D01*
X78120941Y-55032497D01*
X78183861Y-55077250D01*
X78244488Y-55124902D01*
X78302723Y-55175352D01*
X78358463Y-55228497D01*
X78411609Y-55284238D01*
X78462058Y-55342472D01*
X78509710Y-55403100D01*
X78554464Y-55466019D01*
X78596218Y-55531129D01*
X78634871Y-55598329D01*
X78670324Y-55667518D01*
X78702473Y-55738594D01*
X78731219Y-55811457D01*
X78756460Y-55886005D01*
X78778095Y-55962137D01*
X78796023Y-56039753D01*
X78810143Y-56118751D01*
X78820353Y-56199030D01*
X78826554Y-56280489D01*
X78828642Y-56363026D01*
X78825723Y-56460559D01*
X78817074Y-56556556D01*
X78802865Y-56650849D01*
X78783262Y-56743272D01*
X78758433Y-56833657D01*
X78728546Y-56921836D01*
X78693766Y-57007642D01*
X78654263Y-57090909D01*
X78610203Y-57171467D01*
X78561753Y-57249151D01*
X78509081Y-57323792D01*
X78452355Y-57395224D01*
X78391742Y-57463279D01*
X78327408Y-57527789D01*
X78259522Y-57588587D01*
X78188251Y-57645507D01*
X78244631Y-57731135D01*
X78298603Y-57818446D01*
X78350120Y-57907394D01*
X78380059Y-57962697D01*
X78399134Y-57997930D01*
X78445598Y-58090007D01*
X78489465Y-58183579D01*
X78530688Y-58278597D01*
X78569218Y-58375014D01*
X78605009Y-58472782D01*
X78638013Y-58571856D01*
X78668183Y-58672186D01*
X78695471Y-58773726D01*
X78719831Y-58876429D01*
X78741214Y-58980246D01*
X78759574Y-59085131D01*
X78774863Y-59191037D01*
X78882994Y-59046061D01*
X78985351Y-58896679D01*
X79081768Y-58743056D01*
X79172080Y-58585357D01*
X79256121Y-58423750D01*
X79333724Y-58258400D01*
X79404724Y-58089472D01*
X79468954Y-57917133D01*
X79526249Y-57741548D01*
X79576444Y-57562884D01*
X79619371Y-57381307D01*
X79654866Y-57196982D01*
X79682761Y-57010075D01*
X79702892Y-56820752D01*
X79715092Y-56629179D01*
X79719196Y-56435522D01*
X79713344Y-56204351D01*
X79695977Y-55976201D01*
X79667379Y-55751356D01*
X79627832Y-55530100D01*
X79577619Y-55312715D01*
X79517024Y-55099484D01*
X79446330Y-54890690D01*
X79365819Y-54686617D01*
X79275775Y-54487547D01*
X79176482Y-54293765D01*
X79068221Y-54105552D01*
X78951276Y-53923192D01*
X78825930Y-53746968D01*
X78692467Y-53577162D01*
X78551170Y-53414060D01*
X78402320Y-53257942D01*
X78246203Y-53109093D01*
X78083100Y-52967795D01*
X77913295Y-52834332D01*
X77737071Y-52708987D01*
X77554711Y-52592042D01*
X77366498Y-52483781D01*
X77172715Y-52384487D01*
X76973645Y-52294444D01*
X76769572Y-52213933D01*
X76560779Y-52143239D01*
X76347548Y-52082644D01*
X76130163Y-52032431D01*
X75908906Y-51992884D01*
X75684062Y-51964286D01*
X75455912Y-51946919D01*
X75224741Y-51941067D01*
X74993569Y-51946919D01*
X74765420Y-51964286D01*
X74540575Y-51992884D01*
X74319319Y-52032431D01*
X74101934Y-52082644D01*
X73888703Y-52143239D01*
X73679909Y-52213933D01*
X73475836Y-52294444D01*
X73276767Y-52384487D01*
X73082984Y-52483781D01*
X72894771Y-52592042D01*
X72712411Y-52708987D01*
X72536187Y-52834332D01*
X72366382Y-52967795D01*
X72203279Y-53109093D01*
X72047161Y-53257942D01*
X71898312Y-53414060D01*
X71757014Y-53577162D01*
X71623551Y-53746968D01*
X71498206Y-53923192D01*
X71381261Y-54105552D01*
X71273000Y-54293765D01*
X71173706Y-54487547D01*
X71083663Y-54686617D01*
X71003152Y-54890690D01*
X70932457Y-55099484D01*
X70871862Y-55312715D01*
X70821650Y-55530100D01*
X70782103Y-55751356D01*
X70753504Y-55976201D01*
X70736138Y-56204351D01*
X70730286Y-56435522D01*
X69822833Y-56435522D01*
X69822835Y-53219890D01*
X75224739Y-50101099D01*
X80626651Y-53219892D01*
X80626650Y-56435522D01*
X80626649Y-59457481D01*
G37*
M02*
