%TF.GenerationSoftware,KiCad,Pcbnew,7.0.8*%
%TF.CreationDate,2024-01-22T23:57:30-06:00*%
%TF.ProjectId,idawgz32,69646177-677a-4333-922e-6b696361645f,rev?*%
%TF.SameCoordinates,Original*%
%TF.FileFunction,Profile,NP*%
%FSLAX46Y46*%
G04 Gerber Fmt 4.6, Leading zero omitted, Abs format (unit mm)*
G04 Created by KiCad (PCBNEW 7.0.8) date 2024-01-22 23:57:30*
%MOMM*%
%LPD*%
G01*
G04 APERTURE LIST*
%TA.AperFunction,Profile*%
%ADD10C,0.050000*%
%TD*%
G04 APERTURE END LIST*
D10*
X66180162Y-72918689D02*
X64765627Y-78197812D01*
X32030661Y-34227120D02*
G75*
G03*
X29581177Y-35641328I-517630J-1931860D01*
G01*
X110349660Y-73659185D02*
X88133366Y-79612025D01*
X32030664Y-34227109D02*
X47231147Y-38300071D01*
X62316129Y-79612055D02*
G75*
G03*
X64765626Y-78197812I517700J1931744D01*
G01*
X68112014Y-71436377D02*
G75*
G03*
X66180163Y-72918689I13J-2000034D01*
G01*
X38685628Y-71209694D02*
X42309099Y-57686733D01*
X42309102Y-57686734D02*
G75*
G03*
X40894885Y-55237243I-1931874J517626D01*
G01*
X110349650Y-73659150D02*
G75*
G03*
X111763871Y-71209698I-517621J1931840D01*
G01*
X85683853Y-78197814D02*
G75*
G03*
X88133366Y-79612025I1931778J517505D01*
G01*
X47231151Y-38300058D02*
G75*
G03*
X47748781Y-38368217I517680J1931848D01*
G01*
X102700717Y-38368206D02*
G75*
G03*
X103218357Y-38300069I111J1999497D01*
G01*
X120868302Y-35641332D02*
G75*
G03*
X118418839Y-34227117I-1931869J-517675D01*
G01*
X123077579Y-51613778D02*
X109554619Y-55237244D01*
X62316137Y-79612025D02*
X40099841Y-73659188D01*
X82337491Y-71436329D02*
X68112014Y-71436330D01*
X84269270Y-72918708D02*
G75*
G03*
X82337491Y-71436329I-1931841J-517601D01*
G01*
X47748781Y-38368217D02*
X102700717Y-38368221D01*
X120868327Y-35641325D02*
X124491794Y-49164290D01*
X109554610Y-55237212D02*
G75*
G03*
X108140405Y-57686735I517720J-1931899D01*
G01*
X108140405Y-57686735D02*
X111763872Y-71209698D01*
X123077576Y-51613766D02*
G75*
G03*
X124491793Y-49164290I-517649J1931858D01*
G01*
X103218356Y-38300069D02*
X118418839Y-34227116D01*
X40894885Y-55237242D02*
X27371922Y-51613778D01*
X25957736Y-49164296D02*
G75*
G03*
X27371922Y-51613777I1931894J-517613D01*
G01*
X38685627Y-71209694D02*
G75*
G03*
X40099841Y-73659188I1931902J-517612D01*
G01*
X25957709Y-49164289D02*
X29581176Y-35641328D01*
X85683876Y-78197808D02*
X84269338Y-72918690D01*
M02*
